<svg width="70" height="70" viewBox="0 0 70 70" fill="none" xmlns="http://www.w3.org/2000/svg">
<rect width="70" height="70" rx="35" fill="white" fill-opacity="0.8"/>
<path opacity="0.4" d="M27.3076 48.4615H33.0768" stroke="#025AE9" stroke-width="2.11538" stroke-linecap="round" stroke-linejoin="round"/>
<path fill-rule="evenodd" clip-rule="evenodd" d="M22.4986 17.7886C20.9585 17.7886 19.7101 19.037 19.7101 20.577V49.4232C19.7101 50.9632 20.9585 52.2116 22.4986 52.2116H37.8832C39.4232 52.2116 40.6716 50.9632 40.6716 49.4232V43.6539C40.6716 43.0698 41.1452 42.5962 41.7293 42.5962C42.3135 42.5962 42.787 43.0698 42.787 43.6539V49.4232C42.787 52.1315 40.5915 54.327 37.8832 54.327H22.4986C19.7903 54.327 17.5947 52.1315 17.5947 49.4232V20.577C17.5947 17.8687 19.7903 15.6732 22.4986 15.6732H37.8832C40.5915 15.6732 42.787 17.8687 42.787 20.577V26.3462C42.787 26.9304 42.3135 27.4039 41.7293 27.4039C41.1452 27.4039 40.6716 26.9304 40.6716 26.3462V20.577C40.6716 19.037 39.4232 17.7886 37.8832 17.7886H22.4986ZM28.2478 33.2617L28.2477 31.9479H30.4036C31.2956 31.9479 32.0626 32.4887 32.3923 33.2617H28.2478ZM26.3631 33.2617H25.8752C25.4073 33.2617 25.0279 33.6411 25.0279 34.1091C25.0279 34.577 25.4073 34.9564 25.8752 34.9564H26.3632L26.3635 40.7839C26.3635 41.3043 26.7854 41.7262 27.3059 41.7261C27.8263 41.7261 28.2481 41.3042 28.2481 40.7838L28.248 38.0659H30.4036C32.3001 38.0659 33.882 36.7326 34.2696 34.9564H34.837C35.305 34.9564 35.6844 34.577 35.6844 34.1091C35.6844 33.6411 35.305 33.2617 34.837 33.2617H34.2694C33.8811 31.4817 32.2961 30.1523 30.4036 30.1523H27.3072C27.0686 30.1523 26.8516 30.2454 26.6908 30.3973C26.4901 30.5701 26.363 30.8261 26.363 31.1117L26.3631 33.2617ZM32.3924 34.9564C32.0631 35.7282 31.2973 36.2702 30.4036 36.2702H28.2479L28.2478 34.9564H32.3924ZM39.0587 35.7479C38.6457 35.3349 38.6457 34.6652 39.0587 34.2521L42.9049 30.406C43.3179 29.9929 43.9876 29.9929 44.4007 30.406C44.8137 30.819 44.8137 31.4887 44.4007 31.9018L42.3603 33.9422L51.347 33.9422C51.9311 33.9422 52.4047 34.4158 52.4047 34.9999C52.4047 35.584 51.9311 36.0576 51.347 36.0576H42.36L44.4007 38.0983C44.8137 38.5113 44.8137 39.181 44.4007 39.5941C43.9876 40.0071 43.3179 40.0071 42.9049 39.5941L39.0587 35.7479Z" fill="#005CE5"/>
</svg>
