<svg width="26" height="26" viewBox="0 0 26 26" fill="none" xmlns="http://www.w3.org/2000/svg">
<rect width="26" height="26" rx="13" fill="white" fill-opacity="0.4"/>
<path fill-rule="evenodd" clip-rule="evenodd" d="M17.4545 9.28789C17.6595 9.08287 17.6595 8.75046 17.4545 8.54543C17.2495 8.34041 16.9171 8.34041 16.712 8.54543L12.9999 12.2575L9.28783 8.54543C9.08281 8.34041 8.7504 8.34041 8.54537 8.54543C8.34035 8.75046 8.34035 9.08287 8.54537 9.28789L12.2575 13L8.54537 16.7121C8.34035 16.9171 8.34035 17.2495 8.54537 17.4546C8.7504 17.6596 9.08281 17.6596 9.28783 17.4546L12.9999 13.7425L16.712 17.4546C16.9171 17.6596 17.2495 17.6596 17.4545 17.4546C17.6595 17.2495 17.6595 16.9171 17.4545 16.7121L13.7424 13L17.4545 9.28789Z" fill="white"/>
</svg>
