<svg width="24" height="24" viewBox="0 0 24 24" fill="none" xmlns="http://www.w3.org/2000/svg">
<path fill-rule="evenodd" clip-rule="evenodd" d="M11.0998 4.99985L11.0998 12.8271L9.63618 11.3635C9.28471 11.012 8.71486 11.012 8.36339 11.3635C8.01192 11.7149 8.01192 12.2848 8.36339 12.6362L11.3634 15.6362C11.7149 15.9877 12.2847 15.9877 12.6362 15.6362L15.6362 12.6362C15.9877 12.2848 15.9877 11.7149 15.6362 11.3635C15.2847 11.012 14.7149 11.012 14.3634 11.3635L12.8998 12.8271V4.99985C12.8998 4.5028 12.4968 4.09985 11.9998 4.09985C11.5027 4.09985 11.0998 4.5028 11.0998 4.99985ZM4.90037 6.99995C4.90037 6.39244 5.39286 5.89995 6.00037 5.89995H7.00037C7.49743 5.89995 7.90037 5.49701 7.90037 4.99995C7.90037 4.50289 7.49743 4.09995 7.00037 4.09995H6.00037C4.39875 4.09995 3.10037 5.39832 3.10037 6.99995V16C3.10037 18.1539 4.84646 19.9 7.00037 19.9H17.0004C19.1543 19.9 20.9004 18.1539 20.9004 16V6.99995C20.9004 5.39833 19.602 4.09995 18.0004 4.09995H17.0004C16.5033 4.09995 16.1004 4.50289 16.1004 4.99995C16.1004 5.49701 16.5033 5.89995 17.0004 5.89995H18.0004C18.6079 5.89995 19.1004 6.39244 19.1004 6.99995V16C19.1004 17.1597 18.1602 18.1 17.0004 18.1H7.00037C5.84057 18.1 4.90037 17.1597 4.90037 16V6.99995Z" fill="#fff"/>
</svg>
