<svg width="40" height="40" viewBox="0 0 40 40" fill="none" xmlns="http://www.w3.org/2000/svg">
<path opacity="0.4" d="M30 31.7308C30 34.5984 27.9336 36.9231 25.3846 36.9231C22.8356 36.9231 20.7692 34.5984 20.7692 31.7308C20.7692 29.7606 22.9478 26.4128 24.3114 24.5103C24.8457 23.7649 25.9236 23.7649 26.4579 24.5103C27.8215 26.4128 30 29.7606 30 31.7308Z" fill="white"/>
<path fill-rule="evenodd" clip-rule="evenodd" d="M13.0768 10.0957C10.3192 12.1888 8.53837 15.5019 8.53837 19.231C8.53837 22.3275 9.76636 25.1373 11.7619 27.1998C12.2047 26.7505 12.6427 26.3043 13.0768 25.8605L13.0768 10.0957ZM14.6153 9.11044L14.6153 24.282C15.5743 23.2949 16.5211 22.3154 17.4684 21.3352L17.4719 21.3316C17.8015 20.9906 18.1312 20.6495 18.4614 20.308L18.4614 7.87178C17.0873 8.05613 15.7903 8.48396 14.6153 9.11044ZM19.9999 7.76942L19.9999 18.7196C21.2524 17.429 22.5251 16.1254 23.8461 14.791L23.8461 7.76942H19.9999ZM30.9973 7.76942C28.9883 9.682 27.1375 11.4948 25.3845 13.2456V7.76942H30.9973ZM19.9999 32.3848C16.9118 32.3848 14.0723 31.3207 11.828 29.5391C9.55776 31.8246 7.13739 34.2054 4.42754 36.7687C4.08805 37.0899 3.5525 37.075 3.23136 36.7355C2.91022 36.396 2.9251 35.8605 3.26459 35.5393C5.93731 33.0111 8.32692 30.6615 10.5713 28.4029C8.26592 26.0335 6.84606 22.798 6.84606 19.231C6.84606 11.9663 12.7352 6.07711 19.9999 6.07711H32.3076C33.1998 6.07711 33.923 6.80034 33.923 7.69249V11.5386C33.923 12.006 33.5442 12.3848 33.0768 12.3848C32.6095 12.3848 32.2307 12.006 32.2307 11.5386V8.93182C27.0014 13.9073 22.8488 18.2035 18.6853 22.5113L18.6817 22.515L18.6816 22.515L18.6816 22.5151L18.6814 22.5153C16.8301 24.4307 14.9765 26.3485 13.0264 28.3277C14.9583 29.8109 17.3761 30.6925 19.9999 30.6925C25.7816 30.6925 30.5639 26.4111 31.3486 20.8463H26.1538C25.6864 20.8463 25.3076 20.4675 25.3076 20.0002C25.3076 19.5329 25.6864 19.154 26.1538 19.154H32.284C32.5174 19.154 32.7405 19.2505 32.9004 19.4206C33.0603 19.5907 33.1429 19.8193 33.1285 20.0523C32.7041 26.9348 26.9888 32.3848 19.9999 32.3848Z" fill="white"/>
</svg>
