<svg width="48" height="48" viewBox="0 0 48 48" fill="none" xmlns="http://www.w3.org/2000/svg">
<rect x="0.965576" width="47.0345" height="47.0345" rx="23.5172" fill="white"/>
<path opacity="0.4" fill-rule="evenodd" clip-rule="evenodd" d="M24.4828 25.9045C26.7901 25.9045 28.6605 24.0341 28.6605 21.7268C28.6605 19.4195 26.7901 17.5491 24.4828 17.5491C22.1755 17.5491 20.3051 19.4195 20.3051 21.7268C20.3051 24.0341 22.1755 25.9045 24.4828 25.9045ZM24.6246 36.0503C27.4669 36.0503 30.451 33.0663 31.6447 31.2783C31.2323 30.541 30.8867 30.2149 30.3683 29.7259C30.2745 29.6373 30.1749 29.5434 30.0682 29.4407C28.4947 27.9257 26.525 27.0981 24.4928 27.0981C22.4605 27.0981 20.4908 27.9257 18.9173 29.4407C18.8157 29.5385 18.7193 29.6295 18.6273 29.7165C18.1091 30.2061 17.7273 30.5667 17.321 31.2783C18.2163 32.7678 21.4988 36.0503 24.6246 36.0503Z" fill="#025AE9"/>
<path fill-rule="evenodd" clip-rule="evenodd" d="M34.0319 10.9243C34.3945 10.9243 34.6884 11.2182 34.6884 11.5808V13.3118H36.4191C36.7817 13.3118 37.0756 13.6057 37.0756 13.9683C37.0756 14.3308 36.7817 14.6248 36.4191 14.6248H34.6884V16.3554C34.6884 16.7179 34.3945 17.0118 34.0319 17.0118C33.6694 17.0118 33.3754 16.7179 33.3754 16.3554V14.6248H31.6446C31.282 14.6248 30.9881 14.3308 30.9881 13.9683C30.9881 13.6057 31.282 13.3118 31.6446 13.3118H33.3754V11.5808C33.3754 11.2182 33.6694 10.9243 34.0319 10.9243ZM16.1274 14.6248C15.8278 14.6248 15.5902 14.8641 15.5902 15.1579L15.5902 26.5014C15.5902 27.3799 15.9114 28.3789 16.4937 29.4086C17.0728 30.4326 17.8887 31.4485 18.8214 32.3487C19.7539 33.2489 20.7879 34.0187 21.7917 34.56C22.8052 35.1067 23.7389 35.394 24.4828 35.394C25.2343 35.394 26.1722 35.12 27.1838 34.5964C28.1868 34.0773 29.219 33.335 30.149 32.4551C32.037 30.6686 33.3754 28.4429 33.3754 26.5014L33.3754 18.7428C33.3754 18.3802 33.6693 18.0863 34.0319 18.0863C34.3944 18.0863 34.6884 18.3802 34.6884 18.7428V26.5014C34.6884 28.9759 33.0426 31.5247 31.0514 33.4088C30.0417 34.3641 28.9104 35.1811 27.7873 35.7625C26.6727 36.3393 25.5217 36.707 24.4828 36.707C23.4362 36.707 22.281 36.3157 21.1684 35.7157C20.046 35.1104 18.9166 34.2655 17.9095 33.2934C16.9025 32.3215 16.0026 31.2076 15.3508 30.0549C14.7021 28.9078 14.2772 27.6831 14.2772 26.5014L14.2772 15.1579C14.2772 14.1332 15.1084 13.3118 16.1274 13.3118H29.3567C29.7193 13.3118 30.0132 13.6057 30.0132 13.9683C30.0132 14.3308 29.7193 14.6248 29.3567 14.6248H16.1274Z" fill="#025AE9"/>
</svg>
