<svg width="48" height="48" viewBox="0 0 48 48" fill="none" xmlns="http://www.w3.org/2000/svg">
<rect x="0.034668" width="47.0345" height="47.0345" rx="23.5172" fill="white"/>
<path fill-rule="evenodd" clip-rule="evenodd" d="M28.9233 15.7588C28.9233 18.7253 26.5184 21.1302 23.5519 21.1302C20.5854 21.1302 18.1806 18.7253 18.1806 15.7588C18.1806 12.7923 20.5854 10.3875 23.5519 10.3875C26.5184 10.3875 28.9233 12.7923 28.9233 15.7588ZM22.7558 14.655V14.163H23.7633C24.1076 14.163 24.4056 14.3637 24.5457 14.655H22.7558ZM21.91 14.655H21.6657C21.4582 14.655 21.29 14.8232 21.29 15.0307C21.29 15.2381 21.4582 15.4063 21.6657 15.4063H21.91L21.91 17.8641C21.91 18.0976 22.0994 18.287 22.3329 18.287C22.5665 18.287 22.7558 18.0976 22.7558 17.8641L22.7558 16.6946H23.7633C24.5539 16.6946 25.2145 16.1435 25.3846 15.4063H25.6389C25.8463 15.4063 26.0145 15.2381 26.0145 15.0307C26.0145 14.8232 25.8463 14.655 25.6389 14.655H25.3845C25.214 13.9163 24.5521 13.367 23.7633 13.367H22.3325C22.1962 13.367 22.076 13.4354 22.0042 13.5398C21.9453 13.6124 21.91 13.705 21.91 13.8059V14.655ZM24.5458 15.4063C24.4059 15.6973 24.1084 15.8985 23.7633 15.8985H22.7558V15.4063H24.5458ZM16.987 27.6949C16.6573 27.6949 16.3901 27.9621 16.3901 28.2918V31.2758C16.3901 31.2759 16.3901 31.2759 16.3901 31.2759C16.3901 31.3763 16.415 31.471 16.4588 31.5541L18.8404 36.3173C18.9415 36.5195 19.1482 36.6472 19.3742 36.6472H27.7297C27.9557 36.6472 28.1624 36.5195 28.2635 36.3173L30.6451 31.5541C30.6889 31.471 30.7137 31.3763 30.7137 31.2759C30.7137 31.2759 30.7137 31.2759 30.7137 31.2758V28.2918C30.7137 27.9621 30.4465 27.6949 30.1169 27.6949H24.1488L24.1488 22.3235C24.1488 21.9939 23.8816 21.7267 23.5519 21.7267C23.2223 21.7267 22.9551 21.9939 22.9551 22.3235L22.9551 27.6949H16.987ZM29.5201 30.6791V28.8886H17.5838V30.6791H29.5201ZM17.9526 31.8727L19.7431 35.4536H27.3608L29.1512 31.8727H17.9526Z" fill="#025AE9"/>
<path opacity="0.4" fill-rule="evenodd" clip-rule="evenodd" d="M21.742 25.7171C21.8206 23.5566 21.9055 21.2191 16.6935 21.1325C16.5287 21.1297 16.3898 21.2682 16.3927 21.433C16.4849 26.5691 18.9398 26.5362 21.1267 26.4939C21.4562 26.4876 21.7244 26.2191 21.7358 25.8896C21.7378 25.8323 21.7399 25.7748 21.742 25.7171ZM26.1266 26.482C28.2871 26.5605 30.6247 26.6455 30.7113 21.4334C30.714 21.2686 30.5755 21.1297 30.4108 21.1327C25.2747 21.2248 25.3076 23.6798 25.3498 25.8666C25.3562 26.1961 25.6247 26.4644 25.9541 26.4758C26.0115 26.4778 26.069 26.4799 26.1266 26.482Z" fill="#025AE9"/>
</svg>
