<svg width="48" height="48" viewBox="0 0 48 48" fill="none" xmlns="http://www.w3.org/2000/svg">
<rect x="0.931152" width="47.0345" height="47.0345" rx="23.5172" fill="white"/>
<path fill-rule="evenodd" clip-rule="evenodd" d="M34.6539 15.7586C34.6539 14.4072 33.5583 13.3116 32.2069 13.3116L13.1088 13.3116C12.7462 13.3116 12.4523 13.6056 12.4523 13.9681C12.4523 14.3307 12.7462 14.6246 13.1088 14.6246L32.2069 14.6246C32.8332 14.6246 33.3409 15.1323 33.3409 15.7586V24.114C33.3409 24.7403 32.8332 25.248 32.2069 25.248H19.0769C18.7144 25.248 18.4204 25.5419 18.4204 25.9045C18.4204 26.2671 18.7144 26.561 19.0769 26.561H32.2069C33.5583 26.561 34.6539 25.4654 34.6539 24.114L34.6539 15.7586ZM25.6873 23.517C25.3324 23.517 25.0587 23.2577 25.0587 22.9311V19.3391H24.4482C24.1186 19.3391 23.8514 19.0719 23.8514 18.7423C23.8514 18.4127 24.1186 18.1455 24.4482 18.1455H25.0587V16.9508C25.0587 16.6146 25.3324 16.3552 25.6873 16.3552H27.2462C28.7135 16.3552 29.6912 17.051 29.9007 18.1455H30.4164C30.746 18.1455 31.0132 18.4127 31.0132 18.7423C31.0132 19.0719 30.746 19.3391 30.4164 19.3391H29.8387C29.5042 20.4388 28.4024 21.1297 27.1043 21.1297H26.3057V22.9311C26.3057 23.2577 26.0319 23.517 25.6873 23.517ZM28.5827 18.1455C28.3808 17.675 27.8616 17.4311 27.1448 17.4311H26.3057V18.1455H28.5827ZM26.3057 19.3391H28.4823C28.2365 19.7525 27.7683 20.0635 27.1448 20.0635H26.3057V19.3391ZM19.0769 23.577C19.4395 23.577 19.7334 23.2831 19.7334 22.9205C19.7334 22.5579 19.4395 22.264 19.0769 22.264H17.8833C17.5207 22.264 17.2268 22.5579 17.2268 22.9205C17.2268 23.2831 17.5207 23.577 17.8833 23.577H19.0769ZM19.7334 19.9364C19.7334 20.2989 19.4395 20.5929 19.0769 20.5929H16.0928C15.7302 20.5929 15.4363 20.2989 15.4363 19.9364C15.4363 19.5738 15.7302 19.2799 16.0928 19.2799H19.0769C19.4395 19.2799 19.7334 19.5738 19.7334 19.9364ZM19.0769 17.6088C19.4395 17.6088 19.7334 17.3148 19.7334 16.9523C19.7334 16.5897 19.4395 16.2958 19.0769 16.2958L14.3024 16.2958C13.9398 16.2958 13.6459 16.5897 13.6459 16.9523C13.6459 17.3148 13.9398 17.6088 14.3024 17.6088L19.0769 17.6088Z" fill="#025AE9"/>
<path opacity="0.4" fill-rule="evenodd" clip-rule="evenodd" d="M33.699 16.9522C35.1822 16.9522 36.3847 15.7497 36.3847 14.2665C36.3847 12.7832 35.1822 11.5808 33.699 11.5808C32.2157 11.5808 31.0133 12.7832 31.0133 14.2665C31.0133 15.7497 32.2157 16.9522 33.699 16.9522ZM19.4044 29.2337C18.4243 28.8755 17.3146 28.8534 16.3143 29.1733L16.3098 29.1747L13.7653 29.9683V34.2003H17.3994C17.4244 34.2003 17.4493 34.2017 17.4741 34.2045L22.5348 34.7845L34.8105 30.597C34.9669 30.5437 35.0566 30.4536 35.0978 30.3777C35.1368 30.306 35.1412 30.2359 35.1136 30.1653C35.059 30.0256 34.8356 29.8445 34.4979 29.8765L34.4946 29.8768L29.6423 30.3118C29.6254 30.3561 29.6063 30.3992 29.5852 30.4409C29.4097 30.7876 29.0921 31.0608 28.7067 31.1923L22.8185 33.2008C22.4753 33.3179 22.1023 33.1346 21.9852 32.7914C21.8681 32.4483 22.0514 32.0752 22.3946 31.9581L28.2828 29.9496C28.3362 29.9314 28.3732 29.9015 28.3951 29.8753C28.3903 29.8732 28.385 29.8711 28.3792 29.8689C28.3141 29.844 28.2287 29.8319 28.1496 29.8394L22.6685 30.3588C22.5712 30.368 22.4731 30.3553 22.3812 30.3218L19.4044 29.2337ZM34.3759 28.5692L29.4082 29.0145C29.2434 28.834 29.0389 28.7153 28.8475 28.6422C28.5871 28.5428 28.2985 28.5064 28.0258 28.5322L22.6925 29.0376L19.8551 28.0005C18.6007 27.5421 17.1927 27.5144 15.9167 27.9219L15.9144 27.9227L12.9133 28.8587C12.639 28.9442 12.4523 29.1981 12.4523 29.4854L12.4523 34.8568C12.4523 35.2193 12.7462 35.5133 13.1088 35.5133H17.3619L22.5321 36.1058C22.6288 36.1169 22.7267 36.1063 22.8188 36.0749L35.2344 31.8397C36.1084 31.5416 36.7047 30.6294 36.3365 29.6873C36.0284 28.899 35.1785 28.4938 34.3759 28.5692Z" fill="#025AE9"/>
</svg>
