<svg width="48" height="48" viewBox="0 0 48 48" fill="none" xmlns="http://www.w3.org/2000/svg">
<rect x="0.00012207" width="47.0345" height="47.0345" rx="23.5172" fill="white"/>
<circle opacity="0.4" cx="28.8886" cy="24.7108" r="1.19363" fill="#025AE9"/>
<path fill-rule="evenodd" clip-rule="evenodd" d="M25.4854 20.076C24.3669 21.7886 22.4331 22.9202 20.235 22.9202C19.2282 22.9202 18.2769 22.6828 17.4339 22.2609C16.153 23.5633 15.2217 25.5732 15.2217 27.2498C15.2217 28.4407 15.501 29.3823 15.9709 30.1588C16.4441 30.9406 17.1315 31.5892 17.9956 32.1581C18.2359 32.3163 18.3452 32.6125 18.2652 32.8889L17.9034 34.1395C17.8436 34.3462 17.9378 34.5663 18.1286 34.6658L19.5577 35.411C19.725 35.4982 19.9289 35.4723 20.0691 35.3461L21.1854 34.3407C21.3286 34.2116 21.5213 34.1521 21.7124 34.1778C24.0477 34.4924 25.8879 34.4691 27.3293 34.1844C27.5509 34.1406 27.7794 34.2139 27.9343 34.3783L28.7705 35.2659C28.9132 35.4174 29.1409 35.4518 29.322 35.3493L30.4791 34.6942C30.6631 34.5901 30.7502 34.3723 30.6889 34.1699L30.3949 33.2C30.3132 32.9303 30.4126 32.6386 30.6421 32.475C31.8615 31.6059 32.6854 30.525 33.1263 29.4298C33.1938 29.2623 33.3272 29.13 33.4953 29.0639L35.1075 28.4307C35.2804 28.3628 35.3942 28.1959 35.3942 28.0101V26.2865C35.3942 26.081 35.2555 25.9014 35.0567 25.8493L33.569 25.4598C33.3681 25.4071 33.2039 25.2625 33.1263 25.0698C32.6644 23.9223 31.8413 22.884 30.7425 22.0489C30.5791 21.9247 30.4832 21.7314 30.4832 21.5262V18.4812C29.619 18.8799 28.52 19.5755 27.9392 20.2055C27.7743 20.3843 27.5242 20.4574 27.2891 20.3953C26.7118 20.2431 26.1085 20.1349 25.4854 20.076ZM26.1146 18.8268C26.3649 18.1498 26.5016 17.4177 26.5016 16.6537C26.5016 13.1927 23.696 10.3871 20.235 10.3871C16.7741 10.3871 13.9685 13.1927 13.9685 16.6537C13.9685 18.6285 14.882 20.39 16.3094 21.5386C15.2018 22.7437 14.3371 24.3927 14.0299 26.0137C13.7482 25.9207 13.4876 25.7576 13.2572 25.5445C13.4551 25.2502 13.61 24.9406 13.7208 24.6388C13.9417 24.0369 14.0274 23.3693 13.8736 22.8041C13.7947 22.5143 13.6442 22.2238 13.3865 22.0039C13.1214 21.7776 12.7905 21.6672 12.433 21.6672C12.0649 21.6672 11.7268 21.7888 11.4639 22.0353C11.2117 22.2717 11.0759 22.5781 11.0104 22.8748C10.8819 23.4562 10.9875 24.1455 11.2221 24.771C11.3076 24.999 11.4167 25.2334 11.5488 25.464C11.2191 25.7004 10.827 25.8449 10.3875 25.8449C10.0249 25.8449 9.73096 26.1389 9.73096 26.5014C9.73096 26.864 10.0249 27.1579 10.3875 27.1579C11.1696 27.1579 11.8285 26.8964 12.3579 26.5005C12.7816 26.8992 13.3005 27.2108 13.9092 27.3437C13.9238 28.7122 14.2568 29.8623 14.8477 30.8386C15.365 31.6934 16.0646 32.3897 16.8727 32.9775L16.6421 33.7747C16.4087 34.5817 16.7765 35.4415 17.5215 35.83L18.9506 36.5752C19.604 36.9159 20.4003 36.8148 20.9478 36.3217L21.8397 35.5184C23.9542 35.7824 25.7339 35.7824 27.2227 35.5377L27.8148 36.1662C28.3722 36.7579 29.2616 36.8923 29.9689 36.4919L31.126 35.8368C31.8445 35.43 32.185 34.5793 31.9454 33.789L31.7846 33.2585C32.9056 32.372 33.7267 31.3068 34.2312 30.1855L35.5875 29.6528C36.263 29.3875 36.7071 28.7358 36.7071 28.0101V26.2865C36.7071 25.4839 36.1657 24.7825 35.3894 24.5792L34.2119 24.2708C33.6782 23.0993 32.8431 22.0596 31.7962 21.2074V18.2227C31.7962 17.4899 31.0802 16.8091 30.2511 17.15C29.358 17.5173 28.0948 18.2515 27.2545 19.0345C26.8824 18.9486 26.502 18.879 26.1146 18.8268ZM19.0357 19.3395C18.7836 19.3395 18.589 19.1449 18.589 18.9V16.2018H17.9925C17.7476 16.2018 17.5491 16.0034 17.5491 15.7585C17.5491 15.5136 17.7476 15.3151 17.9925 15.3151H18.589V14.4148C18.589 14.1626 18.7836 13.9681 19.0357 13.9681H20.5775C21.622 13.9681 22.3175 14.4918 22.4647 15.3151H22.767C23.0119 15.3151 23.2104 15.5136 23.2104 15.7585C23.2104 16.0034 23.0119 16.2018 22.767 16.2018H22.4211C22.1847 17.0291 21.4006 17.549 20.4766 17.549H19.4752V18.9C19.4752 19.1449 19.2807 19.3395 19.0357 19.3395ZM21.529 15.3151C21.3868 14.9595 21.0169 14.775 20.5054 14.775H19.4752V15.3151H21.529ZM19.4752 16.2018H21.4582C21.2842 16.514 20.9504 16.7493 20.5054 16.7493H19.4752V16.2018ZM12.5338 23.0023C12.53 22.9989 12.5093 22.9802 12.433 22.9802C12.3938 22.9802 12.3752 22.9863 12.3701 22.9882C12.3658 22.9898 12.3643 22.9909 12.3618 22.9932C12.3554 22.9993 12.3187 23.0392 12.2924 23.1581C12.2378 23.4054 12.2697 23.8184 12.4459 24.295C12.4607 24.259 12.4748 24.2228 12.4882 24.1863C12.6507 23.7438 12.666 23.367 12.6067 23.1489C12.5789 23.047 12.5439 23.0108 12.5338 23.0023Z" fill="#025AE9"/>
</svg>
