<svg width="40" height="40" viewBox="0 0 40 40" fill="none" xmlns="http://www.w3.org/2000/svg">
<path opacity="0.4" fill-rule="evenodd" clip-rule="evenodd" d="M33.9231 14.6153C33.9231 12.8735 32.5111 11.4615 30.7692 11.4615L20.5812 11.4615L9.23078 11.4615C8.99184 11.4615 8.7591 11.488 8.53536 11.5384L6.70331 11.5384C4.70052 11.5384 3.07694 13.162 3.07694 15.1648L3.07693 26.923C3.07693 29.8968 5.48771 32.3076 8.46155 32.3076H18.0769H32.3077C32.7325 32.3076 33.0769 31.9632 33.0769 31.5384C33.0769 31.1136 32.7325 30.7692 32.3077 30.7692H18.0769H8.46155C6.33738 30.7692 4.6154 29.0472 4.6154 26.923L4.6154 15.1648C4.6154 14.0906 5.42658 13.2059 6.46979 13.0898C6.21945 13.5419 6.07694 14.0619 6.07694 14.6153L6.07693 26.1538C6.07693 27.8956 7.48896 29.3076 9.23078 29.3076H20H30.7692C32.5111 29.3076 33.9231 27.8956 33.9231 26.1538V14.6153ZM30.7692 13.1538C31.5764 13.1538 32.2308 13.8081 32.2308 14.6153L32.2308 26.1538C32.2308 26.961 31.5764 27.6153 30.7692 27.6153H20L9.23078 27.6153C8.4236 27.6153 7.76924 26.961 7.76924 26.1538L7.76924 14.6153C7.76924 13.8081 8.4236 13.1538 9.23078 13.1538L20.5812 13.1538L30.7692 13.1538Z" fill="white"/>
<path fill-rule="evenodd" clip-rule="evenodd" d="M7.69231 19.2308L0 12.3077L7.69231 5.38461L7.69231 7.69231L13.4615 7.69231C14.0988 7.69231 14.6154 8.2089 14.6154 8.84615L14.6154 15.7692C14.6154 16.4065 14.0988 16.9231 13.4615 16.9231H7.69231L7.69231 19.2308ZM18.0702 23.8462C17.7452 23.8462 17.4945 23.5954 17.4945 23.2797V19.8022H16.7253C16.4097 19.8022 16.1538 19.5464 16.1538 19.2308C16.1538 18.9152 16.4097 18.6593 16.7253 18.6593H17.4945V17.4988C17.4945 17.1738 17.7452 16.9231 18.0702 16.9231H20.0574C21.4037 16.9231 22.3001 17.5981 22.4898 18.6593H22.8791C23.1947 18.6593 23.4506 18.9152 23.4506 19.2308C23.4506 19.5464 23.1947 19.8022 22.8791 19.8022H22.4335C22.1289 20.8684 21.1183 21.5385 19.9274 21.5385H18.6366V23.2797C18.6366 23.5954 18.3859 23.8462 18.0702 23.8462ZM21.2839 18.6593C21.1005 18.2009 20.6238 17.9631 19.9645 17.9631H18.6366V18.6593H21.2839ZM18.6366 19.8022H21.1925C20.9682 20.2045 20.538 20.5077 19.9645 20.5077H18.6366V19.8022ZM40 27.6923L32.3077 20.7692V23.0769H26.5385C25.9012 23.0769 25.3846 23.5935 25.3846 24.2308V31.1538C25.3846 31.7911 25.9012 32.3077 26.5385 32.3077H32.3077V34.6154L40 27.6923Z" fill="white"/>
</svg>
