<svg width="71" height="70" viewBox="0 0 71 70" fill="none" xmlns="http://www.w3.org/2000/svg">
<rect x="0.5" width="70" height="70" rx="35" fill="white" fill-opacity="0.8"/>
<path opacity="0.4" fill-rule="evenodd" clip-rule="evenodd" d="M50.9814 25.3847C50.9814 23.7385 49.6468 22.4039 48.0006 22.4039L36.1416 22.4039L23.0006 22.4039C21.3544 22.4039 20.0198 23.7385 20.0198 25.3847V26.294H19.1535C17.5316 26.294 16.2168 27.6088 16.2168 29.2307L16.2168 43.6538C16.2168 45.8067 17.9621 47.552 20.115 47.552H34.5381L51.8458 47.552C52.4056 47.552 52.8594 47.0982 52.8594 46.5384C52.8594 45.9786 52.4056 45.5248 51.8458 45.5248L34.5381 45.5248H20.115C19.0817 45.5248 18.244 44.6871 18.244 43.6538L18.244 29.2307C18.244 28.7284 18.6512 28.3212 19.1535 28.3212H20.0198L20.0198 40.7693C20.0198 42.4155 21.3544 43.7501 23.0006 43.7501H35.5006H48.0006C49.6468 43.7501 50.9814 42.4155 50.9814 40.7693L50.9814 25.3847ZM48.0006 24.5193C48.4785 24.5193 48.866 24.9067 48.866 25.3847V40.7693C48.866 41.2472 48.4785 41.6347 48.0006 41.6347H35.5006H23.0006C22.5227 41.6347 22.1352 41.2472 22.1352 40.7693L22.1352 25.3847C22.1352 24.9067 22.5227 24.5193 23.0006 24.5193L36.1416 24.5193L48.0006 24.5193Z" fill="#005CE5"/>
<path fill-rule="evenodd" clip-rule="evenodd" d="M14.3467 23.4615L22.039 16.7308V18.6538H28.289C29.0856 18.6538 29.7313 19.2996 29.7313 20.0961V26.8269C29.7313 27.6235 29.0856 28.2692 28.289 28.2692H22.039V30.1923L14.3467 23.4615ZM33.9592 30.9415V29.9903H35.9063C36.5719 29.9903 37.1478 30.3783 37.4186 30.9415H33.9592ZM32.3246 30.9415H31.8526C31.4517 30.9415 31.1267 31.2665 31.1267 31.6674C31.1267 32.0684 31.4517 32.3934 31.8526 32.3934H32.3246V37.1438C32.3246 37.5952 32.6905 37.9611 33.1419 37.9611C33.5933 37.9611 33.9592 37.5952 33.9592 37.1438V34.883H35.9063C37.4343 34.883 38.7109 33.818 39.0397 32.3934H39.5315C39.9325 32.3934 40.2575 32.0684 40.2575 31.6674C40.2575 31.2665 39.9325 30.9415 39.5315 30.9415H39.0396C38.7101 29.5135 37.4309 28.4518 35.9063 28.4518H33.141C32.8761 28.4518 32.6424 28.5857 32.5041 28.7896C32.3918 28.9295 32.3246 29.1073 32.3246 29.3007V30.9415ZM37.4186 32.3934C37.1481 32.9557 36.5731 33.3445 35.9063 33.3445H33.9592V32.3934H37.4186ZM48.9615 39.8077L56.6538 46.5385L48.9615 53.2692V51.3461H42.7115C41.9149 51.3461 41.2692 50.7004 41.2692 49.9038V43.1731C41.2692 42.3765 41.9149 41.7308 42.7115 41.7308H48.9615V39.8077Z" fill="#005CE5"/>
</svg>
