<svg width="24" height="24" viewBox="0 0 24 24" fill="none" xmlns="http://www.w3.org/2000/svg">
<path fill-rule="evenodd" clip-rule="evenodd" d="M14.9986 4.9001C13.8388 4.9001 12.8986 5.8403 12.8986 7.0001C12.8986 8.1599 13.8388 9.1001 14.9986 9.1001C16.1584 9.1001 17.0986 8.1599 17.0986 7.0001C17.0986 5.8403 16.1584 4.9001 14.9986 4.9001ZM11.0986 7.0001C11.0986 4.84619 12.8447 3.1001 14.9986 3.1001C17.1525 3.1001 18.8986 4.84619 18.8986 7.0001C18.8986 9.15401 17.1525 10.9001 14.9986 10.9001C13.9382 10.9001 12.9766 10.4769 12.2736 9.79012L10.7009 10.7649C10.8304 11.1531 10.9006 11.5684 10.9006 12.0001C10.9006 12.4369 10.8288 12.8568 10.6963 13.2489L12.2583 14.2251C12.9626 13.5295 13.9305 13.1001 14.9986 13.1001C17.1525 13.1001 18.8986 14.8462 18.8986 17.0001C18.8986 19.154 17.1525 20.9001 14.9986 20.9001C12.8447 20.9001 11.0986 19.154 11.0986 17.0001C11.0986 16.5631 11.1705 16.143 11.303 15.7507L9.74133 14.7747C9.03695 15.4705 8.06893 15.9001 7.00057 15.9001C4.84666 15.9001 3.10057 14.154 3.10057 12.0001C3.10057 9.84619 4.84666 8.1001 7.00057 8.1001C8.0741 8.1001 9.04632 8.53385 9.75155 9.23566L11.3099 8.26969C11.173 7.8717 11.0986 7.44458 11.0986 7.0001ZM7.00057 9.9001C5.84077 9.9001 4.90057 10.8403 4.90057 12.0001C4.90057 13.1599 5.84077 14.1001 7.00057 14.1001C8.16037 14.1001 9.10057 13.1599 9.10057 12.0001C9.10057 10.8403 8.16037 9.9001 7.00057 9.9001ZM12.8986 17.0001C12.8986 15.8403 13.8388 14.9001 14.9986 14.9001C16.1584 14.9001 17.0986 15.8403 17.0986 17.0001C17.0986 18.1599 16.1584 19.1001 14.9986 19.1001C13.8388 19.1001 12.8986 18.1599 12.8986 17.0001Z" fill="white"/>
</svg>
