<svg width="90" height="90" viewBox="0 0 90 90" fill="none" xmlns="http://www.w3.org/2000/svg">
<path d="M90 40.9769H60.269L86.0465 26.0966L81.9603 19.0174L56.2134 33.8807L71.0942 8.10412L64.0148 4.01801L49.151 29.7639V0H40.9784V29.7299L26.0942 3.95331L19.0148 8.03942L33.8785 33.7853L8.10443 18.9051L4.01816 25.9843L29.765 40.8475H0V49.0197H29.731L3.95346 63.9034L8.03973 70.9826L33.7866 56.1193L18.9058 81.8959L25.9852 85.982L40.849 60.2361V90H49.0216V60.2701L63.9024 86.0467L70.9818 81.9606L56.118 56.2147L81.8956 71.0949L85.9818 64.0157L60.235 49.1525H90V40.9803V40.9769ZM45 58.462C43.3689 47.9539 42.0443 46.6293 31.5358 44.9983C42.0443 43.3673 43.3689 42.0427 45 31.5346C46.6311 42.0427 47.9557 43.3673 58.4642 44.9983C47.9557 46.6293 46.6311 47.9539 45 58.462Z" fill="url(#paint0_linear_1230_5774)"/>
<defs>
<linearGradient id="paint0_linear_1230_5774" x1="0" y1="0" x2="41.7551" y2="108.557" gradientUnits="userSpaceOnUse">
<stop stop-color="#7AD5F1"/>
<stop offset="1" stop-color="#92B35B"/>
</linearGradient>
</defs>
</svg>
