<svg width="181" height="54" viewBox="0 0 181 54" fill="none" xmlns="http://www.w3.org/2000/svg">
<path d="M5.544 43.528V9.704C5.544 8.73333 5.86133 7.912 6.496 7.24C7.168 6.568 7.98933 6.232 8.96 6.232H23.744C28.4107 6.232 31.9387 7.42666 34.328 9.816C36.1573 11.6453 37.072 13.904 37.072 16.592V16.704C37.072 20.7733 35.112 23.816 31.192 25.832C33.8053 26.728 35.8213 27.96 37.24 29.528C38.6587 31.0587 39.368 33.1307 39.368 35.744V35.856C39.368 39.4027 38.0053 42.1467 35.28 44.088C32.592 46.0293 28.9333 47 24.304 47H8.96C7.98933 47 7.168 46.664 6.496 45.992C5.86133 45.32 5.544 44.4987 5.544 43.528ZM12.264 23.536H22.344C24.7707 23.536 26.6933 23.0507 28.112 22.08C29.5307 21.072 30.24 19.6347 30.24 17.768V17.656C30.24 15.976 29.5867 14.6693 28.28 13.736C27.0107 12.8027 25.2 12.336 22.848 12.336H12.264V23.536ZM12.264 40.896H24.36C26.8987 40.896 28.8773 40.4107 30.296 39.44C31.752 38.432 32.48 36.9947 32.48 35.128V35.016C32.48 33.224 31.752 31.8427 30.296 30.872C28.84 29.864 26.6933 29.36 23.856 29.36H12.264V40.896Z" fill="white"/>
<path d="M6.496 7.24L5.80695 6.55095L5.79711 6.56079L5.78756 6.57091L6.496 7.24ZM31.192 25.832L30.7463 24.9654L28.7118 26.0118L30.876 26.7538L31.192 25.832ZM37.24 29.528L36.5174 30.1818L36.5253 30.1904L37.24 29.528ZM35.28 44.088L34.7146 43.2943L34.7095 43.298L35.28 44.088ZM6.496 45.992L5.78756 46.6611L5.79711 46.6712L5.80695 46.681L6.496 45.992ZM12.264 23.536H11.2895V24.5105H12.264V23.536ZM28.112 22.08L28.6623 22.8842L28.6694 22.8794L28.6764 22.8744L28.112 22.08ZM28.28 13.736L27.7027 14.5211L27.7136 14.5289L28.28 13.736ZM12.264 12.336V11.3615H11.2895V12.336H12.264ZM12.264 40.896H11.2895V41.8705H12.264V40.896ZM30.296 39.44L30.8463 40.2442L30.8507 40.2412L30.296 39.44ZM30.296 30.872L29.7413 31.6732L29.7484 31.6781L29.7555 31.6828L30.296 30.872ZM12.264 29.36V28.3855H11.2895V29.36H12.264ZM6.51846 43.528V9.704H4.56954V43.528H6.51846ZM6.51846 9.704C6.51846 8.96838 6.74984 8.39043 7.20445 7.90908L5.78756 6.57091C4.97283 7.43356 4.56954 8.49828 4.56954 9.704H6.51846ZM7.18505 7.92904C7.66997 7.44412 8.24158 7.20646 8.96 7.20646V5.25754C7.73708 5.25754 6.66603 5.69187 5.80695 6.55095L7.18505 7.92904ZM8.96 7.20646H23.744V5.25754H8.96V7.20646ZM23.744 7.20646C28.2527 7.20646 31.4929 8.35898 33.639 10.505L35.017 9.12695C32.3844 6.49435 28.5687 5.25754 23.744 5.25754V7.20646ZM33.639 10.505C35.2777 12.1438 36.0975 14.1512 36.0975 16.592H38.0465C38.0465 13.6568 37.0369 11.1468 35.017 9.12695L33.639 10.505ZM36.0975 16.592V16.704H38.0465V16.592H36.0975ZM36.0975 16.704C36.0975 18.5755 35.6492 20.1653 34.7828 21.5103C33.9136 22.8596 32.5873 24.0187 30.7463 24.9654L31.6377 26.6986C33.7167 25.6293 35.3304 24.2591 36.4212 22.5657C37.5148 20.868 38.0465 18.9018 38.0465 16.704H36.0975ZM30.876 26.7538C33.3797 27.6122 35.2382 28.7679 36.5174 30.1818L37.9626 28.8742C36.4045 27.1521 34.231 25.8438 31.508 24.9102L30.876 26.7538ZM36.5253 30.1904C37.7377 31.4985 38.3935 33.3117 38.3935 35.744H40.3425C40.3425 32.9497 39.5796 30.6188 37.9547 28.8656L36.5253 30.1904ZM38.3935 35.744V35.856H40.3425V35.744H38.3935ZM38.3935 35.856C38.3935 39.1098 37.1657 41.5484 34.7146 43.2943L35.8454 44.8817C38.845 42.745 40.3425 39.6956 40.3425 35.856H38.3935ZM34.7095 43.298C32.2417 45.0803 28.8074 46.0255 24.304 46.0255V47.9745C29.0593 47.9745 32.9423 46.9784 35.8505 44.878L34.7095 43.298ZM24.304 46.0255H8.96V47.9745H24.304V46.0255ZM8.96 46.0255C8.24158 46.0255 7.66997 45.7879 7.18505 45.303L5.80695 46.681C6.66603 47.5401 7.73708 47.9745 8.96 47.9745V46.0255ZM7.20444 45.3229C6.74984 44.8416 6.51846 44.2636 6.51846 43.528H4.56954C4.56954 44.7337 4.97283 45.7984 5.78756 46.6611L7.20444 45.3229ZM12.264 24.5105H22.344V22.5615H12.264V24.5105ZM22.344 24.5105C24.8892 24.5105 27.0274 24.0028 28.6623 22.8842L27.5617 21.2758C26.3593 22.0985 24.6521 22.5615 22.344 22.5615V24.5105ZM28.6764 22.8744C30.3735 21.6685 31.2145 19.9233 31.2145 17.768H29.2655C29.2655 19.346 28.6878 20.4755 27.5476 21.2856L28.6764 22.8744ZM31.2145 17.768V17.656H29.2655V17.768H31.2145ZM31.2145 17.656C31.2145 15.6785 30.4228 14.0691 28.8464 12.943L27.7136 14.5289C28.7505 15.2696 29.2655 16.2735 29.2655 17.656H31.2145ZM28.8573 12.9509C27.3563 11.8473 25.3104 11.3615 22.848 11.3615V13.3105C25.0896 13.3105 26.665 13.758 27.7027 14.5211L28.8573 12.9509ZM22.848 11.3615H12.264V13.3105H22.848V11.3615ZM11.2895 12.336V23.536H13.2385V12.336H11.2895ZM12.264 41.8705H24.36V39.9215H12.264V41.8705ZM24.36 41.8705C27.0064 41.8705 29.2052 41.3671 30.8463 40.2442L29.7457 38.6358C28.5495 39.4543 26.7909 39.9215 24.36 39.9215V41.8705ZM30.8507 40.2412C32.586 39.0398 33.4545 37.2939 33.4545 35.128H31.5055C31.5055 36.6954 30.918 37.8242 29.7413 38.6388L30.8507 40.2412ZM33.4545 35.128V35.016H31.5055V35.128H33.4545ZM33.4545 35.016C33.4545 32.9076 32.5714 31.2178 30.8365 30.0612L29.7555 31.6828C30.9326 32.4676 31.5055 33.5404 31.5055 35.016H33.4545ZM30.8507 30.0708C29.1603 28.9006 26.7821 28.3855 23.856 28.3855V30.3345C26.6046 30.3345 28.5197 30.8274 29.7413 31.6732L30.8507 30.0708ZM23.856 28.3855H12.264V30.3345H23.856V28.3855ZM11.2895 29.36V40.896H13.2385V29.36H11.2895Z" fill="white"/>
<path d="M80.7062 44.1138L48.6269 26.9551L80.7062 9.79639L80.7062 44.1138Z" stroke="white" stroke-width="7"/>
<path d="M115.416 47.672C109.517 47.672 104.589 45.656 100.632 41.624C96.6747 37.592 94.696 32.6267 94.696 26.728V26.616C94.696 20.7547 96.6747 15.7893 100.632 11.72C104.627 7.61333 109.648 5.56 115.696 5.56C121.109 5.56 125.795 7.10933 129.752 10.208C130.648 10.88 131.096 11.7947 131.096 12.952C131.096 13.8853 130.76 14.688 130.088 15.36C129.416 15.9947 128.613 16.312 127.68 16.312C126.933 16.312 126.224 16.088 125.552 15.64C122.491 13.1387 119.187 11.888 115.64 11.888C111.72 11.888 108.453 13.3067 105.84 16.144C103.227 18.944 101.92 22.3973 101.92 26.504V26.616C101.92 30.76 103.227 34.2507 105.84 37.088C108.453 39.9253 111.72 41.344 115.64 41.344C119.411 41.344 122.883 40 126.056 37.312C126.691 36.752 127.381 36.472 128.128 36.472C128.987 36.472 129.733 36.7893 130.368 37.424C131.04 38.0587 131.376 38.824 131.376 39.72C131.376 40.6533 131.003 41.456 130.256 42.128C126.149 45.824 121.203 47.672 115.416 47.672Z" fill="white"/>
<path d="M100.632 41.624L99.9365 42.3066L99.9365 42.3066L100.632 41.624ZM100.632 11.72L99.9335 11.0405L99.9334 11.0406L100.632 11.72ZM129.752 10.208L129.151 10.9752L129.159 10.9815L129.167 10.9876L129.752 10.208ZM130.088 15.36L130.757 16.0684L130.767 16.0589L130.777 16.049L130.088 15.36ZM125.552 15.64L124.935 16.3946L124.972 16.4245L125.011 16.4508L125.552 15.64ZM105.84 16.144L106.552 16.8089L106.557 16.8042L105.84 16.144ZM105.84 37.088L105.123 37.7482L105.123 37.7482L105.84 37.088ZM126.056 37.312L126.686 38.0556L126.693 38.0492L126.701 38.0427L126.056 37.312ZM130.368 37.424L129.679 38.113L129.689 38.1229L129.699 38.1324L130.368 37.424ZM130.256 42.128L130.908 42.8523L130.908 42.8523L130.256 42.128ZM115.416 46.6975C109.766 46.6975 105.093 44.7777 101.327 40.9414L99.9365 42.3066C104.086 46.5343 109.269 48.6465 115.416 48.6465V46.6975ZM101.327 40.9414C97.5575 37.1004 95.6705 32.3839 95.6705 26.728H93.7215C93.7215 32.8694 95.7918 38.0836 99.9365 42.3066L101.327 40.9414ZM95.6705 26.728V26.616H93.7215V26.728H95.6705ZM95.6705 26.616C95.6705 20.9992 97.5565 16.2803 101.331 12.3994L99.9334 11.0406C95.7929 15.2984 93.7215 20.5101 93.7215 26.616H95.6705ZM101.331 12.3995C105.131 8.4928 109.895 6.53446 115.696 6.53446V4.58554C109.401 4.58554 104.123 6.73387 99.9335 11.0405L101.331 12.3995ZM115.696 6.53446C120.909 6.53446 125.379 8.02147 129.151 10.9752L130.353 9.44076C126.21 6.19719 121.309 4.58554 115.696 4.58554V6.53446ZM129.167 10.9876C129.809 11.4684 130.122 12.0894 130.122 12.952H132.07C132.07 11.4999 131.487 10.2915 130.337 9.42843L129.167 10.9876ZM130.122 12.952C130.122 13.6217 129.892 14.178 129.399 14.671L130.777 16.049C131.628 15.198 132.07 14.149 132.07 12.952H130.122ZM129.419 14.6516C128.93 15.1135 128.367 15.3375 127.68 15.3375V17.2865C128.859 17.2865 129.902 16.8758 130.757 16.0684L129.419 14.6516ZM127.68 15.3375C127.142 15.3375 126.618 15.1796 126.093 14.8292L125.011 16.4508C125.83 16.9964 126.725 17.2865 127.68 17.2865V15.3375ZM126.169 14.8854C122.954 12.2592 119.437 10.9135 115.64 10.9135V12.8625C118.936 12.8625 122.027 14.0181 124.935 16.3946L126.169 14.8854ZM115.64 10.9135C111.453 10.9135 107.924 12.4425 105.123 15.4838L106.557 16.8042C108.982 14.1708 111.987 12.8625 115.64 12.8625V10.9135ZM105.128 15.4791C102.333 18.4733 100.946 22.17 100.946 26.504H102.894C102.894 22.6246 104.12 19.4147 106.552 16.8089L105.128 15.4791ZM100.946 26.504V26.616H102.894V26.504H100.946ZM100.946 26.616C100.946 30.9848 102.331 34.7168 105.123 37.7482L106.557 36.4278C104.122 33.7845 102.894 30.5352 102.894 26.616H100.946ZM105.123 37.7482C107.924 40.7895 111.453 42.3185 115.64 42.3185V40.3695C111.987 40.3695 108.982 39.0612 106.557 36.4278L105.123 37.7482ZM115.64 42.3185C119.666 42.3185 123.356 40.8762 126.686 38.0556L125.426 36.5684C122.409 39.1238 119.156 40.3695 115.64 40.3695V42.3185ZM126.701 38.0427C127.183 37.6173 127.651 37.4465 128.128 37.4465V35.4975C127.112 35.4975 126.199 35.8867 125.411 36.5813L126.701 38.0427ZM128.128 37.4465C128.715 37.4465 129.218 37.6519 129.679 38.113L131.057 36.735C130.249 35.9268 129.258 35.4975 128.128 35.4975V37.4465ZM129.699 38.1324C130.183 38.5896 130.402 39.1015 130.402 39.72H132.35C132.35 38.5465 131.897 37.5277 131.037 36.7156L129.699 38.1324ZM130.402 39.72C130.402 40.3542 130.163 40.9006 129.604 41.4037L130.908 42.8523C131.842 42.0114 132.35 40.9524 132.35 39.72H130.402ZM129.604 41.4037C125.685 44.9305 120.974 46.6975 115.416 46.6975V48.6465C121.431 48.6465 126.613 46.7175 130.908 42.8523L129.604 41.4037Z" fill="white"/>
<path d="M144.544 43.864V9.368C144.544 8.39733 144.88 7.576 145.552 6.904C146.224 6.232 147.027 5.896 147.96 5.896C148.931 5.896 149.752 6.232 150.424 6.904C151.096 7.576 151.432 8.39733 151.432 9.368V27.176L171.2 7.24C172.021 6.344 172.955 5.896 174 5.896C174.933 5.896 175.699 6.232 176.296 6.904C176.893 7.53866 177.192 8.28533 177.192 9.144C177.192 10.0773 176.8 10.936 176.016 11.72L163.08 24.152L177.024 41.512C177.659 42.2587 177.976 43.0613 177.976 43.92C177.976 44.8907 177.64 45.712 176.968 46.384C176.296 47.0187 175.475 47.336 174.504 47.336C173.421 47.336 172.469 46.7947 171.648 45.712L158.264 28.688L151.432 35.408V43.864C151.432 44.8347 151.096 45.656 150.424 46.328C149.752 47 148.931 47.336 147.96 47.336C147.027 47.336 146.224 47 145.552 46.328C144.88 45.656 144.544 44.8347 144.544 43.864Z" fill="white"/>
<path d="M145.552 6.904L144.863 6.21495L145.552 6.904ZM151.432 27.176H150.458V29.5427L152.124 27.8621L151.432 27.176ZM171.2 7.24L171.892 7.92612L171.905 7.91255L171.918 7.89846L171.2 7.24ZM176.296 6.904L175.568 7.55139L175.577 7.56176L175.586 7.57186L176.296 6.904ZM176.016 11.72L176.691 12.4226L176.698 12.4159L176.705 12.409L176.016 11.72ZM163.08 24.152L162.405 23.4494L161.762 24.0672L162.32 24.7622L163.08 24.152ZM177.024 41.512L176.264 42.1222L176.273 42.1328L176.282 42.1431L177.024 41.512ZM176.968 46.384L177.637 47.0924L177.647 47.0829L177.657 47.073L176.968 46.384ZM171.648 45.712L172.424 45.123L172.419 45.1163L172.414 45.1097L171.648 45.712ZM158.264 28.688L159.03 28.0857L158.357 27.2297L157.581 27.9933L158.264 28.688ZM151.432 35.408L150.749 34.7133L150.458 34.9996V35.408H151.432ZM150.424 46.328L151.113 47.017L151.113 47.017L150.424 46.328ZM145.552 46.328L144.863 47.017L144.863 47.017L145.552 46.328ZM145.518 43.864V9.368H143.57V43.864H145.518ZM145.518 9.368C145.518 8.64958 145.756 8.07797 146.241 7.59305L144.863 6.21495C144.004 7.07403 143.57 8.14508 143.57 9.368H145.518ZM146.241 7.59305C146.734 7.10005 147.29 6.87046 147.96 6.87046V4.92154C146.763 4.92154 145.714 5.36394 144.863 6.21495L146.241 7.59305ZM147.96 6.87046C148.678 6.87046 149.25 7.10812 149.735 7.59305L151.113 6.21495C150.254 5.35587 149.183 4.92154 147.96 4.92154V6.87046ZM149.735 7.59305C150.22 8.07797 150.458 8.64958 150.458 9.368H152.406C152.406 8.14508 151.972 7.07403 151.113 6.21495L149.735 7.59305ZM150.458 9.368V27.176H152.406V9.368H150.458ZM152.124 27.8621L171.892 7.92612L170.508 6.55387L150.74 26.4899L152.124 27.8621ZM171.918 7.89846C172.588 7.16789 173.273 6.87046 174 6.87046V4.92154C172.636 4.92154 171.455 5.52011 170.482 6.58153L171.918 7.89846ZM174 6.87046C174.667 6.87046 175.163 7.09628 175.568 7.55139L177.024 6.2566C176.234 5.36772 175.2 4.92154 174 4.92154V6.87046ZM175.586 7.57186C176.016 8.02878 176.218 8.53767 176.218 9.144H178.166C178.166 8.03299 177.77 7.04854 177.006 6.23614L175.586 7.57186ZM176.218 9.144C176.218 9.77103 175.965 10.3928 175.327 11.0309L176.705 12.409C177.635 11.4792 178.166 10.3836 178.166 9.144H176.218ZM175.341 11.0174L162.405 23.4494L163.755 24.8546L176.691 12.4226L175.341 11.0174ZM162.32 24.7622L176.264 42.1222L177.784 40.9018L163.84 23.5418L162.32 24.7622ZM176.282 42.1431C176.789 42.74 177.002 43.325 177.002 43.92H178.95C178.95 42.7977 178.528 41.7773 177.766 40.8809L176.282 42.1431ZM177.002 43.92C177.002 44.6384 176.764 45.21 176.279 45.695L177.657 47.073C178.516 46.214 178.95 45.1429 178.95 43.92H177.002ZM176.299 45.6756C175.818 46.1302 175.24 46.3615 174.504 46.3615V48.3105C175.71 48.3105 176.774 47.9072 177.637 47.0924L176.299 45.6756ZM174.504 46.3615C173.803 46.3615 173.113 46.0314 172.424 45.123L170.872 46.301C171.825 47.558 173.04 48.3105 174.504 48.3105V46.3615ZM172.414 45.1097L159.03 28.0857L157.498 29.2903L170.882 46.3143L172.414 45.1097ZM157.581 27.9933L150.749 34.7133L152.115 36.1027L158.947 29.3827L157.581 27.9933ZM150.458 35.408V43.864H152.406V35.408H150.458ZM150.458 43.864C150.458 44.5824 150.22 45.154 149.735 45.639L151.113 47.017C151.972 46.158 152.406 45.0869 152.406 43.864H150.458ZM149.735 45.639C149.25 46.1239 148.678 46.3615 147.96 46.3615V48.3105C149.183 48.3105 150.254 47.8761 151.113 47.017L149.735 45.639ZM147.96 46.3615C147.29 46.3615 146.734 46.1319 146.241 45.639L144.863 47.017C145.714 47.8681 146.763 48.3105 147.96 48.3105V46.3615ZM146.241 45.639C145.756 45.154 145.518 44.5824 145.518 43.864H143.57C143.57 45.0869 144.004 46.158 144.863 47.017L146.241 45.639Z" fill="white"/>
</svg>
