<svg width="219" height="54" viewBox="0 0 219 54" fill="none" xmlns="http://www.w3.org/2000/svg">
<path d="M5.544 43.864V9.704C5.544 8.73333 5.86133 7.912 6.496 7.24C7.168 6.568 7.98933 6.232 8.96 6.232H32.928C33.7867 6.232 34.5147 6.54933 35.112 7.184C35.7467 7.78133 36.064 8.50933 36.064 9.368C36.064 10.2267 35.7467 10.9733 35.112 11.608C34.5147 12.2053 33.7867 12.504 32.928 12.504H12.432V23.984H30.296C31.1547 23.984 31.8827 24.3013 32.48 24.936C33.1147 25.5333 33.432 26.2613 33.432 27.12C33.432 27.9787 33.1147 28.7253 32.48 29.36C31.8827 29.9573 31.1547 30.256 30.296 30.256H12.432V43.864C12.432 44.8347 12.096 45.656 11.424 46.328C10.752 47 9.93067 47.336 8.96 47.336C8.02667 47.336 7.224 47 6.552 46.328C5.88 45.656 5.544 44.8347 5.544 43.864Z" fill="white"/>
<path d="M48.544 43.528V9.368C48.544 8.39733 48.88 7.576 49.552 6.904C50.224 6.232 51.0267 5.896 51.96 5.896C52.9307 5.896 53.752 6.232 54.424 6.904C55.096 7.576 55.432 8.39733 55.432 9.368V40.728H74.192C75.0507 40.728 75.7787 41.0453 76.376 41.68C77.0107 42.2773 77.328 43.0053 77.328 43.864C77.328 44.7227 77.0107 45.4693 76.376 46.104C75.7787 46.7013 75.0507 47 74.192 47H51.96C50.9893 47 50.168 46.664 49.496 45.992C48.8613 45.32 48.544 44.4987 48.544 43.528Z" fill="white"/>
<path d="M89.7196 43.6191L107 9.80957L124.28 43.6191H89.7196Z" stroke="white" stroke-width="7"/>
<path d="M151.768 47.56C146.093 47.56 140.979 45.8427 136.424 42.408C135.528 41.7733 135.08 40.896 135.08 39.776C135.08 38.88 135.397 38.1333 136.032 37.536C136.667 36.9013 137.451 36.584 138.384 36.584C139.093 36.584 139.747 36.808 140.344 37.256C143.891 40.056 147.755 41.456 151.936 41.456C154.213 41.456 156.024 40.9707 157.368 40C158.712 39.0293 159.384 37.7413 159.384 36.136V36.024C159.384 34.456 158.749 33.224 157.48 32.328C156.211 31.3947 153.728 30.4987 150.032 29.64C145.291 28.52 141.837 27.1013 139.672 25.384C137.507 23.6293 136.424 20.9973 136.424 17.488V17.376C136.424 13.9413 137.712 11.1413 140.288 8.976C142.901 6.77333 146.224 5.672 150.256 5.672C155.184 5.672 159.515 6.94133 163.248 9.48C164.256 10.1147 164.76 11.0293 164.76 12.224C164.76 13.12 164.443 13.8853 163.808 14.52C163.173 15.1173 162.408 15.416 161.512 15.416C160.803 15.416 160.187 15.2293 159.664 14.856C156.491 12.8027 153.317 11.776 150.144 11.776C148.053 11.776 146.373 12.2427 145.104 13.176C143.872 14.1093 143.256 15.304 143.256 16.76V16.872C143.256 18.5147 143.928 19.8027 145.272 20.736C146.616 21.6693 149.248 22.584 153.168 23.48C157.685 24.5627 160.989 26.0187 163.08 27.848C165.171 29.64 166.216 32.1413 166.216 35.352V35.464C166.216 39.1973 164.872 42.1467 162.184 44.312C159.533 46.4773 156.061 47.56 151.768 47.56Z" fill="white"/>
<path d="M179.544 43.864V9.368C179.544 8.39733 179.88 7.576 180.552 6.904C181.224 6.232 182.027 5.896 182.96 5.896C183.931 5.896 184.752 6.232 185.424 6.904C186.096 7.576 186.432 8.39733 186.432 9.368V23.312H206.312V9.368C206.312 8.39733 206.648 7.576 207.32 6.904C207.992 6.232 208.795 5.896 209.728 5.896C210.699 5.896 211.52 6.232 212.192 6.904C212.864 7.576 213.2 8.39733 213.2 9.368V43.864C213.2 44.8347 212.864 45.656 212.192 46.328C211.52 47 210.699 47.336 209.728 47.336C208.795 47.336 207.992 47 207.32 46.328C206.648 45.656 206.312 44.8347 206.312 43.864V29.696H186.432V43.864C186.432 44.8347 186.096 45.656 185.424 46.328C184.752 47 183.931 47.336 182.96 47.336C182.027 47.336 181.224 47 180.552 46.328C179.88 45.656 179.544 44.8347 179.544 43.864Z" fill="white"/>
</svg>
