<svg width="40" height="40" viewBox="0 0 40 40" fill="none" xmlns="http://www.w3.org/2000/svg">
<g id="A Rewards">
<path id="shape_half" opacity="0.4" fill-rule="evenodd" clip-rule="evenodd" d="M29.7897 3.25847C29.6138 2.71707 28.8479 2.71707 28.672 3.25847C28.5933 3.50059 28.3677 3.66452 28.1131 3.66452C27.5438 3.66452 27.3071 4.39296 27.7677 4.72757C27.9736 4.87721 28.0598 5.14245 27.9812 5.38457C27.8053 5.92597 28.4249 6.37617 28.8854 6.04157C29.0914 5.89193 29.3703 5.89193 29.5763 6.04157C30.0368 6.37617 30.6565 5.92597 30.4805 5.38457C30.4019 5.14245 30.4881 4.87721 30.694 4.72757C31.1546 4.39296 30.9179 3.66452 30.3486 3.66452C30.094 3.66452 29.8684 3.50059 29.7897 3.25847ZM24.0568 7.10435C24.2327 6.56295 24.9987 6.56295 25.1746 7.10435C25.2533 7.34647 25.4789 7.5104 25.7335 7.5104C26.3027 7.5104 26.5394 8.23884 26.0789 8.57345C25.8729 8.72309 25.7867 8.98833 25.8654 9.23045C26.0413 9.77185 25.4217 10.2221 24.9611 9.88745C24.7552 9.73781 24.4763 9.73781 24.2703 9.88745C23.8098 10.2221 23.1901 9.77185 23.366 9.23045C23.4447 8.98833 23.3585 8.72309 23.1525 8.57345C22.692 8.23884 22.9287 7.5104 23.4979 7.5104C23.7525 7.5104 23.9782 7.34647 24.0568 7.10435ZM32.0975 9.41214C31.9216 8.87074 31.1557 8.87074 30.9798 9.41214C30.9011 9.65426 30.6755 9.81819 30.4209 9.81819C29.8516 9.81819 29.6149 10.5466 30.0755 10.8812C30.2814 11.0309 30.3676 11.2961 30.289 11.5382C30.113 12.0796 30.7327 12.5298 31.1932 12.1952C31.3992 12.0456 31.6781 12.0456 31.8841 12.1952C32.3446 12.5298 32.9642 12.0796 32.7883 11.5382C32.7097 11.2961 32.7959 11.0309 33.0018 10.8812C33.4624 10.5466 33.2257 9.81819 32.6564 9.81819C32.4018 9.81819 32.1762 9.65426 32.0975 9.41214ZM10.4509 20.0007C10.9361 19.6056 11.1436 18.933 10.9193 18.3111L10.9152 18.2999L9.37669 14.035C9.09271 13.2478 8.22435 12.8399 7.43715 13.1239C6.64994 13.4078 6.24199 14.2762 6.52597 15.0634L7.55432 17.9141L4.70365 18.9425C3.91644 19.2264 3.50849 20.0948 3.79247 20.882C4.07644 21.6692 4.9448 22.0771 5.73201 21.7932L10.0013 20.2531L10.008 20.2507C10.1733 20.191 10.3219 20.1056 10.4509 20.0007ZM23.0773 30.9933V15.6087H26.1542V30.9933H23.0773Z" fill="#025AE9"/>
<path id="shape_full" fill-rule="evenodd" clip-rule="evenodd" d="M5.30672 31.4216C3.73021 30.681 3.05259 28.8025 3.79322 27.226L6.47068 21.5268L8.72196 20.7147L5.32492 27.9456C4.9817 28.6762 5.29572 29.5467 6.0263 29.8899L8.04536 30.8384L17.7924 10.0908L15.7733 9.14231C15.0428 8.79909 14.1723 9.11311 13.8291 9.84369L10.4554 17.0248L9.64332 14.7735L12.2974 9.12411C13.038 7.54759 14.9164 6.86997 16.4929 7.6106L18.5816 8.59185C19.3891 8.9712 19.7362 9.93332 19.3568 10.7408L17.8285 13.9939H23.8463H36.154C36.6213 13.9939 37.0001 14.3728 37.0001 14.8401V29.4555C37.0001 31.1973 35.5881 32.6093 33.8463 32.6093H13.8463C12.1045 32.6093 10.6924 31.1973 10.6924 29.4555V29.1838L9.54436 31.6276C9.16501 32.4351 8.20289 32.7822 7.3954 32.4028L5.30672 31.4216ZM12.3717 25.6093L17.0335 15.6862H21.5386V30.917H13.8463C13.0391 30.917 12.3847 30.2626 12.3847 29.4555V25.6093H12.3717ZM23.077 30.917H26.1537V15.6862H23.8463H23.077V30.917ZM33.8463 30.917H27.6922V15.6862H35.3078V29.4555C35.3078 30.2626 34.6535 30.917 33.8463 30.917Z" fill="#025AE9"/>
</g>
</svg>
