<svg width="40" height="40" viewBox="0 0 40 40" fill="none" xmlns="http://www.w3.org/2000/svg">
<g id="Auto Deposit">
<path id="shape_full" fill-rule="evenodd" clip-rule="evenodd" d="M18.0771 7.76921C12.3844 7.76921 7.76946 12.3841 7.76946 18.0769C7.76946 23.7697 12.3844 28.3846 18.0771 28.3846C18.9363 28.3846 19.7697 28.2797 20.5659 28.0823C20.8061 28.0228 21.0431 27.9548 21.2763 27.8787C21.7206 27.7338 22.1982 27.9765 22.3431 28.4208C22.488 28.8651 22.2453 29.3427 21.8011 29.4876C21.5292 29.5763 21.253 29.6555 20.973 29.7249C20.0447 29.955 19.0746 30.0769 18.0771 30.0769C11.4497 30.0769 6.07715 24.7043 6.07715 18.0769C6.07715 11.4495 11.4497 6.0769 18.0771 6.0769C24.4158 6.0769 29.6066 10.9916 30.0469 17.2182L30.9404 16.3247C31.2708 15.9943 31.8066 15.9943 32.137 16.3247C32.4675 16.6552 32.4675 17.1909 32.137 17.5214L29.8293 19.8291C29.4989 20.1595 28.9631 20.1595 28.6327 19.8291L26.325 17.5214C25.9945 17.1909 25.9945 16.6552 26.325 16.3247C26.6554 15.9943 27.1912 15.9943 27.5216 16.3247L28.3434 17.1465C27.8731 11.8897 23.4563 7.76921 18.0771 7.76921ZM25.0772 21.5385C24.2275 21.5385 23.5387 22.2273 23.5387 23.077V23.2342C23.5387 24.3878 24.0565 25.4804 24.9493 26.2109L26.9301 27.8316L25.0228 29.315C24.0859 30.0437 23.538 31.1641 23.538 32.351C23.538 33.1768 24.2074 33.8462 25.0332 33.8462H31.2456C32.0872 33.8462 32.7695 33.164 32.7695 32.3224C32.7695 31.1535 32.2298 30.0502 31.3072 29.3326L29.3773 27.8316L31.3581 26.2109C32.2509 25.4804 32.7687 24.3878 32.7687 23.2342V23.077C32.7687 22.2273 32.0799 21.5385 31.2303 21.5385H25.0772ZM25.9235 25.0202L28.1537 26.8449L30.3839 25.0202C30.9196 24.5819 31.2303 23.9263 31.2303 23.2342V23.077H25.0772V23.2342C25.0772 23.9263 25.3879 24.5819 25.9235 25.0202ZM25.9673 30.5294L28.1537 28.8289L30.3627 30.547C30.9067 30.9701 31.2265 31.6191 31.231 32.3078H25.0768C25.0898 31.6117 25.4166 30.9578 25.9673 30.5294ZM16.5233 15.4871L16.5233 16.3751H19.8231C19.5702 15.8493 19.0325 15.4871 18.4111 15.4871H16.5233ZM14.6253 16.3751H15.0156L15.0156 14.8149C15.0156 14.5675 15.1347 14.3479 15.3187 14.2105C15.4421 14.1105 15.5994 14.0506 15.7706 14.0506H18.4111C19.8346 14.0506 21.029 15.0419 21.3366 16.3751H21.7953C22.1697 16.3751 22.4732 16.6786 22.4732 17.053C22.4732 17.4274 22.1697 17.7309 21.7953 17.7309H21.3368C21.0298 19.0611 19.8378 20.0555 18.4111 20.0555H16.5235L16.5236 22.0372C16.5237 22.4536 16.1862 22.7911 15.7698 22.7911C15.3535 22.7911 15.016 22.4537 15.0159 22.0373L15.0157 17.7309H14.6253C14.2509 17.7309 13.9474 17.4274 13.9474 17.053C13.9474 16.6786 14.2509 16.3751 14.6253 16.3751ZM18.4111 18.619C19.0337 18.619 19.5706 18.2559 19.8231 17.7309H16.5234L16.5235 18.619H18.4111Z" fill="#025AE9"/>
<path id="shape_half" opacity="0.4" fill-rule="evenodd" clip-rule="evenodd" d="M24.6924 24.6924L28.1536 27.7693L31.6155 24.6924H24.6924ZM25.5866 31.1721L27.4222 30.3083C27.8371 30.113 28.3175 30.113 28.7324 30.3083L30.568 31.1721C31.5345 31.6269 31.2104 33.0769 30.1422 33.0769H26.0124C24.9442 33.0769 24.62 31.6269 25.5866 31.1721Z" fill="#025AE9"/>
</g>
</svg>
