<svg width="40" height="40" viewBox="0 0 40 40" fill="none" xmlns="http://www.w3.org/2000/svg">
<g id="Scheduled Load">
<path id="shape_full" fill-rule="evenodd" clip-rule="evenodd" d="M13.0943 6.15381C13.5191 6.15381 13.8635 6.4982 13.8635 6.92304V7.62015H22.7384V6.92304C22.7384 6.4982 23.0828 6.15381 23.5076 6.15381C23.9325 6.15381 24.2769 6.4982 24.2769 6.92304V7.62015H26.9235C28.6229 7.62015 30.0004 8.99774 30.0004 10.6971V14.6153C30.0004 15.0402 29.6561 15.3846 29.2312 15.3846C28.8064 15.3846 28.462 15.0402 28.462 14.6153L28.462 13.8461H7.69276V27.7968C7.69276 28.6465 8.38155 29.3353 9.23122 29.3353H18.6543C19.0791 29.3353 19.4235 29.6797 19.4235 30.1045C19.4235 30.5294 19.0791 30.8738 18.6543 30.8738H9.23122C7.53188 30.8738 6.1543 29.4962 6.1543 27.7968V13.0769V10.6971C6.1543 8.99774 7.53188 7.62015 9.23122 7.62015H12.325V6.92304C12.325 6.4982 12.6694 6.15381 13.0943 6.15381ZM22.7384 9.15862V10.2884C22.7384 10.7133 23.0828 11.0577 23.5076 11.0577C23.9325 11.0577 24.2769 10.7133 24.2769 10.2884V9.15862H26.9235C27.7732 9.15862 28.462 9.84741 28.462 10.6971L28.462 12.3077H7.69276V10.6971C7.69276 9.84741 8.38155 9.15862 9.23122 9.15862H12.325V10.2884C12.325 10.7133 12.6694 11.0577 13.0943 11.0577C13.5191 11.0577 13.8635 10.7133 13.8635 10.2884V9.15862H22.7384ZM21.5389 19.2307C21.5389 17.9562 22.5721 16.923 23.8466 16.923H29.2312C30.5057 16.923 31.5389 17.9562 31.5389 19.2307V20.3846C31.5389 20.8094 31.1945 21.1538 30.7697 21.1538C30.3448 21.1538 30.0005 20.8094 30.0005 20.3846V19.2307C30.0005 18.8059 29.6561 18.4615 29.2312 18.4615H23.8466C23.4218 18.4615 23.0774 18.8059 23.0774 19.2307V30C23.0774 30.4248 23.4218 30.7692 23.8466 30.7692H29.2312C29.6561 30.7692 30.0005 30.4248 30.0005 30V26.1538C30.0005 25.729 30.3448 25.3846 30.7697 25.3846C31.1945 25.3846 31.5389 25.729 31.5389 26.1538V30C31.5389 31.2745 30.5057 32.3077 29.2312 32.3077H23.8466C22.5721 32.3077 21.5389 31.2745 21.5389 30V19.2307ZM30.7697 24.6153C31.1945 24.6153 31.5389 24.271 31.5389 23.8461C31.5389 23.4213 31.1945 23.0769 30.7697 23.0769C30.3448 23.0769 30.0005 23.4213 30.0005 23.8461C30.0005 24.271 30.3448 24.6153 30.7697 24.6153Z" fill="#025AE9"/>
<path id="shape_half" opacity="0.4" fill-rule="evenodd" clip-rule="evenodd" d="M9.92285 17.6923C9.92285 17.225 10.3017 16.8462 10.769 16.8462H11.5382C12.0056 16.8462 12.3844 17.225 12.3844 17.6923C12.3844 18.1597 12.0056 18.5385 11.5382 18.5385H10.769C10.3017 18.5385 9.92285 18.1597 9.92285 17.6923ZM9.92285 21.5385C9.92285 21.0712 10.3017 20.6923 10.769 20.6923H11.5382C12.0056 20.6923 12.3844 21.0712 12.3844 21.5385C12.3844 22.0058 12.0056 22.3847 11.5382 22.3847H10.769C10.3017 22.3847 9.92285 22.0058 9.92285 21.5385ZM10.769 24.5385C10.3017 24.5385 9.92285 24.9173 9.92285 25.3847C9.92285 25.852 10.3017 26.2308 10.769 26.2308H11.5382C12.0056 26.2308 12.3844 25.852 12.3844 25.3847C12.3844 24.9173 12.0056 24.5385 11.5382 24.5385H10.769ZM14.538 17.6923C14.538 17.225 14.9168 16.8462 15.3841 16.8462H16.1533C16.6207 16.8462 16.9995 17.225 16.9995 17.6923C16.9995 18.1597 16.6207 18.5385 16.1533 18.5385H15.3841C14.9168 18.5385 14.538 18.1597 14.538 17.6923ZM15.3844 20.6923C14.9171 20.6923 14.5382 21.0712 14.5382 21.5385C14.5382 22.0058 14.9171 22.3847 15.3844 22.3847H16.1536C16.6209 22.3847 16.9998 22.0058 16.9998 21.5385C16.9998 21.0712 16.6209 20.6923 16.1536 20.6923H15.3844ZM14.5382 25.3847C14.5382 24.9173 14.9171 24.5385 15.3844 24.5385H16.1536C16.6209 24.5385 16.9998 24.9173 16.9998 25.3847C16.9998 25.852 16.6209 26.2308 16.1536 26.2308H15.3844C14.9171 26.2308 14.5382 25.852 14.5382 25.3847ZM28.8455 22.1142C29.1635 21.9019 29.2491 21.472 29.0368 21.154C28.8244 20.8361 28.3945 20.7504 28.0766 20.9628C27.1783 21.5626 26.6149 22.649 26.6149 23.8462C26.6149 25.0434 27.1783 26.1297 28.0766 26.7296C28.3945 26.942 28.8244 26.8563 29.0368 26.5384C29.2491 26.2204 29.1635 25.7905 28.8455 25.5782C28.3642 25.2568 27.9995 24.6211 27.9995 23.8462C27.9995 23.0712 28.3642 22.4356 28.8455 22.1142ZM33.4609 20.9628C33.1429 20.7504 32.713 20.8361 32.5007 21.154C32.2883 21.472 32.374 21.9019 32.6919 22.1142C33.1732 22.4356 33.538 23.0712 33.538 23.8462C33.538 24.6211 33.1732 25.2568 32.6919 25.5782C32.374 25.7905 32.2883 26.2204 32.5007 26.5384C32.713 26.8563 33.1429 26.942 33.4609 26.7296C34.3592 26.1297 34.9226 25.0434 34.9226 23.8462C34.9226 22.649 34.3592 21.5626 33.4609 20.9628Z" fill="#025AE9"/>
</g>
</svg>
