<svg width="40" height="40" viewBox="0 0 40 40" fill="none" xmlns="http://www.w3.org/2000/svg">
<g id="Bills Payment">
<path id="shape_full" fill-rule="evenodd" clip-rule="evenodd" d="M13.0943 6.15332C13.5191 6.15332 13.8635 6.49772 13.8635 6.92255V7.61967H22.7384V6.92255C22.7384 6.49772 23.0828 6.15332 23.5076 6.15332C23.9325 6.15332 24.2769 6.49772 24.2769 6.92255V7.61967H26.9235C28.6229 7.61967 30.0004 8.99725 30.0004 10.6966V16.9226C30.0004 17.3474 29.6561 17.6918 29.2312 17.6918C28.8064 17.6918 28.462 17.3474 28.462 16.9226L28.462 13.8456H7.69276V27.6197C7.69276 28.4693 8.38155 29.1581 9.23122 29.1581H20.0005C20.4253 29.1581 20.7697 29.5025 20.7697 29.9274C20.7697 30.3522 20.4253 30.6966 20.0005 30.6966H9.23122C7.53188 30.6966 6.1543 29.319 6.1543 27.6197V13.0764V10.6966C6.1543 8.99725 7.53188 7.61967 9.23122 7.61967H12.325V6.92255C12.325 6.49772 12.6694 6.15332 13.0943 6.15332ZM22.7384 9.15813V10.2879C22.7384 10.7128 23.0828 11.0572 23.5076 11.0572C23.9325 11.0572 24.2769 10.7128 24.2769 10.2879V9.15813H26.9235C27.7732 9.15813 28.462 9.84692 28.462 10.6966L28.462 12.3072H7.69276V10.6966C7.69276 9.84692 8.38155 9.15813 9.23122 9.15813H12.325V10.2879C12.325 10.7128 12.6694 11.0572 13.0943 11.0572C13.5191 11.0572 13.8635 10.7128 13.8635 10.2879V9.15813H22.7384ZM28.5349 22.4352C28.9172 22.4352 29.2272 22.7451 29.2272 23.1275V24.9777L30.6271 26.3776C30.8975 26.648 30.8975 27.0863 30.6271 27.3567C30.3567 27.627 29.9184 27.627 29.648 27.3567L28.0453 25.754C27.9155 25.6241 27.8425 25.448 27.8425 25.2644V23.1275C27.8425 22.7451 28.1525 22.4352 28.5349 22.4352ZM22.5009 25.2646C22.5009 25.647 22.8109 25.957 23.1932 25.957C23.5756 25.957 23.8855 25.647 23.8855 25.2646C23.8855 22.6965 25.9674 20.6146 28.5356 20.6146C28.918 20.6146 29.2279 20.3046 29.2279 19.9223C29.2279 19.5399 28.918 19.23 28.5356 19.23C25.2027 19.23 22.5009 21.9318 22.5009 25.2646Z" fill="#025AE9"/>
<path id="shape_half" opacity="0.4" fill-rule="evenodd" clip-rule="evenodd" d="M10.769 16.8459C10.3017 16.8459 9.92285 17.2248 9.92285 17.6921C9.92285 18.1594 10.3017 18.5383 10.769 18.5383H11.5382C12.0056 18.5383 12.3844 18.1594 12.3844 17.6921C12.3844 17.2248 12.0056 16.8459 11.5382 16.8459H10.769ZM10.769 20.6921C10.3017 20.6921 9.92285 21.0709 9.92285 21.5383C9.92285 22.0056 10.3017 22.3844 10.769 22.3844H11.5382C12.0056 22.3844 12.3844 22.0056 12.3844 21.5383C12.3844 21.0709 12.0056 20.6921 11.5382 20.6921H10.769ZM9.92285 25.3844C9.92285 24.9171 10.3017 24.5383 10.769 24.5383H11.5382C12.0056 24.5383 12.3844 24.9171 12.3844 25.3844C12.3844 25.8517 12.0056 26.2306 11.5382 26.2306H10.769C10.3017 26.2306 9.92285 25.8517 9.92285 25.3844ZM15.3844 16.8459C14.9171 16.8459 14.5382 17.2248 14.5382 17.6921C14.5382 18.1594 14.9171 18.5383 15.3844 18.5383H16.1536C16.6209 18.5383 16.9998 18.1594 16.9998 17.6921C16.9998 17.2248 16.6209 16.8459 16.1536 16.8459H15.3844ZM14.5383 21.5383C14.5383 21.0709 14.9172 20.6921 15.3845 20.6921H16.1537C16.621 20.6921 16.9999 21.0709 16.9999 21.5383C16.9999 22.0056 16.621 22.3844 16.1537 22.3844H15.3845C14.9172 22.3844 14.5383 22.0056 14.5383 21.5383ZM15.3844 24.5383C14.9171 24.5383 14.5382 24.9171 14.5382 25.3844C14.5382 25.8517 14.9171 26.2306 15.3844 26.2306H16.1536C16.6209 26.2306 16.9998 25.8517 16.9998 25.3844C16.9998 24.9171 16.6209 24.5383 16.1536 24.5383H15.3844ZM28.5345 19.2309L28.5802 19.231C28.9625 19.2339 29.2702 19.5461 29.2673 19.9285C29.2645 20.3108 28.9522 20.6185 28.5699 20.6156L28.5345 20.6155V20.2693V19.577V19.2309ZM29.9007 20.0529C30.0445 19.6986 30.4482 19.528 30.8025 19.6718C30.8307 19.6832 30.8587 19.6948 30.8867 19.7067C31.2387 19.8558 31.4032 20.2621 31.2541 20.6142C31.105 20.9662 30.6987 21.1307 30.3466 20.9816C30.3251 20.9725 30.3035 20.9635 30.2819 20.9548C29.9276 20.811 29.7569 20.4072 29.9007 20.0529ZM31.7903 20.9736C32.0586 20.7013 32.4969 20.698 32.7693 20.9663C32.791 20.9876 32.8124 21.0091 32.8337 21.0307C33.1021 21.3031 33.0988 21.7414 32.8264 22.0098C32.554 22.2781 32.1157 22.2748 31.8473 22.0024C31.8309 21.9857 31.8143 21.9691 31.7976 21.9527C31.5253 21.6844 31.522 21.246 31.7903 20.9736ZM33.1859 22.5459C33.5379 22.3968 33.9442 22.5613 34.0934 22.9134C34.1052 22.9413 34.1169 22.9694 34.1283 22.9975C34.2721 23.3518 34.1014 23.7556 33.7471 23.8993C33.3928 24.0431 32.9891 23.8725 32.8453 23.5182C32.8365 23.4965 32.8275 23.4749 32.8184 23.4534C32.6693 23.1014 32.8338 22.6951 33.1859 22.5459ZM33.8716 24.5327C34.2539 24.5299 34.5662 24.8375 34.569 25.2199L34.5692 25.2656L34.569 25.3112C34.5662 25.6936 34.2539 26.0012 33.8716 25.9984C33.4892 25.9955 33.1816 25.6833 33.1844 25.301L33.1846 25.2656L33.1844 25.2302C33.1816 24.8478 33.4892 24.5356 33.8716 24.5327ZM22.5 25.3112L22.4998 25.2656H22.8459H23.5383H23.8844L23.8845 25.301C23.8874 25.6833 23.5797 25.9955 23.1974 25.9984C22.8151 26.0012 22.5028 25.6936 22.5 25.3112ZM23.3219 26.6318C23.6762 26.488 24.0799 26.6587 24.2237 27.0129C24.2325 27.0346 24.2414 27.0562 24.2505 27.0777C24.3997 27.4297 24.2352 27.836 23.8831 27.9852C23.531 28.1343 23.1247 27.9698 22.9756 27.6177C22.9637 27.5898 22.9521 27.5618 22.9407 27.5336C22.7969 27.1793 22.9676 26.7755 23.3219 26.6318ZM33.7471 26.6318C34.1014 26.7755 34.2721 27.1793 34.1283 27.5336C34.1169 27.5618 34.1052 27.5898 34.0934 27.6177C33.9442 27.9698 33.5379 28.1343 33.1859 27.9852C32.8338 27.836 32.6693 27.4297 32.8184 27.0777C32.8275 27.0562 32.8365 27.0346 32.8453 27.0129C32.9891 26.6587 33.3928 26.488 33.7471 26.6318ZM24.2426 28.5214C24.515 28.253 24.9533 28.2563 25.2216 28.5287C25.2381 28.5454 25.2546 28.562 25.2713 28.5784C25.5437 28.8467 25.547 29.2851 25.2787 29.5575C25.0104 29.8298 24.572 29.8331 24.2996 29.5648C24.278 29.5435 24.2565 29.522 24.2352 29.5004C23.9669 29.228 23.9702 28.7897 24.2426 28.5214ZM32.8264 28.5214C33.0988 28.7897 33.1021 29.228 32.8337 29.5004L32.7949 29.5395L32.7693 29.5648C32.4969 29.8331 32.0586 29.8298 31.7903 29.5575C31.522 29.2851 31.5253 28.8467 31.7976 28.5784L31.8164 28.5598L31.8473 28.5287C32.1157 28.2563 32.554 28.253 32.8264 28.5214ZM25.8149 29.9169C25.964 29.5649 26.3703 29.4004 26.7224 29.5495C26.7439 29.5586 26.7654 29.5676 26.7871 29.5764C27.1414 29.7201 27.312 30.1239 27.1683 30.4782C27.0245 30.8325 26.6207 31.0031 26.2664 30.8593C26.2383 30.8479 26.2102 30.8363 26.1823 30.8245C25.8302 30.6753 25.6657 30.269 25.8149 29.9169ZM31.2541 29.9169C31.4032 30.269 31.2387 30.6753 30.8867 30.8245C30.8587 30.8363 30.8307 30.8479 30.8025 30.8593C30.4482 31.0031 30.0445 30.8325 29.9007 30.4782C29.7569 30.1239 29.9276 29.7201 30.2819 29.5764C30.3035 29.5676 30.3251 29.5586 30.3466 29.5495C30.6987 29.4004 31.105 29.5649 31.2541 29.9169ZM27.8017 30.6026C27.8045 30.2203 28.1167 29.9127 28.4991 29.9155L28.5345 29.9156L28.5699 29.9155C28.9522 29.9127 29.2645 30.2203 29.2673 30.6026C29.2702 30.985 28.9625 31.2972 28.5802 31.3001L28.5345 31.3002L28.4888 31.3001C28.1065 31.2972 27.7988 30.985 27.8017 30.6026ZM20.3841 16.8459C19.9168 16.8459 19.538 17.2248 19.538 17.6921C19.538 18.1594 19.9168 18.5383 20.3841 18.5383H21.1533C21.6207 18.5383 21.9995 18.1594 21.9995 17.6921C21.9995 17.2248 21.6207 16.8459 21.1533 16.8459H20.3841Z" fill="#025AE9"/>
</g>
</svg>
