<svg width="40" height="40" viewBox="0 0 40 40" fill="none" xmlns="http://www.w3.org/2000/svg">
<g id="Bills">
<path id="shape_half" opacity="0.4" fill-rule="evenodd" clip-rule="evenodd" d="M21.5382 17.6922C21.1133 17.6922 20.7689 18.0366 20.7689 18.4614C20.7689 18.8863 21.1133 19.2307 21.5382 19.2307H27.3074C27.7322 19.2307 28.0766 18.8863 28.0766 18.4614C28.0766 18.0366 27.7322 17.6922 27.3074 17.6922L21.5382 17.6922ZM20.7689 22.3075C20.7689 21.8827 21.1133 21.5383 21.5382 21.5383L27.3074 21.5383C27.7322 21.5383 28.0766 21.8827 28.0766 22.3075C28.0766 22.7324 27.7322 23.0768 27.3074 23.0768L21.5382 23.0768C21.1133 23.0768 20.7689 22.7324 20.7689 22.3075ZM12.6921 25.3844C12.2672 25.3844 11.9229 25.7288 11.9229 26.1536C11.9229 26.5784 12.2672 26.9228 12.6921 26.9228L27.3075 26.9229C27.7323 26.9229 28.0767 26.5785 28.0767 26.1536C28.0767 25.7288 27.7323 25.3844 27.3075 25.3844L12.6921 25.3844ZM12.6921 29.2305C12.2672 29.2305 11.9229 29.5749 11.9229 29.9997C11.9229 30.4245 12.2672 30.7689 12.6921 30.7689L27.3075 30.7689C27.7323 30.7689 28.0767 30.4245 28.0767 29.9997C28.0767 29.5749 27.7323 29.2305 27.3075 29.2305L12.6921 29.2305Z" fill="#025AE9"/>
<path id="shape_full" fill-rule="evenodd" clip-rule="evenodd" d="M10.7692 3C9.02739 3 7.61537 4.41203 7.61537 6.15385V7.74993C4.61705 8.16223 2.30762 10.7345 2.30762 13.8461C2.30762 16.9577 4.61705 19.53 7.61537 19.9422V36.9231H9.21682L9.23065 36.9232L11.1087 36.9232C11.5336 36.9232 11.878 36.5788 11.878 36.154C11.878 35.7292 11.5336 35.3848 11.1088 35.3848L9.30768 35.3847V19.9422C12.3059 19.5299 14.6153 16.9577 14.6153 13.8461C14.6153 10.7345 12.3059 8.1623 9.30768 7.74995V6.15385C9.30768 5.34666 9.96203 4.69231 10.7692 4.69231H29.2308C30.0379 4.69231 30.6923 5.34666 30.6923 6.15385V35.385L29.1383 35.385C28.7135 35.385 28.3691 35.7294 28.3691 36.1542C28.3691 36.579 28.7135 36.9235 29.1383 36.9235L31.0164 36.9235C31.0248 36.9235 31.0331 36.9233 31.0414 36.9231H32.3846V6.15385C32.3846 4.41202 30.9726 3 29.2308 3H10.7692ZM11.3132 11.7637C11.6136 12.0642 11.6136 12.5512 11.3132 12.8516L8.2363 15.9285C7.93589 16.2289 7.44884 16.2289 7.14844 15.9285L5.60998 14.3901C5.30957 14.0897 5.30957 13.6026 5.60998 13.3022C5.91038 13.0018 6.39743 13.0018 6.69783 13.3022L7.69237 14.2967L10.2254 11.7637C10.5258 11.4633 11.0128 11.4633 11.3132 11.7637ZM13.8453 36.154C13.8453 35.7292 14.1897 35.3848 14.6145 35.3848L18.3707 35.3849C18.7955 35.3849 19.1399 35.7293 19.1399 36.1541C19.1399 36.5789 18.7955 36.9233 18.3706 36.9233L14.6145 36.9233C14.1896 36.9233 13.8453 36.5789 13.8453 36.154ZM21.1072 36.1541C21.1072 35.7293 21.4516 35.3849 21.8764 35.3849L25.6326 35.3849C26.0574 35.385 26.4018 35.7294 26.4018 36.1542C26.4018 36.579 26.0574 36.9234 25.6325 36.9234L21.8764 36.9234C21.4515 36.9234 21.1072 36.579 21.1072 36.1541ZM22.1095 14.0489C22.1095 14.3646 22.3602 14.6153 22.6852 14.6153C23.0009 14.6153 23.2517 14.3646 23.2517 14.0489V12.3076H24.5424C25.7333 12.3076 26.7438 11.6376 27.0485 10.5715H27.4942C27.8098 10.5715 28.0656 10.3157 28.0656 10.0001C28.0656 9.68447 27.8098 9.42863 27.4942 9.42863H27.1048C26.9152 8.36731 26.0188 7.69225 24.6724 7.69225H22.6852C22.3602 7.69225 22.1095 7.94296 22.1095 8.26796V9.42863H21.3404C21.0248 9.42863 20.7689 9.68447 20.7689 10.0001C20.7689 10.3157 21.0248 10.5715 21.3404 10.5715H22.1095V14.0489ZM24.5795 8.73225C25.2388 8.73225 25.7156 8.97007 25.8989 9.42863L23.2517 9.42863V8.73225H24.5795ZM25.8074 10.5715H23.2517V11.2769H24.5795C25.153 11.2769 25.5832 10.9737 25.8074 10.5715Z" fill="#025AE9"/>
</g>
</svg>
