<svg width="40" height="40" viewBox="0 0 40 40" fill="none" xmlns="http://www.w3.org/2000/svg">
<g id="Buy Load">
<path id="shape_half" opacity="0.4" d="M13.8457 30.7692H18.4611" stroke="#1972F9" stroke-width="1.69231" stroke-linecap="round" stroke-linejoin="round"/>
<path id="shape_full" fill-rule="evenodd" clip-rule="evenodd" d="M7.76946 8.46153C7.76946 7.22951 8.76821 6.23076 10.0002 6.23076H22.3079C23.5399 6.23076 24.5387 7.22951 24.5387 8.46153V13.0769C24.5387 13.5442 24.9175 13.9231 25.3848 13.9231C25.8522 13.9231 26.231 13.5442 26.231 13.0769V8.46153C26.231 6.29487 24.4746 4.53845 22.3079 4.53845H10.0002C7.83357 4.53845 6.07715 6.29487 6.07715 8.46153V31.5385C6.07715 33.7051 7.83357 35.4615 10.0002 35.4615H22.3079C24.4746 35.4615 26.231 33.7051 26.231 31.5385V26.9231C26.231 26.4557 25.8522 26.0769 25.3848 26.0769C24.9175 26.0769 24.5387 26.4557 24.5387 26.9231V31.5385C24.5387 32.7705 23.5399 33.7692 22.3079 33.7692H10.0002C8.76821 33.7692 7.76946 32.7705 7.76946 31.5385V8.46153ZM14.5991 17.5584L14.5992 18.6094H17.9145C17.6507 17.991 17.0371 17.5584 16.3235 17.5584H14.5991ZM12.7012 18.6094H13.0915L13.0914 16.8894C13.0914 16.6628 13.1914 16.4595 13.3497 16.3213C13.4787 16.1977 13.6537 16.1219 13.8464 16.1219H16.3235C17.8375 16.1219 19.1055 17.1853 19.4161 18.6094H19.8707C20.245 18.6094 20.5485 18.9129 20.5485 19.2873C20.5485 19.6616 20.245 19.9651 19.8707 19.9651H19.4163C19.1062 21.3861 17.8407 22.4527 16.3235 22.4527H14.5994L14.5995 24.6271C14.5995 25.0434 14.262 25.3809 13.8457 25.3809C13.4293 25.381 13.0918 25.0435 13.0918 24.6271L13.0915 19.9651H12.7012C12.3269 19.9651 12.0234 19.6616 12.0234 19.2873C12.0234 18.9129 12.3269 18.6094 12.7012 18.6094ZM16.3235 21.0162C17.0384 21.0162 17.6511 20.5826 17.9145 19.9651H14.5992L14.5993 21.0162H16.3235Z" fill="#1972F9"/>
<path id="shape_accent" fill-rule="evenodd" clip-rule="evenodd" d="M23.2469 19.4018C22.9164 19.7322 22.9164 20.268 23.2469 20.5984L26.3238 23.6753C26.6542 24.0058 27.19 24.0058 27.5204 23.6753C27.8509 23.3449 27.8509 22.8091 27.5204 22.4787L25.8879 20.8462L33.0767 20.8462C33.544 20.8462 33.9229 20.4673 33.9229 20C33.9229 19.5327 33.544 19.1539 33.0767 19.1539L25.8881 19.1539L27.5204 17.5215C27.8509 17.1911 27.8509 16.6553 27.5204 16.3249C27.19 15.9944 26.6542 15.9944 26.3238 16.3249L23.2469 19.4018Z" fill="#1972F9"/>
</g>
</svg>
