<svg width="40" height="40" viewBox="0 0 40 40" fill="none" xmlns="http://www.w3.org/2000/svg">
<g id="Cards">
<path id="shape_full" fill-rule="evenodd" clip-rule="evenodd" d="M4.53809 10.6156C4.53809 8.95874 5.88123 7.6156 7.53809 7.6156H27.8458C29.5026 7.6156 30.8458 8.95875 30.8458 10.6156V13.7692H32.4613C34.1182 13.7692 35.4613 15.1123 35.4613 16.7692V30.1538C35.4613 31.8106 34.1182 33.1538 32.4613 33.1538H22.3075H12.1536C10.4968 33.1538 9.15363 31.8106 9.15363 30.1538V27.8846V27.0002H7.53809C5.88123 27.0002 4.53809 25.6571 4.53809 24.0002V21.731V17.3079V10.6156ZM29.1535 10.6156V13.7692H12.1536C10.4968 13.7692 9.15363 15.1123 9.15363 16.7692V23.4615V25.3079H7.53809C6.81587 25.3079 6.23039 24.7224 6.23039 24.0002V21.731V17.3079V10.6156C6.23039 9.89338 6.81587 9.30791 7.53809 9.30791H27.8458C28.568 9.30791 29.1535 9.89338 29.1535 10.6156ZM12.1536 15.4615C11.4314 15.4615 10.8459 16.0469 10.8459 16.7692V23.4615V27.8846V30.1538C10.8459 30.876 11.4314 31.4615 12.1536 31.4615H22.3075H32.4613C33.1835 31.4615 33.769 30.876 33.769 30.1538V16.7692C33.769 16.0469 33.1835 15.4615 32.4613 15.4615H12.1536ZM15.3075 20.3849C15.3075 19.2803 16.2029 18.3849 17.3075 18.3849C17.6729 18.3849 18.0135 18.4823 18.307 18.652C18.638 18.8435 19.0615 18.7304 19.2529 18.3994C19.4444 18.0685 19.3313 17.645 19.0003 17.4535C18.5018 17.1651 17.9228 17.0003 17.3075 17.0003C15.4382 17.0003 13.9229 18.5156 13.9229 20.3849C13.9229 22.2542 15.4382 23.7695 17.3075 23.7695C19.1768 23.7695 20.6921 22.2542 20.6921 20.3849C20.6921 20.0025 20.3822 19.6926 19.9998 19.6926H17.6921C17.3098 19.6926 16.9998 20.0025 16.9998 20.3849C16.9998 20.7672 17.3098 21.0772 17.6921 21.0772H19.1844C18.9028 21.8406 18.1687 22.3849 17.3075 22.3849C16.2029 22.3849 15.3075 21.4895 15.3075 20.3849Z" fill="#025AE9"/>
<path id="shape_half" opacity="0.4" fill-rule="evenodd" clip-rule="evenodd" d="M5.38477 11.5386H30.0002V14.6155H5.38477V11.5386ZM13.7694 29.2308C13.7694 28.7635 14.1482 28.3847 14.6155 28.3847H30.0002C30.4675 28.3847 30.8463 28.7635 30.8463 29.2308C30.8463 29.6982 30.4675 30.077 30.0002 30.077L14.6155 30.077C14.1482 30.077 13.7694 29.6982 13.7694 29.2308ZM14.6155 25.3078C14.1482 25.3078 13.7694 25.6866 13.7694 26.1539C13.7694 26.6212 14.1482 27.0001 14.6155 27.0001H20.7694C21.2367 27.0001 21.6155 26.6212 21.6155 26.1539C21.6155 25.6866 21.2367 25.3078 20.7694 25.3078L14.6155 25.3078Z" fill="#025AE9"/>
</g>
</svg>
