<svg width="40" height="40" viewBox="0 0 40 40" fill="none" xmlns="http://www.w3.org/2000/svg">
<g id="Cash In">
<path id="shape_half" opacity="0.4" fill-rule="evenodd" clip-rule="evenodd" d="M16.1543 32.3077C16.1543 31.8828 16.5643 31.5385 17.07 31.5385H22.9309C23.4366 31.5385 23.8466 31.8828 23.8466 32.3077C23.8466 32.7325 23.4366 33.0769 22.9309 33.0769H17.07C16.5643 33.0769 16.1543 32.7325 16.1543 32.3077Z" fill="#025AE9"/>
<path id="shape_full" fill-rule="evenodd" clip-rule="evenodd" d="M12.8574 2.99994C10.8121 2.99994 9.15407 4.65796 9.15407 6.70323V9.99994H4.61561C3.76594 9.99994 3.07715 10.6887 3.07715 11.5384V19.9999C3.07715 20.8496 3.76594 21.5384 4.61561 21.5384H9.15407V21.5488V21.5743V21.5997V21.6252V21.6507V21.6762V21.7017V21.7273V21.7528V21.7784V21.804V21.8296V21.8552V21.8808V21.9065V21.9321V21.9578V21.9835V22.0092V22.0349V22.0607V22.0864V22.1122V22.138V22.1638V22.1896V22.2154V22.2412V22.2671V22.2929V22.3188V22.3447V22.3706V22.3965V22.4224V22.4484V22.4743V22.5003V22.5262V22.5522V22.5782V22.6042V22.6302V22.6563V22.6823V22.7084V22.7344V22.7605V22.7866V22.8127V22.8388V22.8649V22.891V22.9172V22.9433V22.9695V22.9956V23.0218V23.048V23.0742V23.1004V23.1266V23.1528V23.1791V23.2053V23.2316V23.2578V23.2841V23.3103V23.3366V23.3629V23.3892V23.4155V23.4418V23.4681V23.4945V23.5208V23.5471V23.5735V23.5998V23.6262V23.6526V23.6789V23.7053V23.7317V23.7581V23.7845V23.8109V23.8373V23.8637V23.8901V23.9165V23.943V23.9694V23.9958V24.0223V24.0487V24.0752V24.1016V24.1281V24.1545V24.181V24.2075V24.2339V24.2604V24.2869V24.3134V24.3398V24.3663V24.3928V24.4193V24.4458V24.4723V24.4988V24.5253V24.5518V24.5783V24.6048V24.6313V24.6578V24.6844V24.7109V24.7374V24.7639V24.7904V24.8169V24.8434V24.87V24.8965V24.923V24.9495V24.976V25.0025V25.029V25.0556V25.0821V25.1086V25.1351V25.1616V25.1881V25.2146V25.2411V25.2676V25.2941V25.3206V25.3471V25.3736V25.4001V25.4266V25.4531V25.4796V25.5061V25.5326V25.5591V25.5855V25.612V25.6385V25.6649V25.6914V25.7179V25.7443V25.7708V25.7972V25.8236V25.8501V25.8765V25.9029V25.9294V25.9558V25.9822V26.0086V26.035V26.0614V26.0878V26.1142V26.1405V26.1669V26.1933V26.2196V26.246V26.2723V26.2987V26.325V26.3513V26.3777V26.404V26.4303V26.4566V26.4829V26.5091V26.5354V26.5617V26.5879V26.6142V26.6404V26.6667V26.6929V26.7191V26.7453V26.7715V26.7977V26.8239V26.85V26.8762V26.9023V26.9285V26.9546V26.9807V27.0068V27.0329V27.059V27.0851V27.1111V27.1372V27.1632V27.1893V27.2153V27.2413V27.2673V27.2933V27.3193V27.3452V27.3712V27.3971V27.423V27.4489V27.4749V27.5007V27.5266V27.5525V27.5783V27.6042V27.63V27.6558V27.6816V27.7074V27.7331V27.7589V27.7846V27.8103V27.8361V27.8617V27.8874V27.9131V27.9387V27.9644V27.99V28.0156V28.0412V28.0668V28.0923V28.1179V28.1434V28.1689V28.1944V28.2199V28.2453V28.2708V28.2962V28.3216V28.347V28.3724V28.3977V28.4231V28.4484V28.4737V28.499V28.5243V28.5495V28.5747V28.6V28.6252V28.6503V28.6755V28.7006V28.7257V28.7508V28.7759V28.801V28.826V28.8511V28.8761V28.901V28.926V28.9509V28.9759V29.0008V29.0257V29.0505V29.0753V29.1002V29.125V29.1497V29.1745V29.1992V29.2239V29.2486V29.2733V29.2979V29.3226V29.3472V29.3717V29.3963V29.4208V29.4453V29.4698V29.4943V29.5187V29.5431V29.5675V29.5919V29.6163V29.6406V29.6649V29.6892V29.7134V29.7376V29.7618V29.786V29.8102V29.8343V29.8584V29.8825V29.9065V29.9305V29.9545V29.9785V30.0025V30.0264V30.0503V30.0741V30.098V30.1218V30.1456V30.1694V30.1931V30.2168V30.2405V30.2641V30.2878V30.3114V30.3349V30.3585V30.382V30.4055V30.4289V30.4524V30.4758V30.4991V30.5225V30.5458V30.5691V30.5924V30.6156V30.6388V30.662V30.6851V30.7082V30.7313V30.7543V30.7774V30.8003V30.8233V30.8462V30.8691V30.892V30.9148V30.9376V30.9604V30.9832V31.0059V31.0285V31.0512V31.0738V31.0964V31.1189V31.1415V31.1639V31.1864V31.2088V31.2312V31.2536V31.2759V31.2982V31.3204V31.3426V31.3648V31.387V31.4091V31.4312V31.4532V31.4753V31.4973V31.5192V31.5411V31.563V31.5848V31.6066V31.6284V31.6502V31.6719V31.6935V31.7152V31.7368V31.7583V31.7799V31.8013V31.8228V31.8442V31.8656V31.8869V31.9082V31.9295V31.9507V31.9719V31.9931V32.0142V32.0353V32.0563V32.0773V32.0983V32.1192V32.1401V32.161V32.1818V32.2026V32.2233V32.244V32.2646V32.2853V32.3058V32.3264V32.3469V32.3673V32.3878V32.4081V32.4285V32.4488V32.469V32.4893V32.5094V32.5296V32.5497V32.5697V32.5897V32.6097V32.6296V32.6495V32.6694V32.6892V32.7089V32.7287V32.7483V32.768V32.7876V32.8071V32.8266V32.8461V32.8655V32.8849V32.9042V32.9235V32.9428V32.962V32.9812V33.0003V33.0193V33.0384V33.0574V33.0763V33.0952V33.114V33.1329V33.1516V33.1703V33.189V33.2076V33.2262V33.2447V33.2632V33.2817V33.3001C9.15407 35.3467 10.8134 36.9999 12.8574 36.9999H27.1431C29.1884 36.9999 30.8464 35.3419 30.8464 33.2966V8.51276V6.70324C30.8464 4.65796 29.1884 2.99994 27.1431 2.99994H12.8574ZM10.8464 21.5384V21.5488V21.5743V21.5997V21.6252V21.6507V21.6762V21.7017V21.7273V21.7528V21.7784V21.804V21.8296V21.8552V21.8808V21.9065V21.9321V21.9578V21.9835V22.0092V22.0349V22.0607V22.0864V22.1122V22.138V22.1638V22.1896V22.2154V22.2412V22.2671V22.2929V22.3188V22.3447V22.3706V22.3965V22.4224V22.4484V22.4743V22.5003V22.5262V22.5522V22.5782V22.6042V22.6302V22.6563V22.6823V22.7084V22.7344V22.7605V22.7866V22.8127V22.8388V22.8649V22.891V22.9172V22.9433V22.9695V22.9956V23.0218V23.048V23.0742V23.1004V23.1266V23.1528V23.1791V23.2053V23.2316V23.2578V23.2841V23.3103V23.3366V23.3629V23.3892V23.4155V23.4418V23.4681V23.4945V23.5208V23.5471V23.5735V23.5998V23.6262V23.6526V23.6789V23.7053V23.7317V23.7581V23.7845V23.8109V23.8373V23.8637V23.8901V23.9165V23.943V23.9694V23.9958V24.0223V24.0487V24.0752V24.1016V24.1281V24.1545V24.181V24.2075V24.2339V24.2604V24.2869V24.3134V24.3398V24.3663V24.3928V24.4193V24.4458V24.4723V24.4988V24.5253V24.5518V24.5783V24.6048V24.6313V24.6578V24.6844V24.7109V24.7374V24.7639V24.7904V24.8169V24.8434V24.87V24.8965V24.923V24.9495V24.976V25.0025V25.029V25.0556V25.0821V25.1086V25.1351V25.1616V25.1881V25.2146V25.2411V25.2676V25.2941V25.3206V25.3471V25.3736V25.4001V25.4266V25.4531V25.4796V25.5061V25.5326V25.5591V25.5855V25.612V25.6385V25.6649V25.6914V25.7179V25.7443V25.7708V25.7972V25.8236V25.8501V25.8765V25.9029V25.9294V25.9558V25.9822V26.0086V26.035V26.0614V26.0878V26.1142V26.1405V26.1669V26.1933V26.2196V26.246V26.2723V26.2987V26.325V26.3513V26.3777V26.404V26.4303V26.4566V26.4829V26.5091V26.5354V26.5617V26.5879V26.6142V26.6404V26.6667V26.6929V26.7191V26.7453V26.7715V26.7977V26.8239V26.85V26.8762V26.9023V26.9285V26.9546V26.9807V27.0068V27.0329V27.059V27.0851V27.1111V27.1372V27.1632V27.1893V27.2153V27.2413V27.2673V27.2933V27.3193V27.3452V27.3712V27.3971V27.423V27.4489V27.4749V27.5007V27.5266V27.5525V27.5783V27.6042V27.63V27.6558V27.6816V27.7074V27.7331V27.7589V27.7846V27.8103V27.8361V27.8617V27.8874V27.9131V27.9387V27.9644V27.99V28.0156V28.0412V28.0668V28.0923V28.1179V28.1434V28.1689V28.1944V28.2199V28.2453V28.2708V28.2962V28.3216V28.347V28.3724V28.3977V28.4231V28.4484V28.4737V28.499V28.5243V28.5495V28.5747V28.6V28.6252V28.6503V28.6755V28.7006V28.7257V28.7508V28.7759V28.801V28.826V28.8511V28.8761V28.901V28.926V28.9509V28.9759V29.0008V29.0257V29.0505V29.0753V29.1002V29.125V29.1497V29.1745V29.1992V29.2239V29.2486V29.2733V29.2979V29.3226V29.3472V29.3717V29.3963V29.4208V29.4453V29.4698V29.4943V29.5187V29.5431V29.5675V29.5919V29.6163V29.6406V29.6649V29.6892V29.7134V29.7376V29.7618V29.786V29.8102V29.8343V29.8584V29.8825V29.9065V29.9305V29.9545V29.9785V30.0025V30.0264V30.0503V30.0741V30.098V30.1218V30.1456V30.1694V30.1931V30.2168V30.2405V30.2641V30.2878V30.3114V30.3349V30.3585V30.382V30.4055V30.4289V30.4524V30.4758V30.4991V30.5225V30.5458V30.5691V30.5924V30.6156V30.6388V30.662V30.6851V30.7082V30.7313V30.7543V30.7774V30.8003V30.8233V30.8462V30.8691V30.892V30.9148V30.9376V30.9604V30.9832V31.0059V31.0285V31.0512V31.0738V31.0964V31.1189V31.1415V31.1639V31.1864V31.2088V31.2312V31.2536V31.2759V31.2982V31.3204V31.3426V31.3648V31.387V31.4091V31.4312V31.4532V31.4753V31.4973V31.5192V31.5411V31.563V31.5848V31.6066V31.6284V31.6502V31.6719V31.6935V31.7152V31.7368V31.7583V31.7799V31.8013V31.8228V31.8442V31.8656V31.8869V31.9082V31.9295V31.9507V31.9719V31.9931V32.0142V32.0353V32.0563V32.0773V32.0983V32.1192V32.1401V32.161V32.1818V32.2026V32.2233V32.244V32.2646V32.2853V32.3058V32.3264V32.3469V32.3673V32.3878V32.4081V32.4285V32.4488V32.469V32.4893V32.5094V32.5296V32.5497V32.5697V32.5897V32.6097V32.6296V32.6495V32.6694V32.6892V32.7089V32.7287V32.7483V32.768V32.7876V32.8071V32.8266V32.8461V32.8655V32.8849V32.9042V32.9235V32.9428V32.962V32.9812V33.0003V33.0193V33.0384V33.0574V33.0763V33.0952V33.114V33.1329V33.1516V33.1703V33.189V33.2076V33.2262V33.2447V33.2632V33.2817V33.3001C10.8464 34.4094 11.7454 35.3076 12.8574 35.3076H27.1431C28.2537 35.3076 29.1541 34.4073 29.1541 33.2966V8.51276V6.70324C29.1541 5.5926 28.2537 4.69225 27.1431 4.69225H12.8574C11.7467 4.69225 10.8464 5.5926 10.8464 6.70323V9.99994H16.1541V7.69225L23.8464 15.7692L16.1541 23.8461V21.5384H10.8464ZM9.80662 19.2306C9.48162 19.2306 9.23091 18.9799 9.23091 18.6642V15.1867H8.46168C8.14609 15.1867 7.89025 14.9308 7.89025 14.6152C7.89025 14.2997 8.14609 14.0438 8.46168 14.0438H9.23091V12.8833C9.23091 12.5583 9.48162 12.3076 9.80662 12.3076H11.7938C13.1401 12.3076 14.0365 12.9826 14.2262 14.0438H14.6155C14.9311 14.0438 15.187 14.2997 15.187 14.6152C15.187 14.9308 14.9311 15.1867 14.6155 15.1867H14.1699C13.8653 16.2529 12.8547 16.9229 11.6638 16.9229H10.3731V18.6642C10.3731 18.9799 10.1223 19.2306 9.80662 19.2306ZM13.0203 14.0438C12.8369 13.5853 12.3602 13.3476 11.7009 13.3476H10.3731V14.0438H13.0203ZM10.3731 15.1867H12.9289C12.7046 15.589 12.2744 15.8922 11.7009 15.8922H10.3731V15.1867Z" fill="#025AE9"/>
</g>
</svg>
