<svg width="40" height="40" viewBox="0 0 40 40" fill="none" xmlns="http://www.w3.org/2000/svg">
<g id="Cash Out">
<path id="shape_half" opacity="0.4" fill-rule="evenodd" clip-rule="evenodd" d="M7.76946 15.3076V6.2307H32.231V15.3076H27.6925C27.2252 15.3076 26.8464 15.6865 26.8464 16.1538C26.8464 16.6211 27.2252 16.9999 27.6925 16.9999H32.3079C33.2001 16.9999 33.9233 16.2767 33.9233 15.3845V6.15378C33.9233 5.26162 33.2001 4.53839 32.3079 4.53839H7.69253C6.80038 4.53839 6.07715 5.26162 6.07715 6.15378V15.3845C6.07715 16.2767 6.80038 16.9999 7.69253 16.9999H11.9233C12.3906 16.9999 12.7695 16.6211 12.7695 16.1538C12.7695 15.6865 12.3906 15.3076 11.9233 15.3076H7.76946ZM10.7695 9.15378C10.3021 9.15378 9.9233 9.53261 9.9233 9.99993C9.9233 10.4672 10.3021 10.8461 10.7695 10.8461H29.231C29.6983 10.8461 30.0771 10.4672 30.0771 9.99993C30.0771 9.53261 29.6983 9.15378 29.231 9.15378H10.7695Z" fill="#025AE9"/>
<path id="Subtract" fill-rule="evenodd" clip-rule="evenodd" d="M10.7686 10.7696V15.1212V34.6157C10.7686 35.4654 11.4573 36.1542 12.307 36.1542H27.6916C28.5413 36.1542 29.2301 35.4654 29.2301 34.6157V10.7696H10.7686ZM18.445 20.4872L18.445 21.3755H21.7452C21.4924 20.8495 20.9546 20.4872 20.3331 20.4872H18.445ZM16.547 21.3755H16.9373L16.9373 19.8152C16.9372 19.5678 17.0564 19.3482 17.2405 19.2107C17.364 19.1106 17.5213 19.0507 17.6926 19.0507H20.3331C21.7567 19.0507 22.9511 20.0421 23.2587 21.3755H23.7171C24.0914 21.3755 24.3949 21.6789 24.3949 22.0533C24.3949 22.4277 24.0914 22.7312 23.7171 22.7312H23.2587C22.9517 24.0613 21.7597 25.0556 20.3331 25.0556H18.4452L18.4453 27.0376C18.4453 27.4539 18.1079 27.7915 17.6915 27.7915C17.2752 27.7915 16.9377 27.454 16.9376 27.0377L16.9374 22.7312H16.547C16.1726 22.7312 15.8692 22.4277 15.8692 22.0533C15.8692 21.6789 16.1726 21.3755 16.547 21.3755ZM20.3331 23.6191C20.9556 23.6191 21.4925 23.2561 21.7451 22.7312H18.4451L18.4451 23.6191H20.3331Z" fill="#025AE9"/>
</g>
</svg>
