<svg width="40" height="40" viewBox="0 0 40 40" fill="none" xmlns="http://www.w3.org/2000/svg">
<path fill-rule="evenodd" clip-rule="evenodd" d="M11.5376 9.92316C11.0702 9.92316 10.6914 10.302 10.6914 10.7693C10.6914 11.2366 11.0702 11.6155 11.5376 11.6155H34.6145C34.9968 11.6155 35.3068 11.9254 35.3068 12.3078V27.6924C35.3068 28.0747 34.9968 28.3847 34.6145 28.3847H20.0256H11.5376C11.0702 28.3847 10.6914 28.7635 10.6914 29.2308C10.6914 29.6982 11.0702 30.077 11.5376 30.077H20.0256H34.6145C35.9315 30.077 36.9991 29.0094 36.9991 27.6924V12.3078C36.9991 10.9908 35.9315 9.92316 34.6145 9.92316H11.5376ZM22.2913 17.4102L22.2914 18.2983H25.5911C25.3383 17.7724 24.8005 17.4102 24.1791 17.4102H22.2913ZM20.3934 18.2983H20.7837L20.7836 16.738C20.7836 16.4906 20.9028 16.271 21.0869 16.1335C21.2103 16.0336 21.3675 15.9737 21.5386 15.9737H24.1791C25.6026 15.9737 26.797 16.965 27.1047 18.2983H27.5634C27.9378 18.2983 28.2413 18.6018 28.2413 18.9762C28.2413 19.3505 27.9378 19.654 27.5634 19.654H27.1048C26.7978 20.9842 25.6058 21.9787 24.1791 21.9787H22.2916L22.2917 23.9604C22.2917 24.3767 21.9542 24.7142 21.5379 24.7143C21.1215 24.7143 20.784 24.3768 20.784 23.9605L20.7838 19.654H20.3934C20.019 19.654 19.7155 19.3505 19.7155 18.9762C19.7155 18.6018 20.019 18.2983 20.3934 18.2983ZM24.1791 20.5422C24.8017 20.5422 25.3387 20.179 25.5912 19.654H22.2915L22.2915 20.5422H24.1791Z" fill="#025AE9"/>
<path opacity="0.4" fill-rule="evenodd" clip-rule="evenodd" d="M7.69238 14.5381C7.22506 14.5381 6.84623 14.9169 6.84623 15.3842C6.84623 15.8516 7.22506 16.2304 7.69238 16.2304L12.3078 16.2304C12.7751 16.2304 13.1539 15.8516 13.1539 15.3842C13.1539 14.9169 12.7751 14.5381 12.3078 14.5381H7.69238ZM4.53868 19.9998C4.53868 19.5325 4.91752 19.1537 5.38484 19.1537L11.5387 19.1537C12.006 19.1537 12.3848 19.5325 12.3848 19.9998C12.3848 20.4671 12.006 20.846 11.5387 20.846L5.38484 20.846C4.91752 20.846 4.53868 20.4671 4.53868 19.9998ZM3 24.6149C3 24.1476 3.37884 23.7687 3.84615 23.7687L11.5385 23.7687C12.0058 23.7687 12.3846 24.1476 12.3846 24.6149C12.3846 25.0822 12.0058 25.4611 11.5385 25.4611H3.84615C3.37884 25.4611 3 25.0822 3 24.6149Z" fill="#0057E4"/>
</svg>
