<svg width="40" height="40" viewBox="0 0 40 40" fill="none" xmlns="http://www.w3.org/2000/svg">
<g id="GCash Padala">
<path id="shape_full" fill-rule="evenodd" clip-rule="evenodd" d="M6.99962 6.23064V8.38448H32.9996V6.23064H6.99962ZM6.99962 12.2306V10.0768H32.9996V12.2306H6.99962ZM6.99962 13.9229V16.0768H9.22788L9.23039 16.0768H30.7689L30.7714 16.0768H32.9996V13.9229H6.99962ZM32.3842 17.7691H33.0765C33.9687 17.7691 34.6919 17.0459 34.6919 16.1537V6.15372C34.6919 5.26156 33.9687 4.53833 33.0765 4.53833H6.9227C6.03055 4.53833 5.30732 5.26156 5.30732 6.15371V16.1537C5.30732 17.0459 6.03055 17.7691 6.9227 17.7691H7.61501V33.7691H5.38424C4.91692 33.7691 4.53809 34.1479 4.53809 34.6153C4.53809 35.0826 4.91692 35.4614 5.38424 35.4614H9.23039H30.7689H34.615C35.0823 35.4614 35.4612 35.0826 35.4612 34.6153C35.4612 34.1479 35.0823 33.7691 34.615 33.7691H32.3842V30.7029C34.9559 30.2968 36.9223 28.0703 36.9223 25.3845C36.9223 22.6987 34.9559 20.4722 32.3842 20.066V17.7691ZM30.6919 20.0659V17.7691H9.30732V33.7691H30.6919V30.7031C28.1199 30.2973 26.153 28.0706 26.153 25.3845C26.153 22.6984 28.1199 20.4716 30.6919 20.0659ZM16.9227 21.6153C15.6907 21.6153 14.6919 22.614 14.6919 23.846V30.3845C14.6919 30.5544 14.8297 30.6922 14.9996 30.6922H21.9227C22.0926 30.6922 22.2304 30.5544 22.2304 30.3845V23.846C22.2304 22.614 21.2316 21.6153 19.9996 21.6153H16.9227ZM12.9996 23.846C12.9996 21.6794 14.756 19.9229 16.9227 19.9229H19.9996C22.1663 19.9229 23.9227 21.6794 23.9227 23.846V30.3845C23.9227 31.4891 23.0273 32.3845 21.9227 32.3845H14.9996C13.8951 32.3845 12.9996 31.4891 12.9996 30.3845V23.846ZM34.2167 24.921C34.1685 24.9048 34.1178 24.8978 34.0686 24.8977L32.1168 24.8441C31.807 24.8366 31.5484 25.0791 31.5409 25.389C31.5333 25.6988 31.7759 25.9575 32.0857 25.965L32.0887 25.9658L33.3925 26.0001C33.1162 26.8353 32.2912 27.4152 31.359 27.3295C30.3592 27.2389 29.5815 26.3805 29.5845 25.3768C29.5877 24.2747 30.4984 23.3994 31.593 23.4301C31.9643 23.4409 32.3147 23.5545 32.6159 23.7534C32.8387 23.9018 33.1298 23.8813 33.3236 23.6969C33.5822 23.4543 33.5548 23.0301 33.2597 22.8328C32.4902 22.3115 31.5045 22.1557 30.5248 22.4676C29.679 22.7333 29.0006 23.3788 28.6836 24.2064C27.8695 26.3386 29.3975 28.4026 31.45 28.4602C33.1473 28.5079 34.5665 27.1681 34.6143 25.4707C34.6221 25.2331 34.4737 25.003 34.2167 24.921Z" fill="#025AE9"/>
<path id="shape_half" opacity="0.4" fill-rule="evenodd" clip-rule="evenodd" d="M18.4617 27.6923C19.7362 27.6923 20.7694 26.6591 20.7694 25.3846C20.7694 24.1101 19.7362 23.0769 18.4617 23.0769C17.1872 23.0769 16.154 24.1101 16.154 25.3846C16.154 26.6591 17.1872 27.6923 18.4617 27.6923ZM16.9232 28.4615C16.0736 28.4615 15.3848 29.1503 15.3848 30V31.5384H21.5386V30C21.5386 29.1503 20.8498 28.4615 20.0001 28.4615H16.9232Z" fill="#025AE9"/>
</g>
</svg>
