<svg width="40" height="40" viewBox="0 0 40 40" fill="none" xmlns="http://www.w3.org/2000/svg">
<g id="GCredit">
<path id="shape_half" opacity="0.4" fill-rule="evenodd" clip-rule="evenodd" d="M3.8454 24.6155C3.42057 24.6155 3.07617 24.9599 3.07617 25.3847C3.07617 25.8095 3.42057 26.1539 3.8454 26.1539H36.1531C36.5779 26.1539 36.9223 25.8095 36.9223 25.3847C36.9223 24.9599 36.5779 24.6155 36.1531 24.6155H3.8454ZM24.6149 27.6925C24.19 27.6925 23.8456 28.0369 23.8456 28.4617C23.8456 28.8865 24.19 29.2309 24.6149 29.2309L31.5379 29.2309C31.9628 29.2309 32.3072 28.8865 32.3072 28.4617C32.3072 28.0369 31.9628 27.6925 31.5379 27.6925L24.6149 27.6925Z" fill="#025AE9"/>
<path id="shape_full" fill-rule="evenodd" clip-rule="evenodd" d="M30.0002 6.53856C30.0002 8.45032 28.4504 10.0001 26.5387 10.0001C24.6269 10.0001 23.0771 8.45032 23.0771 6.53856C23.0771 4.62681 24.6269 3.07703 26.5387 3.07703C28.4504 3.07703 30.0002 4.62681 30.0002 6.53856ZM16.5386 13.8461C18.4504 13.8461 20.0002 12.2963 20.0002 10.3846C20.0002 8.47284 18.4504 6.92306 16.5386 6.92306C14.6269 6.92306 13.0771 8.47284 13.0771 10.3846C13.0771 12.2963 14.6269 13.8461 16.5386 13.8461ZM24.2307 20.7691C26.1425 20.7691 27.6922 19.2194 27.6922 17.3076C27.6922 15.3959 26.1425 13.8461 24.2307 13.8461C22.319 13.8461 20.7692 15.3959 20.7692 17.3076C20.7692 19.2194 22.319 20.7691 24.2307 20.7691ZM3 15.1647C3 13.1195 4.65768 11.4614 6.70305 11.4614H10C10.4673 11.4614 10.8462 11.8403 10.8462 12.3076C10.8462 12.7749 10.4673 13.1537 10 13.1537H6.70305C5.59251 13.1537 4.69231 14.054 4.69231 15.1647L4.69231 28.6812C4.69231 29.7918 5.59266 30.6922 6.7033 30.6922H8.51282H33.2967C34.4073 30.6922 35.3077 29.7918 35.3077 28.6812V15.1647C35.3077 14.0541 34.4073 13.1537 33.2967 13.1537H29.2308C28.7635 13.1537 28.3846 12.7749 28.3846 12.3076C28.3846 11.8403 28.7635 11.4614 29.2308 11.4614H33.2967C35.342 11.4614 37 13.1194 37 15.1647V28.6812C37 30.7265 35.342 32.3845 33.2967 32.3845H8.51282H6.7033C4.65802 32.3845 3 30.7265 3 28.6812L3 15.1647Z" fill="#025AE9"/>
</g>
</svg>
