<svg width="40" height="40" viewBox="0 0 40 40" fill="none" xmlns="http://www.w3.org/2000/svg">
<g id="GCrypto">
<path id="shape_full" fill-rule="evenodd" clip-rule="evenodd" d="M18.8164 5.50853C19.2068 5.47737 19.6016 5.46147 20.0004 5.46147C27.0701 5.46147 32.9646 10.4641 34.3122 17.1036C34.3726 17.4015 34.138 17.7552 33.701 17.7552H33.2234C32.8924 17.7552 32.5441 17.4954 32.4406 17.0593C31.5871 13.4635 29.2058 10.4606 26.0205 8.76363C25.7937 8.64282 25.5243 8.6316 25.2883 8.73315C25.0522 8.83469 24.8751 9.038 24.8069 9.28574L24.134 11.7289C22.8888 11.1101 21.4845 10.7622 20.0004 10.7622C16.6921 10.7622 13.7881 12.4891 12.1479 15.0855C11.8983 15.4806 12.0163 16.0032 12.4114 16.2528C12.8064 16.5024 13.329 16.3844 13.5786 15.9893C14.9207 13.8649 17.2947 12.4545 20.0004 12.4545C21.5521 12.4545 22.9923 12.9177 24.1925 13.7124C24.4185 13.8621 24.7027 13.8944 24.9566 13.7993C25.2105 13.7041 25.4034 13.493 25.4754 13.2316L26.1437 10.8052C28.4453 12.3328 30.1397 14.6932 30.794 17.4501C31.0508 18.5322 31.9942 19.4475 33.2234 19.4475H33.701C35.0729 19.4475 36.27 18.2417 35.9707 16.7669C34.4652 9.34964 27.8861 3.76917 20.0004 3.76917C19.5566 3.76917 19.1168 3.78685 18.6817 3.82159C17.2573 3.93531 16.4151 5.29427 16.6781 6.57817L16.7643 6.99854C17.028 8.28615 18.2399 9.03284 19.4244 8.97259C19.6151 8.96289 19.8071 8.95798 20.0004 8.95798C20.6694 8.95798 21.3239 9.01686 21.9591 9.1295C22.4192 9.21109 22.8584 8.90422 22.94 8.44408C23.0216 7.98394 22.7147 7.54478 22.2546 7.46319C21.5222 7.33333 20.7689 7.26567 20.0004 7.26567C19.7784 7.26567 19.5578 7.27131 19.3385 7.28246C18.8577 7.30692 18.493 7.00485 18.4221 6.65889L18.336 6.23852C18.2529 5.83272 18.5216 5.53207 18.8164 5.50853ZM14.622 7.70006C14.2498 6.28962 12.6137 5.43988 11.2517 6.30493C7.10983 8.93564 4.23831 13.3829 3.77303 18.5251C3.73092 18.9905 4.07407 19.4019 4.53949 19.444C5.0049 19.4862 5.41634 19.143 5.45845 18.6776C5.87459 14.0785 8.44315 10.0936 12.1591 7.73346C12.4256 7.56415 12.8656 7.67688 12.9857 8.13186L13.1189 8.63659C13.1958 8.92806 13.0704 9.29023 12.7412 9.51688C9.79546 11.5448 7.74345 14.7761 7.30496 18.5024C7.27672 18.7424 7.35243 18.983 7.513 19.1636C7.67357 19.3442 7.90368 19.4475 8.14532 19.4475H10.7446C10.7337 19.6303 10.7282 19.8145 10.7282 19.9999C10.7282 21.4299 11.055 22.7862 11.6388 23.9966C11.7918 24.3138 11.7729 24.6269 11.6448 24.8376L11.281 25.4357C11.1552 25.6424 10.9593 25.7393 10.7884 25.7479C10.6314 25.7557 10.4942 25.694 10.401 25.5341C9.96053 24.7786 9.60767 23.9665 9.35601 23.1117C9.0553 22.0903 8.13451 21.2517 6.96105 21.2517H6.45863C5.04603 21.2517 3.82775 22.5316 4.21526 24.0387C6.01813 31.0503 12.4025 36.2307 20.0004 36.2307C20.4441 36.2307 20.8839 36.213 21.319 36.1783C22.7435 36.0646 23.5856 34.7056 23.3226 33.4217L23.2365 33.0013C22.9727 31.7137 21.7608 30.967 20.5763 31.0273C20.3856 31.037 20.1936 31.0419 20.0004 31.0419C18.5702 31.0419 17.2052 30.7728 15.9522 30.2835C15.7067 30.1876 15.5337 29.847 15.7296 29.4822L16.2771 28.4625C17.4178 28.9613 18.6778 29.2377 20.0004 29.2377C20.5257 29.2377 21.0415 29.1941 21.5441 29.1101C22.0051 29.0331 22.3163 28.597 22.2393 28.1361C22.1623 27.6751 21.7262 27.3639 21.2652 27.4409C20.8544 27.5096 20.4319 27.5454 20.0004 27.5454C18.9154 27.5454 17.8858 27.319 16.9549 26.9119C16.2041 26.5835 15.2383 26.8198 14.8042 27.6283L14.2386 28.6816C13.6351 29.8057 14.0079 31.3409 15.3366 31.8598C16.7827 32.4246 18.3562 32.7342 20.0004 32.7342C20.2223 32.7342 20.443 32.7286 20.6622 32.7174C21.143 32.6929 21.5077 32.995 21.5786 33.341L21.6647 33.7613C21.7478 34.1671 21.4792 34.4678 21.1843 34.4913C20.794 34.5225 20.3991 34.5384 20.0004 34.5384C13.1892 34.5384 7.4684 29.895 5.85426 23.6172C5.77728 23.3179 6.006 22.944 6.45863 22.944H6.96105C7.27804 22.944 7.61236 23.1813 7.73259 23.5897C8.02334 24.5772 8.43083 25.5148 8.93898 26.3864C9.3735 27.1318 10.131 27.4752 10.8729 27.4381C11.6009 27.4017 12.3082 27.0035 12.7269 26.3151L13.0907 25.7169C13.5697 24.9293 13.5176 23.9965 13.163 23.2614C12.6874 22.2752 12.4206 21.1697 12.4206 19.9999C12.4206 19.5707 12.4565 19.1505 12.5253 18.7419C12.5667 18.4964 12.4978 18.2451 12.337 18.055C12.1762 17.8648 11.9399 17.7552 11.6909 17.7552H9.13892C9.72462 14.9308 11.3948 12.4983 13.7008 10.9108C14.5352 10.3364 15.0387 9.27925 14.7552 8.20479L14.622 7.70006ZM27.7944 14.9942C27.5402 14.6021 27.0162 14.4903 26.6241 14.7445C26.232 14.9987 26.1201 15.5226 26.3743 15.9148C27.1374 17.0919 27.5802 18.4932 27.5802 19.9999C27.5802 22.258 26.5847 24.2844 25.0028 25.6689C24.2977 26.2861 23.8666 27.296 24.1652 28.3183L25.3515 32.3808C25.7539 33.7585 27.3661 34.5672 28.7056 33.7224C32.1634 31.5414 34.7418 28.098 35.7855 24.0383C36.1731 22.5309 34.9544 21.2517 33.5421 21.2517H33.0397C31.8662 21.2517 30.9454 22.0904 30.6447 23.1117C30.1178 24.9016 29.1469 26.5043 27.8574 27.793C27.5268 28.1234 27.5267 28.6591 27.857 28.9897C28.1873 29.3202 28.7231 29.3204 29.0536 28.9901C30.5386 27.5061 31.6592 25.6578 32.2681 23.5897C32.3883 23.1813 32.7227 22.944 33.0397 22.944H33.5421C33.995 22.944 34.2234 23.3178 34.1465 23.6169C33.213 27.248 30.9044 30.3347 27.8028 32.291C27.538 32.458 27.1053 32.3492 26.976 31.9064L25.7896 27.8439C25.7102 27.572 25.808 27.2131 26.1174 26.9424C28.0498 25.251 29.2725 22.7676 29.2725 19.9999C29.2725 18.1564 28.7296 16.4368 27.7944 14.9942ZM25.6927 20.0767C25.6927 23.178 23.1786 25.6921 20.0773 25.6921C16.976 25.6921 14.4619 23.178 14.4619 20.0767C14.4619 16.9754 16.976 14.4613 20.0773 14.4613C23.1786 14.4613 25.6927 16.9754 25.6927 20.0767ZM20.0773 17.2592C18.5213 17.2592 17.26 18.5206 17.26 20.0765C17.26 21.6325 18.5213 22.8938 20.0773 22.8938C21.3937 22.8938 22.5007 21.9902 22.809 20.7688H20.5786C20.1963 20.7688 19.8863 20.4589 19.8863 20.0765C19.8863 19.6942 20.1963 19.3842 20.5786 19.3842H22.8176C23.571 19.3842 24.3907 20.0378 24.1795 20.9898C23.7622 22.8712 22.0849 24.2784 20.0773 24.2784C17.7566 24.2784 15.8753 22.3972 15.8753 20.0765C15.8753 17.7559 17.7566 15.8746 20.0773 15.8746C21.2529 15.8746 22.3167 16.3583 23.0786 17.1358C23.3462 17.4088 23.3418 17.8472 23.0687 18.1148C22.7956 18.3824 22.3573 18.3779 22.0897 18.1048C21.5775 17.5822 20.8657 17.2592 20.0773 17.2592Z" fill="#025AE9"/>
</g>
</svg>
