<svg width="40" height="40" viewBox="0 0 40 40" fill="none" xmlns="http://www.w3.org/2000/svg">
<g id="GForest">
<path id="shape_half" opacity="0.4" d="M30.0003 31.7308C30.0003 34.5984 27.9339 36.9231 25.3849 36.9231C22.8359 36.9231 20.7695 34.5984 20.7695 31.7308C20.7695 29.7606 22.9481 26.4128 24.3117 24.5103C24.846 23.7649 25.9239 23.7649 26.4582 24.5103C27.8218 26.4128 30.0003 29.7606 30.0003 31.7308Z" fill="#025AE9"/>
<path id="shape_full" fill-rule="evenodd" clip-rule="evenodd" d="M13.0769 10.0958C10.3193 12.1889 8.53846 15.502 8.53846 19.231C8.53846 22.3276 9.76645 25.1373 11.762 27.1998C12.2048 26.7506 12.6428 26.3044 13.0769 25.8605L13.0769 10.0958ZM14.6154 9.11048L14.6154 24.2821C15.5744 23.295 16.5212 22.3154 17.4685 21.3353L17.472 21.3317C17.8016 20.9906 18.1313 20.6495 18.4615 20.308L18.4615 7.87182C17.0874 8.05616 15.7904 8.484 14.6154 9.11048ZM20 7.76946L20 18.7197C21.2525 17.4291 22.5252 16.1254 23.8462 14.7911L23.8462 7.76946H20ZM30.9974 7.76946C28.9884 9.68204 27.1375 11.4949 25.3846 13.2456V7.76946H30.9974ZM20 32.3848C16.9119 32.3848 14.0724 31.3207 11.8281 29.5391C9.55785 31.8246 7.13749 34.2054 4.42763 36.7688C4.08814 37.0899 3.55259 37.075 3.23145 36.7355C2.91031 36.3961 2.92519 35.8605 3.26468 35.5394C5.93741 33.0111 8.32702 30.6615 10.5714 28.403C8.26601 26.0335 6.84616 22.7981 6.84616 19.231C6.84616 11.9663 12.7353 6.07715 20 6.07715H32.3077C33.1998 6.07715 33.9231 6.80038 33.9231 7.69253V11.5387C33.9231 12.006 33.5442 12.3848 33.0769 12.3848C32.6096 12.3848 32.2308 12.006 32.2308 11.5387V8.93186C27.0014 13.9073 22.8489 18.2036 18.6853 22.5114L18.6818 22.515L18.6817 22.5151L18.6817 22.5152L18.6815 22.5154C16.8302 24.4308 14.9766 26.3485 13.0265 28.3277C14.9584 29.8109 17.3762 30.6925 20 30.6925C25.7817 30.6925 30.564 26.4112 31.3487 20.8464H26.1538C25.6865 20.8464 25.3077 20.4675 25.3077 20.0002C25.3077 19.5329 25.6865 19.1541 26.1538 19.1541H32.284C32.5175 19.1541 32.7406 19.2505 32.9005 19.4206C33.0604 19.5907 33.143 19.8193 33.1286 20.0523C32.7042 26.9348 26.9889 32.3848 20 32.3848Z" fill="#025AE9"/>
</g>
</svg>
