<svg width="40" height="40" viewBox="0 0 40 40" fill="none" xmlns="http://www.w3.org/2000/svg">
<g id="GFunds_v2">
<path id="Subtract" fill-rule="evenodd" clip-rule="evenodd" d="M28.4621 19.2307C32.2856 19.2307 35.3852 16.1311 35.3852 12.3076C35.3852 8.48409 32.2856 5.38452 28.4621 5.38452C24.6386 5.38452 21.5391 8.48409 21.5391 12.3076C21.5391 16.1311 24.6386 19.2307 28.4621 19.2307ZM29.2683 7.92298C29.2683 7.58312 28.9928 7.3076 28.6529 7.3076C28.3131 7.3076 28.0376 7.58312 28.0376 7.92298V8.56341L28.0376 8.57214C26.7241 8.66771 25.8096 9.5377 25.8096 10.8155V10.8369C25.8096 12.3205 26.7278 12.7368 28.1505 13.1211C29.331 13.4413 29.5731 13.6548 29.5731 14.071V14.0924C29.5731 14.53 29.1897 14.7968 28.554 14.7968C27.8679 14.7968 27.2827 14.5407 26.748 14.1244C26.6471 14.0497 26.5058 13.975 26.304 13.975C25.9004 13.975 25.5775 14.3058 25.5775 14.7328C25.5775 14.989 25.6986 15.2238 25.8701 15.3519C26.5199 15.8454 27.2729 16.1352 28.0382 16.2212C28.0378 16.2303 28.0376 16.2394 28.0376 16.2486V16.889C28.0376 17.2288 28.3131 17.5044 28.6529 17.5044C28.9928 17.5044 29.2683 17.2288 29.2683 16.889V16.2486C29.2683 16.224 29.2669 16.1998 29.2641 16.176C30.3826 15.9439 31.1169 15.1616 31.1169 13.9323V13.9109C31.1169 12.6087 30.3097 12.0644 28.8769 11.6694C27.656 11.3386 27.3533 11.1784 27.3533 10.6875V10.6661C27.3533 10.3032 27.6661 10.015 28.2614 10.015C28.7458 10.015 29.2301 10.1965 29.7447 10.5167C29.8657 10.5914 29.9868 10.6341 30.1382 10.6341C30.5418 10.6341 30.8646 10.3032 30.8646 9.87625C30.8646 9.55604 30.6931 9.33189 30.5216 9.22515C30.1405 8.96917 29.7194 8.78224 29.2585 8.67359C29.265 8.63784 29.2683 8.60102 29.2683 8.56341V7.92298Z" fill="#025AE9"/>
<path id="shape_full" fill-rule="evenodd" clip-rule="evenodd" d="M11.5383 19.2308C15.3618 19.2308 18.4614 16.1312 18.4614 12.3077C18.4614 8.48421 15.3618 5.38464 11.5383 5.38464C7.7148 5.38464 4.61523 8.48421 4.61523 12.3077C4.61523 16.1312 7.7148 19.2308 11.5383 19.2308ZM10.336 10.0185V10.8546H13.6331C13.406 10.3611 12.9072 10.0185 12.3283 10.0185H10.336ZM8.11825 10.8546H8.8675V9.45656C8.8675 9.21768 8.98158 9.00544 9.15823 8.87135C9.27534 8.76479 9.43099 8.69983 9.6018 8.69983H12.3283C13.6436 8.69983 14.7435 9.62176 15.0172 10.8546H15.5359C15.8669 10.8546 16.1353 11.123 16.1353 11.454C16.1353 11.7851 15.8669 12.0534 15.5359 12.0534H15.0172C14.7436 13.2864 13.6436 14.2083 12.3283 14.2083H10.336V16.0245C10.336 16.43 10.0073 16.7588 9.60177 16.7588C9.19624 16.7588 8.8675 16.43 8.8675 16.0245L8.8675 12.0534H8.11825C7.78721 12.0534 7.51885 11.7851 7.51885 11.454C7.51885 11.123 7.78721 10.8546 8.11825 10.8546ZM12.3283 12.8897C12.9072 12.8897 13.4061 12.547 13.6332 12.0534H10.336V12.8897H12.3283ZM28.4619 35.3844C32.2854 35.3844 35.385 32.2848 35.385 28.4613C35.385 24.6378 32.2854 21.5382 28.4619 21.5382C24.6384 21.5382 21.5388 24.6378 21.5388 28.4613C21.5388 32.2848 24.6384 35.3844 28.4619 35.3844ZM28.8589 24.2529C27.2926 24.2529 26.1011 25.6594 26.3586 27.2044L26.5364 28.2707H25.6796C25.2973 28.2707 24.9873 28.5807 24.9873 28.963C24.9873 29.3454 25.2973 29.6553 25.6796 29.6553H26.6341C26.5096 30.3763 26.0513 31.0158 25.37 31.3565C25.2193 31.4318 25.1081 31.5548 25.0455 31.6979C25.0232 31.7486 25.0069 31.8024 24.9973 31.8585C24.9839 31.936 24.9836 32.0161 24.9975 32.0953C25.0541 32.4209 25.3379 32.6684 25.6796 32.6684H30.7014C31.0837 32.6684 31.3937 32.3585 31.3937 31.9761C31.3937 31.5938 31.0837 31.2838 30.7014 31.2838H27.4541C27.7688 30.797 27.9688 30.2396 28.0317 29.6553H29.697C30.0794 29.6553 30.3893 29.3454 30.3893 28.963C30.3893 28.5807 30.0794 28.2707 29.697 28.2707H27.9401L27.7244 26.9768C27.6076 26.2757 28.1482 25.6375 28.8589 25.6375C29.4941 25.6375 30.0091 26.1525 30.0091 26.7877V26.9539C30.0091 27.3363 30.319 27.6462 30.7014 27.6462C31.0837 27.6462 31.3937 27.3363 31.3937 26.9539V26.7877C31.3937 25.3878 30.2588 24.2529 28.8589 24.2529ZM18.4615 28.4614C18.4615 32.2849 15.362 35.3845 11.5385 35.3845C7.71495 35.3845 4.61538 32.2849 4.61538 28.4614C4.61538 24.6379 7.71495 21.5383 11.5385 21.5383C15.362 21.5383 18.4615 24.6379 18.4615 28.4614ZM15.106 24.8181C14.8357 24.5477 14.3974 24.5476 14.127 24.8179L11.5389 27.4054L8.95219 24.8181C8.68186 24.5477 8.24351 24.5476 7.97311 24.8179C7.70272 25.0883 7.70266 25.5266 7.97299 25.797L10.8472 28.6719V30.0768H10.0003C9.61795 30.0768 9.30799 30.3868 9.30799 30.7691C9.30799 31.1515 9.61795 31.4615 10.0003 31.4615H10.8472V32.9998C10.8472 33.3822 11.1572 33.6921 11.5395 33.6921C11.9219 33.6921 12.2318 33.3822 12.2318 32.9998V31.4615H13.0772C13.4596 31.4615 13.7695 31.1515 13.7695 30.7691C13.7695 30.3868 13.4596 30.0768 13.0772 30.0768H12.2318V28.6705L15.1059 25.7971C15.3763 25.5268 15.3764 25.0885 15.106 24.8181Z" fill="#025AE9"/>
<path id="shape_half" opacity="0.4" d="M11.8201 17.8254C11.6361 18.5193 11.5381 19.2482 11.5381 20C11.5381 20.7814 11.644 21.5381 11.8423 22.2564M17.7432 28.1573C18.4616 28.3556 19.2182 28.4615 19.9996 28.4615C20.781 28.4615 21.5377 28.3556 22.256 28.1573M28.1791 22.1746C28.3631 21.4807 28.4612 20.7518 28.4612 20C28.4612 19.2482 28.3631 18.5193 28.1791 17.8254M22.256 11.8426C21.5377 11.6444 20.781 11.5385 19.9996 11.5385C19.2182 11.5385 18.4616 11.6444 17.7432 11.8426" stroke="#025AE9" stroke-width="1.69231"/>
</g>
</svg>
