<svg width="40" height="40" viewBox="0 0 40 40" fill="none" xmlns="http://www.w3.org/2000/svg">
<g id="GGives">
<path id="shape_full" fill-rule="evenodd" clip-rule="evenodd" d="M8.46154 6.84607C8.92886 6.84607 9.30769 7.22491 9.30769 7.69222V8.38453H15.3077V7.69222C15.3077 7.22491 15.6865 6.84607 16.1538 6.84607C16.6212 6.84607 17 7.22491 17 7.69222V8.38453H23V7.69222C23 7.22491 23.3788 6.84607 23.8462 6.84607C24.3135 6.84607 24.6923 7.22491 24.6923 7.69222V8.38453H26.9231C28.2401 8.38453 29.3077 9.45216 29.3077 10.7691V15.3845C29.3077 15.8518 28.9289 16.2307 28.4615 16.2307C28.0202 16.2307 27.6577 15.8927 27.6188 15.4615H4.69231V29.9999C4.69231 30.3823 5.00226 30.6922 5.38462 30.6922H26.9231C27.3054 30.6922 27.6154 30.3823 27.6154 29.9999V29.2307C27.6154 28.7634 27.9942 28.3845 28.4615 28.3845C28.9289 28.3845 29.3077 28.7634 29.3077 29.2307V29.9999C29.3077 31.3169 28.2401 32.3845 26.9231 32.3845H5.38462C4.06763 32.3845 3 31.3169 3 29.9999V10.7691C3 9.45216 4.06763 8.38453 5.38462 8.38453H7.61538V7.69222C7.61538 7.22491 7.99422 6.84607 8.46154 6.84607ZM17 10.0768H23V10.7691C23 11.2365 23.3788 11.6153 23.8462 11.6153C24.3135 11.6153 24.6923 11.2365 24.6923 10.7691V10.0768H26.9231C27.3054 10.0768 27.6154 10.3868 27.6154 10.7691V13.7691H4.69231V10.7691C4.69231 10.3868 5.00226 10.0768 5.38462 10.0768H7.61538V10.7691C7.61538 11.2365 7.99422 11.6153 8.46154 11.6153C8.92886 11.6153 9.30769 11.2365 9.30769 10.7691V10.0768H15.3077V10.7691C15.3077 11.2365 15.6865 11.6153 16.1538 11.6153C16.6212 11.6153 17 11.2365 17 10.7691V10.0768ZM17.8977 21.6473C18.1703 21.3214 18.1271 20.8363 17.8012 20.5637C17.4753 20.2912 16.9902 20.3344 16.7176 20.6602L15.6751 21.9067L15.5692 21.7902C15.2835 21.4758 14.797 21.4526 14.4826 21.7384C14.1682 22.0241 14.145 22.5106 14.4308 22.825L15.1299 23.5942C15.2794 23.7587 15.4927 23.8505 15.715 23.8459C15.9372 23.8413 16.1466 23.7409 16.2892 23.5704L17.8977 21.6473ZM20.7692 18.4615C20.7692 18.0366 21.1136 17.6922 21.5385 17.6922H36.1538C36.5787 17.6922 36.9231 18.0366 36.9231 18.4615V26.1538C36.9231 26.5786 36.5787 26.923 36.1538 26.923H21.5385C21.1136 26.923 20.7692 26.5786 20.7692 26.1538V18.4615ZM28.9738 20.8847V20.2504H30.2723C30.7161 20.2504 31.1002 20.5091 31.2808 20.8847H28.9738ZM27.8837 20.8847H27.5687C27.3013 20.8847 27.0845 21.1015 27.0845 21.3689C27.0845 21.6363 27.3013 21.853 27.5687 21.853H27.8837V25.021C27.8837 25.3221 28.1277 25.5661 28.4287 25.5661C28.7297 25.5661 28.9738 25.3221 28.9738 25.021V23.5133H30.2723C31.2913 23.5133 32.1426 22.8031 32.3619 21.853H32.6897C32.9571 21.853 33.1739 21.6363 33.1739 21.3689C33.1739 21.1015 32.9571 20.8847 32.6897 20.8847H32.3618C32.1421 19.9324 31.289 19.2244 30.2723 19.2244H28.4281C28.2514 19.2244 28.0955 19.3138 28.0032 19.4498C27.9284 19.5431 27.8837 19.6616 27.8837 19.7905V20.8847ZM31.2808 21.853C31.1005 22.228 30.717 22.4873 30.2723 22.4873H28.9738V21.853H31.2808Z" fill="#025AE9"/>
<path id="shape_half" opacity="0.4" fill-rule="evenodd" clip-rule="evenodd" d="M6.8457 18.4615C6.8457 17.9942 7.22454 17.6154 7.69186 17.6154H9.23032C9.69764 17.6154 10.0765 17.9942 10.0765 18.4615C10.0765 18.9288 9.69764 19.3077 9.23032 19.3077H7.69186C7.22454 19.3077 6.8457 18.9288 6.8457 18.4615ZM6.8457 22.3077C6.8457 21.8403 7.22454 21.4615 7.69186 21.4615H9.23032C9.69764 21.4615 10.0765 21.8403 10.0765 22.3077C10.0765 22.775 9.69764 23.1538 9.23032 23.1538H7.69186C7.22454 23.1538 6.8457 22.775 6.8457 22.3077ZM7.69186 25.3077C7.22454 25.3077 6.8457 25.6865 6.8457 26.1538C6.8457 26.6211 7.22454 27 7.69186 27H9.23032C9.69764 27 10.0765 26.6211 10.0765 26.1538C10.0765 25.6865 9.69764 25.3077 9.23032 25.3077H7.69186ZM14.538 18.4615C14.538 17.9942 14.9168 17.6154 15.3842 17.6154H16.9226C17.3899 17.6154 17.7688 17.9942 17.7688 18.4615C17.7688 18.9288 17.3899 19.3077 16.9226 19.3077H15.3842C14.9168 19.3077 14.538 18.9288 14.538 18.4615ZM15.3842 25.3077C14.9168 25.3077 14.538 25.6865 14.538 26.1538C14.538 26.6211 14.9168 27 15.3842 27H16.9226C17.3899 27 17.7688 26.6211 17.7688 26.1538C17.7688 25.6865 17.3899 25.3077 16.9226 25.3077H15.3842Z" fill="#025AE9"/>
</g>
</svg>
