<svg width="40" height="40" viewBox="0 0 40 40" fill="none" xmlns="http://www.w3.org/2000/svg">
<g id="GInsure">
<path id="shape_half" opacity="0.4" fill-rule="evenodd" clip-rule="evenodd" d="M20.0003 23.077C22.9741 23.077 25.3849 20.6662 25.3849 17.6924C25.3849 14.7185 22.9741 12.3077 20.0003 12.3077C17.0265 12.3077 14.6157 14.7185 14.6157 17.6924C14.6157 20.6662 17.0265 23.077 20.0003 23.077ZM20.183 36.1539C23.8465 36.1539 27.6926 32.3077 29.2311 30.0032C28.6996 29.0529 28.2541 28.6326 27.5861 28.0024C27.465 27.8882 27.3367 27.7671 27.1992 27.6348C25.1712 25.6821 22.6324 24.6154 20.0131 24.6154C17.3938 24.6154 14.855 25.6821 12.8269 27.6348C12.696 27.7608 12.5718 27.8782 12.4531 27.9903C11.7852 28.6213 11.2931 29.0862 10.7695 30.0032C11.9234 31.9231 16.1541 36.1539 20.183 36.1539Z" fill="#025AE9"/>
<path id="shape_full" fill-rule="evenodd" clip-rule="evenodd" d="M32.3072 3.76917C32.7746 3.76917 33.1534 4.148 33.1534 4.61532V6.84609H35.3842C35.8515 6.84609 36.2303 7.22492 36.2303 7.69224C36.2303 8.15956 35.8515 8.5384 35.3842 8.5384H33.1534V10.7692C33.1534 11.2365 32.7746 11.6153 32.3072 11.6153C31.8399 11.6153 31.4611 11.2365 31.4611 10.7692V8.5384H29.2303C28.763 8.5384 28.3842 8.15956 28.3842 7.69224C28.3842 7.22492 28.763 6.84609 29.2303 6.84609H31.4611V4.61532C31.4611 4.148 31.8399 3.76917 32.3072 3.76917ZM9.23035 8.5384C8.84429 8.5384 8.53801 8.84692 8.53801 9.22559L8.53801 23.8461C8.53802 24.9783 8.95197 26.266 9.70245 27.5931C10.4488 28.913 11.5004 30.2223 12.7026 31.3826C13.9045 32.5428 15.2373 33.5351 16.531 34.2328C17.8374 34.9373 19.0408 35.3076 19.9995 35.3076C20.9682 35.3076 22.177 34.9545 23.4808 34.2796C24.7736 33.6105 26.1039 32.6538 27.3026 31.5197C29.7361 29.2171 31.4611 26.3484 31.4611 23.8461L31.4611 13.8461C31.4611 13.3788 31.8399 12.9999 32.3072 12.9999C32.7746 12.9999 33.1534 13.3788 33.1534 13.8461V23.8461C33.1534 27.0354 31.0322 30.3206 28.4657 32.7489C27.1644 33.9802 25.7063 35.0333 24.2587 35.7826C22.8221 36.5261 21.3386 36.9999 19.9995 36.9999C18.6506 36.9999 17.1617 36.4956 15.7277 35.7223C14.2811 34.9421 12.8254 33.8532 11.5273 32.6002C10.2294 31.3475 9.06951 29.9118 8.22936 28.4261C7.3933 26.9477 6.84571 25.3692 6.8457 23.8461L6.8457 9.22559C6.8457 7.9049 7.91705 6.84609 9.23035 6.84609H26.2815C26.7488 6.84609 27.1276 7.22492 27.1276 7.69224C27.1276 8.15956 26.7488 8.5384 26.2815 8.5384H9.23035Z" fill="#025AE9"/>
</g>
</svg>
