<svg width="40" height="40" viewBox="0 0 40 40" fill="none" xmlns="http://www.w3.org/2000/svg">
<g id="GLife">
<path id="shape_full" d="M20.4393 20H23.0767C23.0767 21.6994 21.6991 23.0769 19.9998 23.0769C18.3004 23.0769 16.9229 21.6994 16.9229 20C16.9229 18.3007 18.3004 16.9231 19.9998 16.9231C20.5602 16.9231 21.0857 17.0729 21.5382 17.3347" stroke="#025AE9" stroke-width="1.38462" stroke-linecap="round" stroke-linejoin="round"/>
<path id="shape_half" opacity="0.4" d="M17.4656 9.23071C18.5636 10.115 19.4388 11.0865 19.9996 11.8193C20.5604 11.0865 21.4356 10.115 22.5336 9.23071M34.4972 12.3076C34.7127 13.6833 34.6316 15.2581 34.2619 16.923M25.3842 30.0258C26.3565 29.3011 27.2543 28.521 28.0766 27.7016M16.1535 31.085C15.2483 30.5108 14.3982 29.8893 13.604 29.2307M5.73733 16.923C5.56109 16.1294 5.45045 15.3562 5.40625 14.6153" stroke="#025AE9" stroke-width="1.53846" stroke-linecap="round" stroke-linejoin="round"/>
<path id="shape_accent" fill-rule="evenodd" clip-rule="evenodd" d="M9.99985 3.84619C10.4247 3.84619 10.7691 4.19059 10.7691 4.61542V5.38465C10.7691 5.80949 10.4247 6.15388 9.99985 6.15388C9.57502 6.15388 9.23062 5.80949 9.23062 5.38465V4.61542C9.23062 4.19059 9.57502 3.84619 9.99985 3.84619ZM9.99985 12.3077C10.4247 12.3077 10.7691 12.6521 10.7691 13.077V13.8462C10.7691 14.271 10.4247 14.6154 9.99985 14.6154C9.57502 14.6154 9.23062 14.271 9.23062 13.8462V13.077C9.23062 12.6521 9.57502 12.3077 9.99985 12.3077ZM9.99985 8.38465C9.53253 8.38465 9.1537 8.76349 9.1537 9.23081C9.1537 9.69812 9.53253 10.077 9.99985 10.077C10.4672 10.077 10.846 9.69812 10.846 9.23081C10.846 8.76349 10.4672 8.38465 9.99985 8.38465ZM7.76908 9.23081C7.76908 7.99879 8.76783 7.00004 9.99985 7.00004C11.2319 7.00004 12.2306 7.99879 12.2306 9.23081C12.2306 10.4628 11.2319 11.4616 9.99985 11.4616C8.76783 11.4616 7.76908 10.4628 7.76908 9.23081ZM5.38447 8.46158C4.95963 8.46158 4.61523 8.80597 4.61523 9.23081C4.61523 9.65564 4.95963 10 5.38447 10H6.1537C6.57853 10 6.92293 9.65564 6.92293 9.23081C6.92293 8.80597 6.57853 8.46158 6.1537 8.46158H5.38447ZM13.846 8.46158C13.4212 8.46158 13.0768 8.80597 13.0768 9.23081C13.0768 9.65564 13.4212 10 13.846 10H14.6152C15.0401 10 15.3845 9.65564 15.3845 9.23081C15.3845 8.80597 15.0401 8.46158 14.6152 8.46158H13.846ZM6.379 12.8517C6.0786 12.5513 6.0786 12.0642 6.379 11.7638L6.8912 11.2516C7.1916 10.9512 7.67865 10.9512 7.97905 11.2516C8.27946 11.552 8.27946 12.0391 7.97905 12.3395L7.46686 12.8517C7.16645 13.1521 6.6794 13.1521 6.379 12.8517ZM12.0132 7.21747C11.7128 6.91706 11.7128 6.43001 12.0132 6.12961L12.5254 5.61741C12.8258 5.31701 13.3128 5.31701 13.6132 5.61741C13.9136 5.91782 13.9136 6.40487 13.6132 6.70527L13.101 7.21747C12.8006 7.51787 12.3136 7.51787 12.0132 7.21747ZM12.0206 12.3395L12.5328 12.8517C12.8332 13.1521 13.3203 13.1521 13.6207 12.8517C13.9211 12.5513 13.9211 12.0642 13.6207 11.7638L13.1085 11.2516C12.8081 10.9512 12.321 10.9512 12.0206 11.2516C11.7202 11.552 11.7202 12.0391 12.0206 12.3395ZM6.89865 7.21747C7.19906 7.51787 7.68611 7.51787 7.98651 7.21747C8.28691 6.91706 8.28691 6.43001 7.98651 6.12961L7.47431 5.61741C7.17391 5.31701 6.68686 5.31701 6.38646 5.61741C6.08605 5.91782 6.08605 6.40487 6.38646 6.70527L6.89865 7.21747ZM23.0768 5.23077C23.0768 4.8909 23.3523 4.61538 23.6922 4.61538H25.2553C25.5269 4.61538 25.7663 4.79341 25.8446 5.05348L26.3095 6.59895H33.1537C33.3421 6.59895 33.5201 6.68524 33.6368 6.83313C33.7535 6.98102 33.796 7.17421 33.7522 7.35743L32.9024 10.9123C32.8362 11.1892 32.5886 11.3846 32.3038 11.3846H26.9215C26.65 11.3846 26.4105 11.2066 26.3322 10.9465L25.2669 7.40533C25.264 7.39644 25.2613 7.38745 25.2588 7.37838L24.7978 5.84615H23.6922C23.3523 5.84615 23.0768 5.57064 23.0768 5.23077ZM26.6798 7.82972L27.379 10.1538H31.8182L32.3739 7.82972H26.6798ZM27.6921 13.5384C27.5222 13.5384 27.3845 13.6762 27.3845 13.8461C27.3845 14.0161 27.5222 14.1538 27.6921 14.1538C27.8621 14.1538 27.9998 14.0161 27.9998 13.8461C27.9998 13.6762 27.8621 13.5384 27.6921 13.5384ZM26.4614 13.8461C26.4614 13.1664 27.0124 12.6153 27.6921 12.6153C28.3719 12.6153 28.9229 13.1664 28.9229 13.8461C28.9229 14.5259 28.3719 15.0769 27.6921 15.0769C27.0124 15.0769 26.4614 14.5259 26.4614 13.8461ZM31.2306 13.8461C31.2306 13.6762 31.3684 13.5384 31.5383 13.5384C31.7082 13.5384 31.846 13.6762 31.846 13.8461C31.846 14.0161 31.7082 14.1538 31.5383 14.1538C31.3684 14.1538 31.2306 14.0161 31.2306 13.8461ZM31.5383 12.6153C30.8586 12.6153 30.3075 13.1664 30.3075 13.8461C30.3075 14.5259 30.8586 15.0769 31.5383 15.0769C32.218 15.0769 32.7691 14.5259 32.7691 13.8461C32.7691 13.1664 32.218 12.6153 31.5383 12.6153ZM36.1537 23.0769C36.1537 25.2011 34.4317 26.9231 32.3076 26.9231C30.1834 26.9231 28.4614 25.2011 28.4614 23.0769C28.4614 20.9528 30.1834 19.2308 32.3076 19.2308C34.4317 19.2308 36.1537 20.9528 36.1537 23.0769ZM33.7844 22.9611L31.7357 21.5583C31.6527 21.5022 31.5489 21.5719 31.5485 21.6841L31.5383 24.4687C31.5378 24.5808 31.6416 24.6516 31.7241 24.5961L33.7835 23.2138C33.8665 23.1582 33.867 23.0183 33.7844 22.9611ZM7.46126 19.9868C7.46126 19.4248 7.88301 19 8.46126 19C9.03947 19 9.5004 19.4636 9.5004 20.0257V20.7692H7.46126V19.9868ZM6.38433 20.7692V19.9868C6.38433 18.8212 7.29708 17.9231 8.46126 17.9231C9.62547 17.9231 10.5773 18.8601 10.5773 20.0257V20.7692H11.1692C11.407 20.7692 11.6059 20.9499 11.6286 21.1866L12.2048 27.1775C12.2309 27.4483 12.0181 27.6828 11.746 27.6832L5.07829 27.6916C4.80267 27.692 4.58818 27.4523 4.61907 27.1784L5.29571 21.179C5.32203 20.9456 5.51945 20.7692 5.75434 20.7692H6.38433ZM18.846 26.1538C19.4829 26.1538 19.9999 26.6699 19.9999 27.3077C19.9999 27.9445 19.4829 28.4615 18.846 28.4615C18.2092 28.4615 17.6922 27.9445 17.6922 27.3077C17.6922 26.6699 18.2092 26.1538 18.846 26.1538ZM23.7836 32.1631C22.8825 32.6802 22.342 31.9215 21.935 31.1909C21.9173 31.12 21.8914 31.0491 21.8532 30.9775C21.5383 30.3753 21.2098 29.7792 20.8655 29.1938C21.5376 28.983 22.1518 29.175 22.6351 29.8394C23.0291 30.38 23.9479 29.8622 23.5505 29.3149C22.6146 28.0283 21.2193 27.7098 19.8226 28.5234C19.7959 28.5388 19.7257 28.5773 19.6521 28.6178L19.6517 28.618C19.5659 28.6651 19.4755 28.7148 19.4437 28.7335C18.5753 29.2393 17.7689 29.1429 17.1663 28.3153C16.773 27.774 15.8535 28.2932 16.2516 28.8398C17.0198 29.8963 18.0995 30.2991 19.2351 29.9572C19.5916 30.5586 19.9297 31.1695 20.2548 31.787C19.7743 32.0286 19.3298 32.3283 18.9161 32.6816C18.8984 32.697 18.8827 32.7124 18.8677 32.7291C18.777 32.7739 18.698 32.8502 18.6421 32.9639C18.4329 33.3891 18.2234 33.8139 18.0138 34.2389L17.8084 34.6553C17.5099 35.2608 18.4703 35.699 18.7675 35.0969C19.0312 34.5612 19.2956 34.0254 19.5599 33.4897L19.5602 33.4891C19.5957 33.4697 19.6311 33.4463 19.6652 33.4169C20.1451 33.0074 20.6945 32.6756 21.2957 32.4695C21.3257 32.4588 21.3522 32.4474 21.3781 32.4334C22.1143 33.3506 23.1422 33.8558 24.3719 33.1506C25.0201 32.7786 24.4339 31.7897 23.7836 32.1631Z" fill="#F10000"/>
</g>
</svg>
