<svg width="40" height="40" viewBox="0 0 40 40" fill="none" xmlns="http://www.w3.org/2000/svg">
<g id="GLoans">
<path id="shape_full" fill-rule="evenodd" clip-rule="evenodd" d="M33.1535 10C33.1535 8.25822 31.7414 6.84619 29.9996 6.84619L5.38424 6.84619C4.91692 6.84619 4.53809 7.22503 4.53809 7.69235C4.53809 8.15967 4.91692 8.5385 5.38424 8.5385L29.9996 8.5385C30.8068 8.5385 31.4612 9.19285 31.4612 10V20.7693C31.4612 21.5764 30.8068 22.2308 29.9996 22.2308H13.0765C12.6092 22.2308 12.2304 22.6096 12.2304 23.077C12.2304 23.5443 12.6092 23.9231 13.0765 23.9231H29.9996C31.7414 23.9231 33.1535 22.5111 33.1535 20.7693L33.1535 10ZM21.5966 20C21.1393 20 20.7865 19.6658 20.7865 19.2448V14.6154H19.9996C19.5748 14.6154 19.2304 14.271 19.2304 13.8462C19.2304 13.4214 19.5748 13.077 19.9996 13.077H20.7865V11.5369C20.7865 11.1036 21.1393 10.7693 21.5966 10.7693H23.606C25.4972 10.7693 26.7575 11.6662 27.0273 13.077H27.6919C28.1168 13.077 28.4612 13.4214 28.4612 13.8462C28.4612 14.271 28.1168 14.6154 27.6919 14.6154H26.9474C26.5161 16.0327 25.096 16.9231 23.423 16.9231H22.3937V19.2448C22.3937 19.6658 22.0409 20 21.5966 20ZM25.3287 13.077C25.0685 12.4704 24.3992 12.1559 23.4753 12.1559H22.3937V13.077H25.3287ZM22.3937 14.6154H25.1989C24.8822 15.1482 24.2787 15.5488 23.4753 15.5488H22.3937V14.6154ZM13.0765 20.077C13.5439 20.077 13.9227 19.6981 13.9227 19.2308C13.9227 18.7635 13.5439 18.3847 13.0765 18.3847H11.5381C11.0708 18.3847 10.6919 18.7635 10.6919 19.2308C10.6919 19.6981 11.0708 20.077 11.5381 20.077H13.0765ZM13.9227 15.3847C13.9227 15.852 13.5439 16.2308 13.0765 16.2308H9.2304C8.76308 16.2308 8.38424 15.852 8.38424 15.3847C8.38424 14.9173 8.76308 14.5385 9.2304 14.5385H13.0765C13.5439 14.5385 13.9227 14.9173 13.9227 15.3847ZM13.0765 12.3847C13.5439 12.3847 13.9227 12.0058 13.9227 11.5385C13.9227 11.0712 13.5439 10.6923 13.0765 10.6923L6.9227 10.6923C6.45539 10.6923 6.07655 11.0712 6.07655 11.5385C6.07655 12.0058 6.45539 12.3847 6.9227 12.3847L13.0765 12.3847Z" fill="#025AE9"/>
<path id="shape_half" opacity="0.4" fill-rule="evenodd" clip-rule="evenodd" d="M31.9227 11.5386C33.8345 11.5386 35.3842 9.98877 35.3842 8.07702C35.3842 6.16526 33.8345 4.61548 31.9227 4.61548C30.0109 4.61548 28.4612 6.16526 28.4612 8.07702C28.4612 9.98877 30.0109 11.5386 31.9227 11.5386ZM13.4986 27.368C12.2354 26.9064 10.8051 26.8778 9.51581 27.2901L9.51582 27.2901L9.51002 27.2919L6.23039 28.3148V33.7693H10.9144C10.9466 33.7693 10.9787 33.7712 11.0107 33.7748L17.5333 34.5224L33.3553 29.1252C33.557 29.0564 33.6725 28.9402 33.7257 28.8424C33.7759 28.7501 33.7817 28.6598 33.7461 28.5687C33.6757 28.3886 33.3877 28.1552 32.9525 28.1964L32.9482 28.1968L26.6942 28.7575C26.6723 28.8146 26.6477 28.8702 26.6205 28.924C26.3943 29.3708 25.985 29.7229 25.4883 29.8923L17.899 32.4812C17.4567 32.632 16.9758 32.3958 16.825 31.9535C16.6741 31.5112 16.9103 31.0303 17.3526 30.8795L24.9419 28.2907C25.0107 28.2672 25.0584 28.2286 25.0867 28.195C25.0833 28.1935 25.0797 28.192 25.0759 28.1904C25.0728 28.1892 25.0696 28.1879 25.0662 28.1866C24.9822 28.1545 24.8721 28.139 24.7702 28.1486L17.7057 28.818C17.5803 28.8299 17.4538 28.8137 17.3354 28.7704L13.4986 27.368ZM32.7928 26.5117L26.3924 27.0855C26.18 26.8529 25.9164 26.6998 25.6697 26.6056C25.3341 26.4775 24.9621 26.4306 24.6106 26.4639L17.7366 27.1152L14.0795 25.7786C12.4627 25.1876 10.6479 25.152 9.00329 25.6773L9.00033 25.6782L5.13229 26.8846C4.77882 26.9949 4.53809 27.3221 4.53809 27.6924L4.53809 34.6155C4.53809 35.0828 4.91692 35.4616 5.38424 35.4616H10.8661L17.5298 36.2254C17.6544 36.2396 17.7807 36.226 17.8994 36.1856L33.9017 30.7268C35.0282 30.3426 35.7968 29.1668 35.3223 27.9527C34.9251 26.9365 33.8297 26.4144 32.7952 26.5115L32.7928 26.5117Z" fill="#025AE9"/>
</g>
</svg>
