<svg width="40" height="40" viewBox="0 0 40 40" fill="none" xmlns="http://www.w3.org/2000/svg">
<path fill-rule="evenodd" clip-rule="evenodd" d="M28.8434 13.9231C28.3761 13.9231 27.9973 13.5443 27.9973 13.077C27.9973 12.6097 28.3761 12.2308 28.8434 12.2308H31.9204C32.3877 12.2308 32.7665 12.6097 32.7665 13.077V16.1539C32.7665 16.6212 32.3877 17.0001 31.9204 17.0001C31.4531 17.0001 31.0742 16.6212 31.0742 16.1539V15.1198L22.5187 23.6753C22.1882 24.0058 21.6525 24.0058 21.3221 23.6753L16.1511 18.5044L7.51869 27.1368C7.18825 27.4673 6.6525 27.4673 6.32205 27.1368C5.99161 26.8064 5.99161 26.2706 6.32205 25.9402L15.5528 16.7094C15.8833 16.379 16.419 16.379 16.7495 16.7094L21.9204 21.8803L29.8776 13.9231H28.8434Z" fill="#025AE9"/>
<path opacity="0.4" fill-rule="evenodd" clip-rule="evenodd" d="M20.0006 6.23076C12.3961 6.23076 6.23137 12.3955 6.23137 20C6.23137 20.4901 6.25695 20.974 6.30678 21.4504C6.35541 21.9152 6.01804 22.3314 5.55326 22.38C5.08848 22.4286 4.67228 22.0913 4.62366 21.6265C4.56772 21.0917 4.53906 20.549 4.53906 20C4.53906 11.4608 11.4614 4.53845 20.0006 4.53845C24.0925 4.53845 27.8147 6.12911 30.5797 8.72418C30.9204 9.04399 30.9374 9.57947 30.6176 9.92022C30.2978 10.261 29.7623 10.2779 29.4215 9.95813C26.9578 7.64581 23.6454 6.23076 20.0006 6.23076ZM34.616 19.1538C35.0833 19.1538 35.4621 19.5327 35.4621 20C35.4621 28.5392 28.5398 35.4615 20.0006 35.4615C15.9087 35.4615 12.1865 33.8709 9.42153 31.2758C9.08079 30.956 9.06382 30.4205 9.38363 30.0798C9.70344 29.739 10.2389 29.722 10.5797 30.0419C13.0434 32.3542 16.3558 33.7692 20.0006 33.7692C27.6051 33.7692 33.7698 27.6045 33.7698 20C33.7698 19.5327 34.1487 19.1538 34.616 19.1538ZM19.0635 7.92681L18.5701 10.6337C18.5175 10.9226 18.1884 11.0655 17.9414 10.9068C17.6642 10.7288 17.3004 10.9316 17.306 11.261L17.3565 14.2109C17.3579 14.2928 17.3811 14.3728 17.4236 14.4428L18.4199 16.0815C18.4462 16.1248 18.4795 16.1634 18.5184 16.1959L20.7693 18.0768L22.0683 19.0362C22.226 19.1526 22.4401 19.1568 22.6022 19.0464L23.3982 18.5046C23.4402 18.476 23.4772 18.4407 23.5077 18.4L24.3898 17.2239C24.5212 17.0487 24.5114 16.8052 24.3663 16.6412L24.0087 16.2369C23.9565 16.1779 23.9202 16.1064 23.9034 16.0294L23.6427 14.8325C23.5802 14.5456 23.2465 14.414 23.005 14.581C22.734 14.7684 22.3635 14.5782 22.3579 14.2488L22.3334 12.8211C22.3322 12.7494 22.3477 12.6785 22.3786 12.6139L23.0273 11.259C23.0583 11.1944 23.0737 11.1234 23.0725 11.0518L23.0402 9.16581C23.037 8.97712 22.9192 8.8094 22.7428 8.74231L19.6816 7.57818C19.4119 7.4756 19.1152 7.64292 19.0635 7.92681ZM15.3994 21.7179L11.8448 25.2985C11.5787 25.5665 11.7296 26.0233 12.1031 26.08L12.5866 26.1534C12.7056 26.1714 12.8271 26.1423 12.9249 26.0721L16.8983 23.2211C17.0316 23.1255 17.1041 22.9661 17.0887 22.8027L16.9667 21.5126C16.9343 21.1711 16.5539 20.9829 16.2628 21.1646L15.4826 21.6515C15.4524 21.6703 15.4245 21.6926 15.3994 21.7179ZM21.7475 25.4991L21.0919 25.0619C20.8782 24.9195 20.5893 24.9789 20.4491 25.1941L19.1941 27.1208C19.1765 27.1479 19.156 27.1731 19.133 27.1959L18.6533 27.6735C18.5911 27.7355 18.5479 27.8139 18.5286 27.8995L17.7382 31.42C17.6781 31.6874 17.9714 31.894 18.203 31.7473L18.7836 31.3797C18.8689 31.3256 18.9342 31.245 18.9694 31.1502L19.7364 29.0823C19.7596 29.0197 19.7962 28.9629 19.8435 28.9158L20.1454 28.6152C20.2862 28.4751 20.5009 28.4407 20.6783 28.5299L22.1542 29.2719C22.2636 29.3269 22.3466 29.4231 22.3851 29.5393L22.7175 30.5439C22.773 30.7118 22.9196 30.8332 23.0949 30.8565L24.4368 31.0348C24.5915 31.0553 24.746 30.9964 24.8477 30.8781L25.5593 30.0498C25.6649 29.927 25.6983 29.7578 25.6475 29.604L25.2901 28.5239C25.2614 28.4374 25.2591 28.3444 25.2832 28.2565L25.5679 27.2218C25.5856 27.1574 25.6713 27.1447 25.707 27.2011L26.2059 27.9888C26.3258 28.1782 26.6016 28.1799 26.7238 27.9919L27.1336 27.3616L27.7496 26.4142C27.786 26.3582 27.8098 26.295 27.8194 26.2289L28.1337 24.0629C28.1592 23.8874 28.0819 23.7129 27.9349 23.6139L26.1357 22.4014C25.9064 22.2468 25.5935 22.3273 25.4672 22.5733L24.6511 24.1622C24.6283 24.2066 24.5917 24.2425 24.5468 24.2643L21.9765 25.5146C21.9028 25.5504 21.8157 25.5445 21.7475 25.4991Z" fill="#025AE9"/>
</svg>
