<svg width="40" height="40" viewBox="0 0 40 40" fill="none" xmlns="http://www.w3.org/2000/svg">
<g id="Load">
<path id="shape_half" opacity="0.4" fill-rule="evenodd" clip-rule="evenodd" d="M16.1533 32.3076C16.1533 31.8827 16.5633 31.5383 17.0691 31.5383H22.9299C23.4356 31.5383 23.8456 31.8827 23.8456 32.3076C23.8456 32.7324 23.4356 33.0768 22.9299 33.0768H17.0691C16.5633 33.0768 16.1533 32.7324 16.1533 32.3076Z" fill="#025AE9"/>
<path id="shape_full" fill-rule="evenodd" clip-rule="evenodd" d="M30.8456 6.7033C30.8456 4.65802 29.1876 3 27.1423 3H12.8566C10.8113 3 9.15332 4.65802 9.15332 6.7033V8.51282V33.2967C9.15332 35.342 10.8113 37 12.8566 37H27.1423C29.1871 37 30.8456 35.3438 30.8456 33.2981V33.1202V33.0294V32.9836V32.9721V32.9606V32.9375V32.5574V32.5452V32.533V32.5086V32.4963V32.484V32.4717V32.4594V32.4347V32.4224V32.41V32.3602V32.2599V32.2092V32.1965V32.1838V32.1711V32.1583V32.1327V32.1199V32.1071V32.0814V32.0556V31.9517V31.7404V29.888V29.6368V29.3814V29.3492V29.333V29.3169V29.2521V29.2196V29.2033V29.1871V29.1218V29.0562V29.0398V29.0233V28.9904V28.9243V28.9078V28.8912V28.858V28.7914V28.758V28.7413V28.7246V28.6575V28.5901V28.5732V28.5563V28.5225V28.4547V28.4206V28.4036V28.3865V28.3182V28.2496V28.2324V28.2152V28.1807V28.0422V28.0248V28.0075V27.9726V27.9028V27.8326V27.8151V27.7975V27.7623V27.6208V27.5853V27.5675V27.5498V27.4784V27.335V27.299V27.281V27.263V27.1907V27.0453V26.9723V26.954V26.9357V26.899V26.7518V26.6036V26.585V26.5664V26.5292V26.4545V26.3044V26.1534V26.0015V25.9634V25.9443V25.9252V25.8486V25.7719V25.6949V25.5402V25.4625V25.4236V25.4041V25.3846C30.8456 24.9173 30.4668 24.5385 29.9995 24.5385C29.5322 24.5385 29.1533 24.9173 29.1533 25.3846V25.4041V25.4236V25.4625V25.5402V25.6949V25.7719V25.8486V25.9252V25.9443V25.9634V26.0015V26.1534V26.3044V26.4545V26.5292V26.5664V26.585V26.6036V26.7518V26.899V26.9357V26.954V26.9723V27.0453V27.1907V27.263V27.281V27.299V27.335V27.4784V27.5498V27.5675V27.5853V27.6208V27.7623V27.7975V27.8151V27.8326V27.9028V27.9726V28.0075V28.0248V28.0422V28.1807V28.2152V28.2324V28.2496V28.3182V28.3865V28.4036V28.4206V28.4547V28.5225V28.5563V28.5732V28.5901V28.6575V28.7246V28.7413V28.758V28.7914V28.858V28.8912V28.9078V28.9243V28.9904V29.0233V29.0398V29.0562V29.1218V29.1871V29.2033V29.2196V29.2521V29.3169V29.333V29.3492V29.3814V29.6368V29.888V31.7404V31.9517V32.0556V32.0814V32.1071V32.1199V32.1327V32.1583V32.1711V32.1838V32.1965V32.2092V32.2599V32.3602V32.41V32.4224V32.4347V32.4594V32.4717V32.484V32.4963V32.5086V32.533V32.5452V32.5574V32.9375V32.9606V32.9721V32.9836V33.0294V33.1202V33.2981C29.1533 34.4082 28.2535 35.3077 27.1423 35.3077H12.8566C11.746 35.3077 10.8456 34.4073 10.8456 33.2967V8.51282V6.7033C10.8456 5.59266 11.746 4.69231 12.8566 4.69231H27.1423C28.253 4.69231 29.1533 5.59266 29.1533 6.7033V13.0769C29.1533 13.5442 29.5322 13.9231 29.9995 13.9231C30.4668 13.9231 30.8456 13.5442 30.8456 13.0769V6.7033ZM27.1479 18.6863C26.8475 18.9867 26.8475 19.4737 27.1479 19.7741L29.5166 22.1428C29.817 22.4432 30.3041 22.4432 30.6045 22.1428C30.9049 21.8424 30.9049 21.3554 30.6045 21.055L29.5798 20.0303H36.1531C36.578 20.0303 36.9224 19.6859 36.9224 19.2611C36.9224 18.8362 36.578 18.4918 36.1531 18.4918H29.5181L30.6045 17.4054C30.9049 17.105 30.9049 16.618 30.6045 16.3175C30.3041 16.0171 29.817 16.0171 29.5166 16.3175L27.1479 18.6863ZM16.9226 24.629C16.9226 25.0499 17.2675 25.3842 17.7145 25.3842C18.1488 25.3842 18.4937 25.0499 18.4937 24.629V22.3073H19.4999C21.1354 22.3073 22.5236 21.4169 22.9452 19.9995H23.8454C24.2703 19.9995 24.6147 19.6552 24.6147 19.2303C24.6147 18.8055 24.2703 18.4611 23.8454 18.4611H23.0233C22.7595 17.0503 21.5276 16.1535 19.6787 16.1535H17.7145C17.2675 16.1535 16.9226 16.4878 16.9226 16.9211V18.4611H16.1531C15.7283 18.4611 15.3839 18.8055 15.3839 19.2303C15.3839 19.6552 15.7283 19.9995 16.1531 19.9995H16.9226V24.629ZM19.551 17.5401C20.4542 17.5401 21.1084 17.8546 21.3628 18.4611H18.4937V17.5401H19.551ZM21.236 19.9995H18.4937V20.933H19.551C20.3364 20.933 20.9264 20.5323 21.236 19.9995Z" fill="#025AE9"/>
</g>
</svg>
