<svg width="40" height="40" viewBox="0 0 40 40" fill="none" xmlns="http://www.w3.org/2000/svg">
<path fill-rule="evenodd" clip-rule="evenodd" d="M8.69008 6.49042C8.82146 6.32619 9.02037 6.23059 9.23068 6.23059H15.3845C15.5948 6.23059 15.7937 6.32619 15.9251 6.49042L19.0021 10.3366C19.2043 10.5894 19.2043 10.9487 19.0021 11.2015L12.8482 18.8938C12.7168 19.0581 12.5179 19.1537 12.3076 19.1537C12.0973 19.1537 11.8984 19.0581 11.767 18.8938L5.61316 11.2015C5.41088 10.9487 5.41088 10.5894 5.61316 10.3366L8.69008 6.49042ZM9.56342 7.61521L7.04035 10.7691L12.3076 17.3531L17.5749 10.7691L15.0518 7.61521H9.56342ZM32.6882 9.23077H33.8463C34.2712 9.23077 34.6156 9.57517 34.6156 10V13.0769C34.6156 13.5018 34.2712 13.8461 33.8464 13.8462V18.4615C33.8464 18.8863 33.502 19.2307 33.0771 19.2307H22.3079C21.8831 19.2307 21.5387 18.8863 21.5387 18.4615V13.8462H21.5387C21.1138 13.8462 20.7694 13.5018 20.7694 13.0769V10C20.7694 9.57517 21.1138 9.23077 21.5387 9.23077H22.698C22.9954 10.1041 23.8154 10.7539 24.8101 10.7692H22.3079V12.3077H25.0002V13.8462H23.0771V17.6922H32.3079V13.8462H30.3792L30.3811 12.3077H33.0771V10.7692H30.5571C30.8549 10.767 31.1372 10.7079 31.3949 10.603C31.1324 10.7098 30.8443 10.769 30.5404 10.769H28.4887C28.4802 10.7693 28.4716 10.7694 28.4631 10.7694H24.8468C23.4455 10.7694 22.3797 9.51087 22.6105 8.12865C22.9142 6.30988 25.1465 5.59503 26.4502 6.89902L27.6934 8.14248L28.9372 6.89869C30.2412 5.59475 32.4735 6.31015 32.7767 8.12911C32.8409 8.51413 32.8044 8.88952 32.6882 9.23077ZM28.7813 9.23054L28.7812 9.23044L30.0251 7.98655C30.4442 7.56744 31.1617 7.79738 31.2592 8.38203C31.3332 8.8262 30.9907 9.23054 30.5404 9.23054H28.7813ZM26.6056 9.23034L25.3623 7.98677C24.9432 7.56758 24.2256 7.79739 24.1279 8.38205C24.0547 8.82073 24.3877 9.22066 24.8297 9.23077H25.7694V9.23085H25.0002V9.23097H26.605L26.6056 9.23034ZM12.3079 24.2307C13.4513 24.2307 14.4005 23.3991 14.5836 22.3077L17.6925 22.3077V32.3077L14.5836 32.3077C14.4005 31.2162 13.4513 30.3846 12.3079 30.3846C11.1644 30.3846 10.2152 31.2162 10.0321 32.3077L6.92323 32.3077L6.92323 22.3077H10.0321C10.2152 23.3991 11.1644 24.2307 12.3079 24.2307ZM17.6925 20.7692L13.9379 20.7692C13.4625 20.7692 13.0771 21.1546 13.0771 21.63V21.9231C13.0771 22.3479 12.7327 22.6923 12.3079 22.6923C11.8831 22.6923 11.5387 22.3479 11.5387 21.9231V21.63C11.5387 21.1546 11.1533 20.7692 10.6779 20.7692H6.92323C6.07356 20.7692 5.38477 21.458 5.38477 22.3077L5.38477 32.3077C5.38477 33.1573 6.07356 33.8461 6.92323 33.8461L10.7394 33.8461C11.1808 33.8461 11.5387 33.4883 11.5387 33.0468V32.6922C11.5387 32.2674 11.8831 31.923 12.3079 31.923C12.7327 31.923 13.0771 32.2674 13.0771 32.6922V33.0468C13.0771 33.4883 13.4349 33.8461 13.8764 33.8461L17.6925 33.8461C18.5421 33.8461 19.2309 33.1573 19.2309 32.3077V22.3077C19.2309 21.458 18.5421 20.7692 17.6925 20.7692ZM28.3699 20.4045C28.2358 20.1553 27.9756 19.9999 27.6927 19.9999C27.4097 19.9999 27.1495 20.1553 27.0154 20.4045L24.7544 24.6034L22.0111 22.4696C21.7624 22.2762 21.4209 22.254 21.1492 22.4136C20.8775 22.5732 20.7307 22.8823 20.7785 23.1937L22.3161 33.1938C22.3738 33.5691 22.6967 33.8461 23.0764 33.8461H32.3072C32.6868 33.8461 33.0097 33.5692 33.0675 33.1939L34.6068 23.1939C34.6547 22.8824 34.5079 22.5733 34.2362 22.4136C33.9645 22.254 33.623 22.2762 33.3742 22.4697L30.6309 24.6034L28.3699 20.4045ZM25.6777 26.1338L27.6927 22.3917L29.7077 26.1338C29.815 26.3332 30.0047 26.4751 30.2262 26.5218C30.4477 26.5685 30.6786 26.5153 30.8573 26.3763L32.792 24.8716L31.6473 32.3077H23.7364L22.593 24.8713L24.5281 26.3763C24.7068 26.5153 24.9377 26.5685 25.1592 26.5218C25.3807 26.4751 25.5703 26.3332 25.6777 26.1338Z" fill="#025AE9"/>
<g opacity="0.4">
<path d="M25.7695 9.61536V15.3846L27.6932 13.8461L29.6082 15.3846L29.6157 9.61536" stroke="#025AE9" stroke-width="1.53846" stroke-linejoin="round"/>
<path d="M12.3082 6.92285L10 10.769" stroke="#025AE9" stroke-width="1.38462" stroke-linecap="round" stroke-linejoin="round"/>
<path d="M12.3075 6.92285L14.6152 10.769" stroke="#025AE9" stroke-width="1.38462" stroke-linecap="round" stroke-linejoin="round"/>
<path d="M14.6153 10.769L12.3076 18.4614" stroke="#025AE9" stroke-width="1.38462" stroke-linecap="round" stroke-linejoin="round"/>
<path d="M9.99992 10.769L12.3076 18.4614" stroke="#025AE9" stroke-width="1.38462" stroke-linecap="round" stroke-linejoin="round"/>
<path d="M6.1543 10.7688H18.4625" stroke="#025AE9" stroke-width="1.38462" stroke-linecap="round" stroke-linejoin="round"/>
<path d="M25.7695 9.99963H29.6157" stroke="#025AE9" stroke-width="1.53846"/>
<path d="M18.4619 28.4615L6.15422 28.4615" stroke="#025AE9" stroke-width="1.23077" stroke-linecap="round" stroke-linejoin="bevel" stroke-dasharray="1.54 2.31"/>
<path d="M27.4825 27.1856L26.2888 28.6777C26.2102 28.7761 26.2102 28.9158 26.2888 29.0141L27.4825 30.5062C27.5903 30.6409 27.7952 30.6409 27.903 30.5062L29.0967 29.0141C29.1753 28.9158 29.1753 28.7761 29.0967 28.6777L27.903 27.1856C27.7952 27.0509 27.5903 27.0509 27.4825 27.1856Z" fill="#025AE9"/>
<path d="M32.0638 28.321L30.9182 29.4667C30.8308 29.5541 30.8141 29.6897 30.8777 29.7956L31.5651 30.9413C31.6917 31.1523 32.0117 31.0969 32.06 30.8555L32.5182 28.5642C32.5705 28.303 32.2522 28.1327 32.0638 28.321Z" fill="#025AE9"/>
<path d="M23.3209 28.321L24.4666 29.4667C24.554 29.5541 24.5706 29.6897 24.5071 29.7956L23.8197 30.9413C23.6931 31.1523 23.3731 31.0969 23.3248 30.8555L22.8665 28.5642C22.8143 28.303 23.1326 28.1327 23.3209 28.321Z" fill="#025AE9"/>
</g>
</svg>
