<svg width="40" height="40" viewBox="0 0 40 40" fill="none" xmlns="http://www.w3.org/2000/svg">
<g id="Payment Schedules">
<path id="shape_full" fill-rule="evenodd" clip-rule="evenodd" d="M13.8628 7.69238C14.2877 7.69238 14.6321 8.03678 14.6321 8.46161V9.15873H23.507V8.46161C23.507 8.03678 23.8513 7.69238 24.2762 7.69238C24.701 7.69238 25.0454 8.03678 25.0454 8.46161V9.15873H27.6921C29.3914 9.15873 30.769 10.5363 30.769 12.2357V16.1539C30.769 16.5788 30.4246 16.9232 29.9998 16.9232C29.5749 16.9232 29.2305 16.5788 29.2305 16.1539L29.2305 15.3847H8.46131V29.1587C8.46131 30.0084 9.1501 30.6972 9.99977 30.6972H20.769C21.1938 30.6972 21.5382 31.0416 21.5382 31.4664C21.5382 31.8913 21.1938 32.2357 20.769 32.2357H9.99977C8.30043 32.2357 6.92285 30.8581 6.92285 29.1587V14.6155V12.2357C6.92285 10.5363 8.30044 9.15873 9.99977 9.15873H13.0936V8.46161C13.0936 8.03678 13.438 7.69238 13.8628 7.69238ZM23.507 10.6972V11.827C23.507 12.2518 23.8513 12.5962 24.2762 12.5962C24.701 12.5962 25.0454 12.2518 25.0454 11.827V10.6972H27.6921C28.5417 10.6972 29.2305 11.386 29.2305 12.2357L29.2305 13.8462H8.46131V12.2357C8.46131 11.386 9.15011 10.6972 9.99977 10.6972H13.0936V11.827C13.0936 12.2518 13.438 12.5962 13.8628 12.5962C14.2877 12.5962 14.6321 12.2518 14.6321 11.827V10.6972H23.507Z" fill="#025AE9"/>
<path id="shape_half" opacity="0.4" fill-rule="evenodd" clip-rule="evenodd" d="M10.6924 19.2312C10.6924 18.7638 11.0712 18.385 11.5385 18.385H12.3078C12.7751 18.385 13.1539 18.7638 13.1539 19.2312C13.1539 19.6985 12.7751 20.0773 12.3078 20.0773H11.5385C11.0712 20.0773 10.6924 19.6985 10.6924 19.2312ZM10.6924 23.0773C10.6924 22.61 11.0712 22.2312 11.5385 22.2312H12.3078C12.7751 22.2312 13.1539 22.61 13.1539 23.0773C13.1539 23.5446 12.7751 23.9235 12.3078 23.9235H11.5385C11.0712 23.9235 10.6924 23.5446 10.6924 23.0773ZM11.5385 26.0773C11.0712 26.0773 10.6924 26.4562 10.6924 26.9235C10.6924 27.3908 11.0712 27.7696 11.5385 27.7696H12.3078C12.7751 27.7696 13.1539 27.3908 13.1539 26.9235C13.1539 26.4562 12.7751 26.0773 12.3078 26.0773H11.5385ZM15.3078 19.2312C15.3078 18.7638 15.6866 18.385 16.1539 18.385H16.9232C17.3905 18.385 17.7693 18.7638 17.7693 19.2312C17.7693 19.6985 17.3905 20.0773 16.9232 20.0773H16.1539C15.6866 20.0773 15.3078 19.6985 15.3078 19.2312ZM16.1539 22.2312C15.6866 22.2312 15.3078 22.61 15.3078 23.0773C15.3078 23.5446 15.6866 23.9235 16.1539 23.9235H16.9232C17.3905 23.9235 17.7693 23.5446 17.7693 23.0773C17.7693 22.61 17.3905 22.2312 16.9232 22.2312H16.1539ZM15.3078 26.9235C15.3078 26.4562 15.6866 26.0773 16.1539 26.0773H16.9232C17.3905 26.0773 17.7693 26.4562 17.7693 26.9235C17.7693 27.3908 17.3905 27.7696 16.9232 27.7696H16.1539C15.6866 27.7696 15.3078 27.3908 15.3078 26.9235ZM20.7693 18.385C20.302 18.385 19.9232 18.7638 19.9232 19.2312C19.9232 19.6985 20.302 20.0773 20.7693 20.0773H21.5385C22.0059 20.0773 22.3847 19.6985 22.3847 19.2312C22.3847 18.7638 22.0059 18.385 21.5385 18.385H20.7693Z" fill="#025AE9"/>
<path id="Subtract" fill-rule="evenodd" clip-rule="evenodd" d="M24.0381 30.7691V19.9999C24.0381 19.1502 24.7269 18.4614 25.5765 18.4614H31.7304C32.5801 18.4614 33.2689 19.1502 33.2689 19.9999V30.7691C33.2689 31.6188 32.5801 32.3076 31.7304 32.3076H25.5765C24.7269 32.3076 24.0381 31.6188 24.0381 30.7691ZM26.4437 24.6923C26.4437 24.476 26.619 24.3007 26.8353 24.3007H27.0801V23.5018C27.0801 23.262 27.2651 23.0769 27.5049 23.0769H28.9715C29.9406 23.0769 30.5938 23.5507 30.7554 24.3007H30.9961C31.2124 24.3007 31.3877 24.476 31.3877 24.6923C31.3877 24.9086 31.2124 25.0839 30.9961 25.0839H30.753C30.5691 25.9055 29.7952 26.3322 28.8756 26.3322H27.923V27.4903C27.923 27.7234 27.738 27.9084 27.5049 27.9084C27.2651 27.9084 27.0801 27.7234 27.0801 27.4903V25.0839H26.8353C26.619 25.0839 26.4437 24.9086 26.4437 24.6923ZM27.923 25.0839V25.5715H28.903C29.3685 25.5715 29.7061 25.3813 29.8542 25.0839H27.923ZM29.8508 24.3007C29.6998 24 29.3611 23.8445 28.903 23.8445H27.923V24.3007H29.8508Z" fill="#025AE9"/>
</g>
</svg>
