<svg width="40" height="40" viewBox="0 0 40 40" fill="none" xmlns="http://www.w3.org/2000/svg">
<g id="Pay Online">
<path id="shape_full" fill-rule="evenodd" clip-rule="evenodd" d="M4.61523 6.99996C4.61523 6.53264 4.99407 6.15381 5.46139 6.15381H6.73871C8.18452 6.15381 9.44517 7.13689 9.79749 8.53912L10.5318 11.4615H13.1537C13.621 11.4615 13.9999 11.8404 13.9999 12.3077C13.9999 12.775 13.621 13.1538 13.1537 13.1538H10.957L12.7666 20.3561C12.9299 21.0059 13.5141 21.4615 14.1841 21.4615H29.5754C30.202 21.4615 30.7589 21.0621 30.9598 20.4685L33.1261 14.0681C33.278 13.6192 32.9442 13.1538 32.4703 13.1538H30.846C30.3787 13.1538 29.9998 12.775 29.9998 12.3077C29.9998 11.8403 30.3787 11.4615 30.846 11.4615H32.4703C34.1026 11.4615 35.2524 13.0645 34.7291 14.6106L32.5628 21.0111C32.1293 22.2919 30.9276 23.1538 29.5754 23.1538H14.1841C12.7383 23.1538 11.4776 22.1707 11.1253 20.7685L8.15619 8.9515C7.99293 8.30169 7.40872 7.84612 6.73871 7.84612H5.46139C4.99407 7.84612 4.61523 7.46728 4.61523 6.99996ZM11.5383 25.3846C11.5383 24.9173 11.9171 24.5384 12.3845 24.5384H31.6152C32.0826 24.5384 32.4614 24.9173 32.4614 25.3846C32.4614 25.8519 32.0826 26.2307 31.6152 26.2307H12.3845C11.9171 26.2307 11.5383 25.8519 11.5383 25.3846ZM13.1536 30.7692C13.1536 29.962 13.808 29.3077 14.6152 29.3077C15.4223 29.3077 16.0767 29.962 16.0767 30.7692C16.0767 31.5764 15.4223 32.2308 14.6152 32.2308C13.808 32.2308 13.1536 31.5764 13.1536 30.7692ZM14.6152 27.6154C12.8733 27.6154 11.4613 29.0274 11.4613 30.7692C11.4613 32.511 12.8733 33.9231 14.6152 33.9231C16.357 33.9231 17.769 32.511 17.769 30.7692C17.769 29.0274 16.357 27.6154 14.6152 27.6154ZM29.2305 29.3077C28.4234 29.3077 27.769 29.962 27.769 30.7692C27.769 31.5764 28.4234 32.2308 29.2305 32.2308C30.0377 32.2308 30.6921 31.5764 30.6921 30.7692C30.6921 29.962 30.0377 29.3077 29.2305 29.3077ZM26.0767 30.7692C26.0767 29.0274 27.4887 27.6154 29.2305 27.6154C30.9724 27.6154 32.3844 29.0274 32.3844 30.7692C32.3844 32.511 30.9724 33.9231 29.2305 33.9231C27.4887 33.9231 26.0767 32.511 26.0767 30.7692ZM28.5385 12.7692C28.5385 16.3803 25.6112 19.3077 22.0001 19.3077C18.389 19.3077 15.4616 16.3803 15.4616 12.7692C15.4616 9.15812 18.389 6.23075 22.0001 6.23075C25.6112 6.23075 28.5385 9.15812 28.5385 12.7692ZM20.4551 17C20.1301 17 19.8794 16.7493 19.8794 16.4336V12.9561H19.1102C18.7946 12.9561 18.5387 12.7002 18.5387 12.3846C18.5387 12.069 18.7946 11.8132 19.1102 11.8132H19.8794V10.6527C19.8794 10.3277 20.1301 10.0769 20.4551 10.0769H22.4422C23.7886 10.0769 24.685 10.752 24.8747 11.8132H25.264C25.5796 11.8132 25.8354 12.069 25.8354 12.3846C25.8354 12.7002 25.5796 12.9561 25.264 12.9561H24.8184C24.5138 14.0222 23.5032 14.6923 22.3122 14.6923H21.0215V16.4336C21.0215 16.7493 20.7708 17 20.4551 17ZM23.6687 11.8132C23.4854 11.3547 23.0086 11.1169 22.3494 11.1169H21.0215V11.8132H23.6687ZM21.0215 12.9561H23.5774C23.3531 13.3583 22.9229 13.6616 22.3494 13.6616H21.0215V12.9561Z" fill="#025AE9"/>
</g>
</svg>
