<svg width="40" height="40" viewBox="0 0 40 40" fill="none" xmlns="http://www.w3.org/2000/svg">
<g id="PayQR">
<path id="shape_half" opacity="0.4" fill-rule="evenodd" clip-rule="evenodd" d="M10.6924 13.0769C10.6924 11.7599 11.76 10.6923 13.077 10.6923H16.9232C18.2401 10.6923 19.3078 11.7599 19.3078 13.0769V16.1538C19.3078 17.4708 18.2401 18.5384 16.9232 18.5384H13.077C11.76 18.5384 10.6924 17.4708 10.6924 16.1538V13.0769ZM13.077 12.3846C12.6946 12.3846 12.3847 12.6945 12.3847 13.0769V16.1538C12.3847 16.5362 12.6946 16.8461 13.077 16.8461H16.9232C17.3055 16.8461 17.6155 16.5361 17.6155 16.1538V13.0769C17.6155 12.6945 17.3055 12.3846 16.9232 12.3846H13.077ZM21.4616 13.0769C21.4616 11.7599 22.5292 10.6923 23.8462 10.6923H27.6924C29.0094 10.6923 30.077 11.7599 30.077 13.0769V16.1538C30.077 17.4708 29.0094 18.5384 27.6924 18.5384H23.8462C22.5292 18.5384 21.4616 17.4708 21.4616 16.1538V13.0769ZM23.8462 12.3846C23.4639 12.3846 23.1539 12.6945 23.1539 13.0769V16.1538C23.1539 16.5362 23.4639 16.8461 23.8462 16.8461H27.6924C28.0747 16.8461 28.3847 16.5361 28.3847 16.1538V13.0769C28.3847 12.6945 28.0747 12.3846 27.6924 12.3846H23.8462ZM13.077 21.4615C11.76 21.4615 10.6924 22.5291 10.6924 23.8461V26.923C10.6924 28.24 11.76 29.3076 13.077 29.3076H16.9232C18.2401 29.3076 19.3078 28.24 19.3078 26.923V23.8461C19.3078 22.5291 18.2401 21.4615 16.9232 21.4615H13.077ZM12.3847 23.8461C12.3847 23.4638 12.6946 23.1538 13.077 23.1538H16.9232C17.3055 23.1538 17.6155 23.4638 17.6155 23.8461V26.923C17.6155 27.3054 17.3055 27.6153 16.9232 27.6153H13.077C12.6946 27.6153 12.3847 27.3054 12.3847 26.923V23.8461ZM24.6155 27.6923C24.6155 28.5419 23.9267 29.2307 23.077 29.2307C22.2273 29.2307 21.5385 28.5419 21.5385 27.6923C21.5385 26.8426 22.2273 26.1538 23.077 26.1538C23.9267 26.1538 24.6155 26.8426 24.6155 27.6923ZM27.6924 24.6153C28.5421 24.6153 29.2308 23.9265 29.2308 23.0769C29.2308 22.2272 28.5421 21.5384 27.6924 21.5384C26.8427 21.5384 26.1539 22.2272 26.1539 23.0769C26.1539 23.9265 26.8427 24.6153 27.6924 24.6153Z" fill="#025AE9"/>
<path id="shape_full" fill-rule="evenodd" clip-rule="evenodd" d="M35.4612 9.23064C35.4612 6.63915 33.3603 4.53833 30.7689 4.53833L26.1535 4.53833C25.6862 4.53833 25.3073 4.91717 25.3073 5.38448C25.3073 5.8518 25.6862 6.23064 26.1535 6.23064L30.7689 6.23064C32.4257 6.23064 33.7689 7.57378 33.7689 9.23064L33.7689 13.846C33.7689 14.3133 34.1477 14.6922 34.615 14.6922C35.0823 14.6922 35.4612 14.3133 35.4612 13.846V9.23064ZM9.23039 4.53833C6.6389 4.53833 4.53809 6.63915 4.53809 9.23064V13.846C4.53809 14.3133 4.91692 14.6922 5.38424 14.6922C5.85156 14.6922 6.23039 14.3133 6.23039 13.846V9.23064C6.23039 7.57379 7.57354 6.23064 9.23039 6.23064H13.8458C14.3131 6.23064 14.6919 5.8518 14.6919 5.38448C14.6919 4.91717 14.3131 4.53833 13.8458 4.53833H9.23039ZM35.4612 30.7691C35.4612 33.3606 33.3603 35.4614 30.7689 35.4614H26.1535C25.6862 35.4614 25.3073 35.0826 25.3073 34.6153C25.3073 34.1479 25.6862 33.7691 26.1535 33.7691L30.7689 33.7691C32.4257 33.7691 33.7689 32.426 33.7689 30.7691V26.1537C33.7689 25.6864 34.1477 25.3076 34.615 25.3076C35.0823 25.3076 35.4612 25.6864 35.4612 26.1537L35.4612 30.7691ZM4.53809 30.7691C4.53809 33.3606 6.63891 35.4614 9.23039 35.4614H13.8458C14.3131 35.4614 14.6919 35.0826 14.6919 34.6153C14.6919 34.1479 14.3131 33.7691 13.8458 33.7691H9.2304C7.57354 33.7691 6.23039 32.426 6.23039 30.7691L6.23039 26.1537C6.23039 25.6864 5.85156 25.3076 5.38424 25.3076C4.91692 25.3076 4.53809 25.6864 4.53809 26.1537L4.53809 30.7691Z" fill="#025AE9"/>
</g>
</svg>
