<svg width="40" height="40" viewBox="0 0 40 40" fill="none" xmlns="http://www.w3.org/2000/svg">
<path fill-rule="evenodd" clip-rule="evenodd" d="M26.9995 6.9227C26.9995 5.60571 25.9318 4.53809 24.6149 4.53809H11.5379C10.221 4.53809 9.15332 5.60571 9.15332 6.9227V13.8458C9.15332 14.3131 9.53216 14.6919 9.99947 14.6919C10.4668 14.6919 10.8456 14.3131 10.8456 13.8458V6.9227C10.8456 6.54035 11.1556 6.23039 11.5379 6.23039H24.6149C24.9972 6.23039 25.3072 6.54035 25.3072 6.9227V9.82011V30.7689C25.3072 31.1512 24.9972 31.4612 24.6149 31.4612H23.2163C23.162 31.4612 23.1089 31.4663 23.0575 31.476L24.7321 33.1506C25.9946 33.0895 26.9995 32.0465 26.9995 30.7689V9.82011V6.9227ZM11.5379 31.4612H14.8816L16.0345 33.1382C15.9824 33.1482 15.9286 33.1535 15.8736 33.1535H11.5379C10.2209 33.1535 9.15332 32.0858 9.15332 30.7689V26.1535C9.15332 25.6862 9.53216 25.3073 9.99947 25.3073C10.4668 25.3073 10.8456 25.6862 10.8456 26.1535V30.7689C10.8456 31.1512 11.1556 31.4612 11.5379 31.4612ZM17.2285 9.83788V10.5988H19.996C19.7794 10.1483 19.3186 9.83788 18.7862 9.83788H17.2285ZM15.543 10.5988H15.9208V9.28621C15.9208 9.13168 15.9744 8.98967 16.064 8.87776C16.1747 8.71444 16.3618 8.60711 16.5739 8.60711H18.7862C20.0058 8.60711 21.0292 9.45647 21.2928 10.5988H21.6861C22.0069 10.5988 22.2669 10.8589 22.2669 11.1796C22.2669 11.5004 22.0069 11.7604 21.6861 11.7604H21.2928C21.0298 12.9001 20.0085 13.752 18.7862 13.752H17.2285V15.5607C17.2285 15.9218 16.9358 16.2146 16.5747 16.2146C16.2135 16.2146 15.9208 15.9218 15.9208 15.5607L15.9208 11.7604H15.543C15.2222 11.7604 14.9622 11.5004 14.9622 11.1796C14.9622 10.8589 15.2222 10.5988 15.543 10.5988ZM18.7862 12.5213C19.3196 12.5213 19.7796 12.2102 19.996 11.7604H17.2285V12.5213H18.7862Z" fill="#025AE9"/>
<path d="M10 22.3074L10 17.692" stroke="#025AE9" stroke-width="1.53846" stroke-linecap="round"/>
<path d="M8.07669 20.3841L10.0002 22.3072L11.9227 20.3843" stroke="#025AE9" stroke-width="1.53846" stroke-linecap="round" stroke-linejoin="round"/>
<path opacity="0.4" fill-rule="evenodd" clip-rule="evenodd" d="M26.7109 20.1323C26.359 19.8248 25.8244 19.8609 25.5169 20.2128C25.2095 20.5647 25.2455 21.0993 25.5974 21.4067C27.8575 23.3813 29.1542 26.236 29.1542 29.2371V34.6157C29.1542 35.083 29.533 35.4618 30.0003 35.4618C30.4676 35.4618 30.8465 35.083 30.8465 34.6157V29.2371C30.8465 25.7476 29.3387 22.4282 26.7109 20.1323ZM16.042 28.0873C16.4865 27.8094 17.0639 27.8752 17.4346 28.2458L24.4024 35.2136C24.7328 35.544 25.2686 35.544 25.599 35.2136C25.9295 34.8832 25.9295 34.3474 25.599 34.017L18.6312 27.0492C17.7033 26.1213 16.2578 25.9567 15.1451 26.6522C13.7844 27.5026 13.4075 29.3159 14.3165 30.6382L17.3802 35.0946C17.6449 35.4797 18.1717 35.5773 18.5568 35.3126C18.9419 35.0478 19.0394 34.521 18.7747 34.1359L15.711 29.6795C15.3479 29.1513 15.4985 28.427 16.042 28.0873Z" fill="#025AE9"/>
</svg>
