<svg width="40" height="40" viewBox="0 0 40 40" fill="none" xmlns="http://www.w3.org/2000/svg">
<g id="Save">
<circle id="shape_half" opacity="0.4" cx="26.9232" cy="21.5385" r="1.53846" fill="#025AE9"/>
<path id="shape_full" fill-rule="evenodd" clip-rule="evenodd" d="M22.5362 15.5647C21.0946 17.7721 18.6021 19.2307 15.769 19.2307C14.4713 19.2307 13.2451 18.9247 12.1586 18.3809C10.5078 20.0596 9.30747 22.65 9.30747 24.811C9.30747 26.3458 9.66742 27.5595 10.2731 28.5602C10.883 29.5679 11.769 30.4039 12.8827 31.1372C13.1924 31.3411 13.3332 31.7229 13.2302 32.0791L12.7639 33.691C12.6868 33.9573 12.8082 34.2411 13.0541 34.3693L14.8961 35.3298C15.1117 35.4422 15.3745 35.4089 15.5552 35.2461L16.9939 33.9502C17.1785 33.784 17.4269 33.7072 17.6732 33.7404C20.6832 34.1458 23.055 34.1158 24.9127 33.7489C25.1984 33.6924 25.493 33.7868 25.6926 33.9988L26.7703 35.1428C26.9543 35.338 27.2478 35.3824 27.4812 35.2503L28.9725 34.406C29.2096 34.2717 29.322 33.991 29.2429 33.7302L28.864 32.4801C28.7586 32.1325 28.8869 31.7564 29.1827 31.5456C30.7542 30.4255 31.8162 29.0323 32.3845 27.6207C32.4714 27.4048 32.6434 27.2342 32.8601 27.1491L34.938 26.333C35.1609 26.2454 35.3075 26.0303 35.3075 25.7909V23.5693C35.3075 23.3045 35.1288 23.073 34.8726 23.0059L32.9551 22.5038C32.6961 22.4359 32.4845 22.2495 32.3845 22.0012C31.7891 20.5221 30.7283 19.1839 29.312 18.1075C29.1014 17.9475 28.9778 17.6983 28.9778 17.4338V13.5092C27.864 14.023 26.4474 14.9197 25.6988 15.7317C25.4864 15.9621 25.164 16.0562 24.8609 15.9763C24.1169 15.78 23.3393 15.6406 22.5362 15.5647ZM23.3471 13.9546C23.6697 13.082 23.8459 12.1385 23.8459 11.1538C23.8459 6.69307 20.2298 3.0769 15.769 3.0769C11.3082 3.0769 7.69207 6.69307 7.69207 11.1538C7.69207 13.6991 8.86945 15.9695 10.7093 17.4499C9.28173 19.0032 8.1673 21.1285 7.77127 23.2177C7.40821 23.0979 7.07237 22.8876 6.77538 22.6129C7.03044 22.2336 7.23013 21.8346 7.37292 21.4457C7.6577 20.6699 7.76813 19.8094 7.56984 19.0809C7.46817 18.7074 7.27424 18.3329 6.94211 18.0495C6.60041 17.7579 6.17384 17.6156 5.7131 17.6156C5.23863 17.6156 4.80283 17.7723 4.46399 18.09C4.13896 18.3946 3.96397 18.7896 3.87948 19.1721C3.71394 19.9214 3.85 20.8098 4.15239 21.6161C4.26258 21.9098 4.40317 22.212 4.57341 22.5092C4.14846 22.8139 3.64318 23.0002 3.07662 23.0002C2.6093 23.0002 2.23047 23.3791 2.23047 23.8464C2.23047 24.3137 2.6093 24.6925 3.07662 24.6925C4.08469 24.6925 4.93402 24.3554 5.61625 23.8452C6.16246 24.359 6.83118 24.7606 7.6158 24.9319C7.63454 26.6957 8.06376 28.1782 8.82533 29.4365C9.49209 30.5382 10.3939 31.4357 11.4354 32.1933L11.1382 33.2207C10.8373 34.261 11.3114 35.3691 12.2716 35.8698L14.1136 36.8303C14.9557 37.2695 15.982 37.1392 16.6877 36.5036L17.8373 35.4682C20.5627 35.8085 22.8565 35.8085 24.7754 35.4932L25.5385 36.3032C26.2569 37.0658 27.4032 37.2391 28.3149 36.7229L29.8062 35.8786C30.7324 35.3543 31.1712 34.2578 30.8625 33.2393L30.6552 32.5555C32.1 31.4129 33.1584 30.04 33.8086 28.5947L35.5567 27.9081C36.4273 27.5662 36.9998 26.7262 36.9998 25.7909V23.5693C36.9998 22.5349 36.3019 21.6308 35.3013 21.3688L33.7837 20.9714C33.0958 19.4614 32.0194 18.1213 30.6701 17.023V13.176C30.6701 12.2315 29.7472 11.354 28.6786 11.7935C27.5276 12.2668 25.8995 13.2131 24.8164 14.2223C24.3368 14.1116 23.8464 14.0219 23.3471 13.9546ZM14.2232 14.6158C13.8982 14.6158 13.6475 14.3651 13.6475 14.0493V10.5717H12.8787C12.5631 10.5717 12.3072 10.3158 12.3072 10.0002C12.3072 9.68465 12.5631 9.42882 12.8787 9.42882H13.6475V8.26841C13.6475 7.94341 13.8982 7.6927 14.2232 7.6927H16.2104C17.5567 7.6927 18.453 8.36765 18.6428 9.42881H19.0325C19.3481 9.42881 19.6039 9.68465 19.6039 10.0002C19.6039 10.3158 19.3481 10.5717 19.0325 10.5717H18.5866C18.282 11.6379 17.2714 12.3081 16.0804 12.3081H14.7897V14.0493C14.7897 14.3651 14.539 14.6158 14.2232 14.6158ZM17.4368 9.42881C17.2534 8.97043 16.7767 8.7327 16.1175 8.7327H14.7897V9.42882L17.4368 9.42881ZM14.7897 10.5717L17.3456 10.5717C17.1214 10.974 16.6911 11.2774 16.1175 11.2774H14.7897V10.5717ZM5.84306 19.3363C5.83817 19.3319 5.81139 19.3079 5.7131 19.3079C5.66264 19.3079 5.63861 19.3157 5.63199 19.3182C5.62645 19.3203 5.62455 19.3216 5.62137 19.3246C5.61303 19.3324 5.56581 19.3839 5.53195 19.5371C5.46151 19.856 5.5026 20.3883 5.72975 21.0025C5.74885 20.9562 5.76703 20.9094 5.78427 20.8625C5.99366 20.2921 6.01345 19.8064 5.93694 19.5253C5.9012 19.394 5.85598 19.3474 5.84306 19.3363Z" fill="#025AE9"/>
</g>
</svg>
