<svg width="40" height="40" viewBox="0 0 40 40" fill="none" xmlns="http://www.w3.org/2000/svg">
<g id="Scheduled Payment">
<path id="shape_full" fill-rule="evenodd" clip-rule="evenodd" d="M10.8458 6.9233C10.8458 6.45598 10.4669 6.07715 9.99962 6.07715C9.53231 6.07715 9.15347 6.45598 9.15347 6.9233V7.61561H6.9227C5.60571 7.61561 4.53809 8.68324 4.53809 10.0002V28.4618C4.53809 29.7787 5.60571 30.8464 6.9227 30.8464H20.7687C21.236 30.8464 21.6148 30.4675 21.6148 30.0002C21.6148 29.5329 21.236 29.1541 20.7687 29.1541H6.9227C6.54035 29.1541 6.23039 28.8441 6.23039 28.4618V15.4618H29.1533L29.1533 17.6923C29.1533 18.1596 29.5321 18.5385 29.9994 18.5385C30.4667 18.5385 30.8456 18.1597 30.8456 17.6924L30.8457 10.0003C30.8458 8.68327 29.7781 7.61561 28.4611 7.61561H26.2303V6.9233C26.2303 6.45598 25.8514 6.07715 25.3841 6.07715C24.9168 6.07715 24.538 6.45598 24.538 6.9233V7.61561H18.538V6.9233C18.538 6.45598 18.1591 6.07715 17.6918 6.07715C17.2245 6.07715 16.8457 6.45598 16.8457 6.9233V7.61561H10.8458V6.9233ZM24.538 9.30792H18.538V10.7695C18.538 11.2368 18.1591 11.6156 17.6918 11.6156C17.2245 11.6156 16.8457 11.2368 16.8457 10.7695V9.30792H10.8458V10.7693C10.8458 11.2366 10.4669 11.6154 9.99962 11.6154C9.53231 11.6154 9.15347 11.2366 9.15347 10.7693V9.30792H6.9227C6.54035 9.30792 6.23039 9.61787 6.23039 10.0002V13.7695H29.1534L29.1534 10.0002C29.1534 9.61788 28.8435 9.30792 28.4611 9.30792H26.2303V10.7695C26.2303 11.2368 25.8514 11.6156 25.3841 11.6156C24.9168 11.6156 24.538 11.2368 24.538 10.7695V9.30792ZM16.0765 26.1541C16.0765 25.6868 16.4553 25.3079 16.9226 25.3079H18.4611C18.9284 25.3079 19.3072 25.6868 19.3072 26.1541C19.3072 26.6214 18.9284 27.0002 18.4611 27.0002H16.9226C16.4553 27.0002 16.0765 26.6214 16.0765 26.1541ZM9.23031 21.4618C8.76299 21.4618 8.38416 21.8406 8.38416 22.3079C8.38416 22.7752 8.76299 23.1541 9.23031 23.1541H10.7688C11.2361 23.1541 11.6149 22.7752 11.6149 22.3079C11.6149 21.8406 11.2361 21.4618 10.7688 21.4618H9.23031ZM29.2303 23.8464C29.2303 23.4215 29.5747 23.0771 29.9995 23.0771H31.538C31.9628 23.0771 32.3072 23.4215 32.3072 23.8464C32.3072 24.2712 31.9628 24.6156 31.538 24.6156H29.9995C29.5747 24.6156 29.2303 24.2712 29.2303 23.8464ZM24.6149 22.3079C24.6149 21.8831 24.9593 21.5387 25.3842 21.5387H33.0765C33.5013 21.5387 33.8457 21.8831 33.8457 22.3079V27.2894V32.4091L32.9438 31.8078C32.5167 31.523 31.9479 31.5794 31.5849 31.9424L30.7688 32.7585L29.9918 31.9816C29.5712 31.561 28.8894 31.561 28.4688 31.9816L27.6918 32.7585L26.8757 31.9424C26.5127 31.5794 25.9439 31.523 25.5168 31.8078L24.6149 32.4091V22.3079ZM25.3842 20.0002C24.1097 20.0002 23.0765 21.0334 23.0765 22.3079V33.2715C23.0765 34.1316 24.0351 34.6446 24.7508 34.1675L26.0554 33.2978L26.9303 34.1727C27.3509 34.5933 28.0328 34.5933 28.4533 34.1727L29.2303 33.3958L30.0073 34.1727C30.4278 34.5933 31.1097 34.5933 31.5303 34.1727L32.4052 33.2978L33.7099 34.1675C34.4255 34.6446 35.3842 34.1316 35.3842 33.2715V27.2894V22.3079C35.3842 21.0334 34.351 20.0002 33.0765 20.0002H25.3842Z" fill="#025AE9"/>
<path id="shape_half" opacity="0.4" fill-rule="evenodd" clip-rule="evenodd" d="M8.38477 18.4614C8.38477 17.9941 8.7636 17.6152 9.23092 17.6152H10.7694C11.2367 17.6152 11.6155 17.9941 11.6155 18.4614C11.6155 18.9287 11.2367 19.3075 10.7694 19.3075H9.23092C8.7636 19.3075 8.38477 18.9287 8.38477 18.4614ZM8.38484 26.1537C8.38484 25.6864 8.76367 25.3075 9.23099 25.3075H10.7695C11.2368 25.3075 11.6156 25.6864 11.6156 26.1537C11.6156 26.621 11.2368 26.9998 10.7695 26.9998H9.23099C8.76367 26.9998 8.38484 26.621 8.38484 26.1537ZM16.9233 17.6152C16.456 17.6152 16.0771 17.9941 16.0771 18.4614C16.0771 18.9287 16.456 19.3075 16.9233 19.3075H18.4618C18.9291 19.3075 19.3079 18.9287 19.3079 18.4614C19.3079 17.9941 18.9291 17.6152 18.4618 17.6152H16.9233ZM23.7695 18.4614C23.7695 17.9941 24.1483 17.6152 24.6156 17.6152H26.1541C26.6214 17.6152 27.0002 17.9941 27.0002 18.4614C27.0002 18.9287 26.6214 19.3075 26.1541 19.3075H24.6156C24.1483 19.3075 23.7695 18.9287 23.7695 18.4614ZM16.9233 21.4614C16.456 21.4614 16.0771 21.8402 16.0771 22.3075C16.0771 22.7749 16.456 23.1537 16.9233 23.1537H18.4618C18.9291 23.1537 19.3079 22.7749 19.3079 22.3075C19.3079 21.8402 18.9291 21.4614 18.4618 21.4614H16.9233ZM26.1541 26.9229C26.1541 26.4981 26.4985 26.1537 26.9233 26.1537H31.5387C31.9635 26.1537 32.3079 26.4981 32.3079 26.9229C32.3079 27.3478 31.9635 27.6922 31.5387 27.6922H26.9233C26.4985 27.6922 26.1541 27.3478 26.1541 26.9229ZM26.9233 29.2306C26.4985 29.2306 26.1541 29.575 26.1541 29.9998C26.1541 30.4247 26.4985 30.7691 26.9233 30.7691H31.5387C31.9635 30.7691 32.3079 30.4247 32.3079 29.9998C32.3079 29.575 31.9635 29.2306 31.5387 29.2306H26.9233Z" fill="#025AE9"/>
</g>
</svg>
