<svg width="40" height="40" viewBox="0 0 40 40" fill="none" xmlns="http://www.w3.org/2000/svg">
<g id="Send">
<path id="shape_half" opacity="0.4" fill-rule="evenodd" clip-rule="evenodd" d="M33.9233 14.6153C33.9233 12.8735 32.5113 11.4614 30.7695 11.4614L20.5814 11.4614L9.231 11.4614C8.99205 11.4614 8.75931 11.488 8.53558 11.5383L6.70352 11.5383C4.70073 11.5383 3.07715 13.1619 3.07715 15.1647L3.07715 26.923C3.07715 29.8968 5.48792 32.3076 8.46176 32.3076H18.0771H32.3079C32.7328 32.3076 33.0771 31.9632 33.0771 31.5383C33.0771 31.1135 32.7328 30.7691 32.3079 30.7691H18.0771H8.46176C6.33759 30.7691 4.61561 29.0471 4.61561 26.923L4.61561 15.1647C4.61561 14.0905 5.42679 13.2058 6.47 13.0897C6.21967 13.5418 6.07715 14.0619 6.07715 14.6153L6.07715 26.1537C6.07715 27.8956 7.48917 29.3076 9.23099 29.3076H20.0002H30.7695C32.5113 29.3076 33.9233 27.8956 33.9233 26.1537V14.6153ZM30.7695 13.1537C31.5766 13.1537 32.231 13.8081 32.231 14.6153L32.231 26.1537C32.231 26.9609 31.5766 27.6153 30.7695 27.6153H20.0002L9.23099 27.6153C8.42381 27.6153 7.76946 26.9609 7.76946 26.1537L7.76946 14.6153C7.76946 13.8081 8.42381 13.1537 9.231 13.1537L20.5814 13.1537L30.7695 13.1537Z" fill="#025AE9"/>
<path id="shape_full" fill-rule="evenodd" clip-rule="evenodd" d="M7.69231 19.2307L0 12.3076L7.69231 5.38452L7.69231 7.69221L13.4615 7.69221C14.0988 7.69221 14.6154 8.20881 14.6154 8.84606L14.6154 15.7691C14.6154 16.4064 14.0988 16.923 13.4615 16.923H7.69231L7.69231 19.2307ZM18.0702 23.8461C17.7452 23.8461 17.4945 23.5953 17.4945 23.2796V19.8021H16.7253C16.4097 19.8021 16.1538 19.5463 16.1538 19.2307C16.1538 18.9151 16.4097 18.6592 16.7253 18.6592H17.4945V17.4987C17.4945 17.1737 17.7452 16.923 18.0702 16.923H20.0574C21.4037 16.923 22.3001 17.598 22.4898 18.6592H22.8791C23.1947 18.6592 23.4506 18.9151 23.4506 19.2307C23.4506 19.5463 23.1947 19.8021 22.8791 19.8021H22.4335C22.1289 20.8683 21.1183 21.5384 19.9274 21.5384H18.6366V23.2796C18.6366 23.5953 18.3859 23.8461 18.0702 23.8461ZM21.2839 18.6592C21.1005 18.2008 20.6238 17.963 19.9645 17.963H18.6366V18.6592H21.2839ZM18.6366 19.8021H21.1925C20.9682 20.2044 20.538 20.5077 19.9645 20.5077H18.6366V19.8021ZM40 27.6922L32.3077 20.7691V23.0768H26.5385C25.9012 23.0768 25.3846 23.5934 25.3846 24.2307V31.1538C25.3846 31.791 25.9012 32.3076 26.5385 32.3076H32.3077V34.6153L40 27.6922Z" fill="#025AE9"/>
</g>
</svg>
