<svg width="33" height="32" viewBox="0 0 33 32" fill="none" xmlns="http://www.w3.org/2000/svg">
<rect x="4.80859" y="25.2312" width="23.3846" height="2.46154" rx="0.501124" stroke="#FFEBBC" stroke-width="1.35385"/>
<path d="M7.26953 12.925V25.2327" stroke="#FFEBBC" stroke-width="1.35385" stroke-linecap="round" stroke-linejoin="round"/>
<path d="M10.9609 12.925V25.2327" stroke="#FFEBBC" stroke-width="1.35385" stroke-linecap="round" stroke-linejoin="round"/>
<path d="M14.6523 12.925V25.2327" stroke="#FFEBBC" stroke-width="1.35385" stroke-linecap="round" stroke-linejoin="round"/>
<path d="M18.3477 12.925V25.2327" stroke="#FFEBBC" stroke-width="1.35385" stroke-linecap="round" stroke-linejoin="round"/>
<path d="M22.0391 12.925V25.2327" stroke="#FFEBBC" stroke-width="1.35385" stroke-linecap="round" stroke-linejoin="round"/>
<path d="M25.7305 12.925V25.2327" stroke="#FFEBBC" stroke-width="1.35385" stroke-linecap="round" stroke-linejoin="round"/>
<path d="M5.42398 10.0497H7.3791C7.49703 10.0497 7.61248 10.0159 7.7117 9.95212L16.1683 4.5198C16.3709 4.38964 16.6309 4.38964 16.8335 4.5198L25.2901 9.95212C25.3893 10.0159 25.5048 10.0497 25.6227 10.0497H27.5778C27.9177 10.0497 28.1932 10.3253 28.1932 10.6651V12.3062C28.1932 12.646 27.9177 12.9215 27.5778 12.9215H5.42398C5.08411 12.9215 4.80859 12.646 4.80859 12.3062V10.6651C4.80859 10.3253 5.08411 10.0497 5.42398 10.0497Z" stroke="#FFEBBC" stroke-width="1.35385" stroke-linecap="round" stroke-linejoin="round"/>
<circle opacity="0.4" cx="1.23077" cy="1.23077" r="1.23077" transform="matrix(1 0 0 -1 15.2695 11.075)" fill="#FFEBBC"/>
</svg>
