<svg width="33" height="32" viewBox="0 0 33 32" fill="none" xmlns="http://www.w3.org/2000/svg">
<path fill-rule="evenodd" clip-rule="evenodd" d="M5.76596 4.98153V6.70894H26.566V4.98153H5.76596ZM5.76596 9.78394V8.06278H26.566V9.78394H5.76596ZM5.76596 11.1378V12.8585H26.566V11.1378H5.76596ZM4.41211 4.91999C4.41211 4.20627 4.9907 3.62769 5.70442 3.62769H26.6275C27.3412 3.62769 27.9198 4.20627 27.9198 4.91999V12.92C27.9198 13.6337 27.3412 14.2123 26.6275 14.2123H26.0736V16.0513C28.1309 16.3762 29.704 18.1574 29.704 20.3061C29.704 22.4547 28.1309 24.2359 26.0736 24.5608V27.0152H27.8584C28.2323 27.0152 28.5353 27.3183 28.5353 27.6921C28.5353 28.066 28.2323 28.369 27.8584 28.369H4.4738C4.09994 28.369 3.79688 28.066 3.79688 27.6921C3.79688 27.3183 4.09994 27.0152 4.4738 27.0152H6.2582V14.2123H5.70442C4.9907 14.2123 4.41211 13.6337 4.41211 12.92V4.91999ZM24.7197 24.5609C22.6621 24.2363 21.0886 22.4549 21.0886 20.3061C21.0886 18.1572 22.6621 16.3758 24.7197 16.0512V14.2128H7.61205V27.0128H24.7197V24.5609ZM13.7045 17.294C12.7189 17.294 11.9199 18.093 11.9199 19.0786V24.3094C11.9199 24.4454 12.0301 24.5556 12.166 24.5556H17.7045C17.8404 24.5556 17.9506 24.4454 17.9506 24.3094V19.0786C17.9506 18.093 17.1516 17.294 16.166 17.294H13.7045ZM10.566 19.0786C10.566 17.3453 11.9712 15.9402 13.7045 15.9402H16.166C17.8993 15.9402 19.3045 17.3453 19.3045 19.0786V24.3094C19.3045 25.1931 18.5881 25.9094 17.7045 25.9094H12.166C11.2824 25.9094 10.566 25.1931 10.566 24.3094V19.0786ZM27.5394 19.9328C27.5009 19.9199 27.4603 19.9143 27.421 19.9142L25.8595 19.8714C25.6117 19.8653 25.4048 20.0594 25.3988 20.3072C25.3927 20.5551 25.5868 20.762 25.8346 20.7681L25.8371 20.7687L26.8801 20.7961C26.659 21.4643 25.9991 21.9282 25.2533 21.8597C24.4534 21.7872 23.8313 21.1005 23.8337 20.2975C23.8362 19.4158 24.5648 18.7155 25.4405 18.7401C25.7375 18.7488 26.0178 18.8397 26.2588 18.9988C26.437 19.1175 26.6699 19.1011 26.8249 18.9535C27.0319 18.7595 27.0099 18.4201 26.7738 18.2623C26.1582 17.8452 25.3697 17.7206 24.5859 17.9701C23.9093 18.1827 23.3665 18.6991 23.113 19.3612C22.4616 21.067 23.6841 22.7181 25.326 22.7642C26.6839 22.8024 27.8193 21.7306 27.8575 20.3726C27.8638 20.1826 27.745 19.9984 27.5394 19.9328Z" fill="#86E3AD"/>
<path opacity="0.4" fill-rule="evenodd" clip-rule="evenodd" d="M14.938 22.1564C15.9576 22.1564 16.7841 21.3299 16.7841 20.3103C16.7841 19.2907 15.9576 18.4641 14.938 18.4641C13.9183 18.4641 13.0918 19.2907 13.0918 20.3103C13.0918 21.3299 13.9183 22.1564 14.938 22.1564ZM13.7073 22.7704C13.0276 22.7704 12.4766 23.3214 12.4766 24.0011V25.2319H17.3996V24.0011C17.3996 23.3214 16.8486 22.7704 16.1689 22.7704H13.7073Z" fill="#86E3AD"/>
</svg>
