<svg width="33" height="32" viewBox="0 0 33 32" fill="none" xmlns="http://www.w3.org/2000/svg">
<path opacity="0.4" fill-rule="evenodd" clip-rule="evenodd" d="M27.974 11.6869C27.974 10.2934 26.8444 9.16382 25.451 9.16382H17.3005H8.22019C8.02904 9.16382 7.84285 9.18508 7.66386 9.22536L6.19798 9.22536C4.59574 9.22536 3.29688 10.5242 3.29688 12.1265V21.533C3.29688 23.9121 5.22549 25.8407 7.60457 25.8407H15.2969H26.6815C27.0214 25.8407 27.2969 25.5652 27.2969 25.2254C27.2969 24.8855 27.0214 24.61 26.6815 24.61H15.2969L7.60457 24.61C5.90523 24.61 4.52764 23.2324 4.52764 21.533L4.52764 12.1265C4.52764 11.267 5.17672 10.5592 6.01141 10.4664C5.81113 10.8281 5.69711 11.2442 5.69711 11.6869L5.69711 20.9177C5.69711 22.3111 6.82673 23.4407 8.22019 23.4407L16.8356 23.4407H25.451C26.8444 23.4407 27.974 22.3111 27.974 20.9177L27.974 11.6869ZM25.451 10.5177C26.0967 10.5177 26.6202 11.0411 26.6202 11.6869V20.9177C26.6202 21.5634 26.0967 22.0869 25.451 22.0869H16.8356L8.22019 22.0869C7.57444 22.0869 7.05096 21.5634 7.05096 20.9177L7.05096 11.6869C7.05096 11.0411 7.57445 10.5177 8.22019 10.5177L17.3005 10.5177L25.451 10.5177Z" fill="#E4FFBF"/>
<path fill-rule="evenodd" clip-rule="evenodd" d="M6.98978 15.3831L0.835938 9.84461L6.98978 4.30615V6.15279L11.605 6.15279C12.1148 6.15279 12.5281 6.56606 12.5281 7.07587L12.5281 12.6143C12.5281 13.1241 12.1148 13.5374 11.605 13.5374L6.98978 13.5374V15.3831ZM15.2922 19.0759C15.0322 19.0759 14.8316 18.8753 14.8316 18.6227V15.8383H14.2164C13.9639 15.8383 13.7593 15.6336 13.7593 15.3812C13.7593 15.1287 13.9639 14.924 14.2164 14.924H14.8316V13.998C14.8316 13.738 15.0322 13.5374 15.2922 13.5374H16.8819C17.958 13.5374 18.6748 14.0764 18.8274 14.924H19.1395C19.392 14.924 19.5966 15.1287 19.5966 15.3812C19.5966 15.6336 19.392 15.8383 19.1395 15.8383H18.7835C18.5407 16.6926 17.7316 17.2297 16.7779 17.2297H15.7454V18.6227C15.7454 18.8753 15.5448 19.0759 15.2922 19.0759ZM17.8622 14.924C17.7148 14.5588 17.3339 14.3694 16.8076 14.3694H15.7454V14.924H17.8622ZM15.7454 15.8383H17.7914C17.6123 16.1613 17.2676 16.4051 16.8076 16.4051H15.7454V15.8383ZM32.8363 22.1536L26.6825 16.6152V18.4608H22.0672C21.5574 18.4608 21.1441 18.8741 21.1441 19.3839V24.9224C21.1441 25.4322 21.5574 25.8455 22.0672 25.8455H26.6825V27.6921L32.8363 22.1536Z" fill="#E4FFBF"/>
</svg>
