<svg xmlns="http://www.w3.org/2000/svg" width="141" height="141" viewBox="0 0 141 141" fill="none">
  <path d="M141 64.1971H94.4215L134.806 40.8847L128.404 29.794L88.0677 53.0797L111.381 12.6965L100.29 6.29488L77.0032 46.6301V0H64.1995V46.5768L40.8809 6.19352L29.7898 12.5951L53.0764 52.9303L12.6969 29.6179L6.29512 40.7087L46.6319 63.9944H0V76.7976H46.5785L6.19376 100.115L12.5956 111.206L52.9324 87.9203L29.6191 128.304L40.7102 134.705L63.9968 94.3699V141H76.8005V94.4232L100.114 134.806L111.205 128.405L87.9183 88.0696L128.303 111.382L134.705 100.291L94.3681 77.0056H141V64.2025V64.1971ZM70.5 91.5905C67.9446 75.1278 65.8694 73.0526 49.406 70.4973C65.8694 67.942 67.9446 65.8669 70.5 49.4041C73.0554 65.8669 75.1307 67.942 91.594 70.4973C75.1307 73.0526 73.0554 75.1278 70.5 91.5905Z" fill="url(#paint0_linear_1637_17417)"/>
  <defs>
    <linearGradient id="paint0_linear_1637_17417" x1="0" y1="0" x2="52.1891" y2="168.506" gradientUnits="userSpaceOnUse">
      <stop stop-color="#0079FF"/>
      <stop offset="1" stop-color="#07DDD3"/>
    </linearGradient>
  </defs>
</svg>